<ttFont>
    <TTGlyph name="A" xMin="60" yMin="-10" xMax="611" yMax="700">
      <contour>
        <pt x="451" y="227" on="1"/>
        <pt x="451" y="468" on="1"/>
        <pt x="451" y="543" on="0"/>
        <pt x="372" y="665" on="0"/>
        <pt x="308" y="665" on="1"/>
        <pt x="279" y="665" on="0"/>
        <pt x="240" y="627" on="0"/>
        <pt x="232" y="596" on="1"/>
        <pt x="218" y="548" on="0"/>
        <pt x="218" y="497" on="1"/>
        <pt x="218" y="197" on="1"/>
        <pt x="218" y="109" on="0"/>
        <pt x="271" y="25" on="0"/>
        <pt x="314" y="25" on="1"/>
        <pt x="377" y="25" on="0"/>
        <pt x="451" y="145" on="0"/>
      </contour>
      <contour>
        <pt x="611" y="0" on="1"/>
        <pt x="452" y="0" on="1"/>
        <pt x="452" y="110" on="1"/>
        <pt x="429" y="50" on="0"/>
        <pt x="343" y="-10" on="0"/>
        <pt x="296" y="-10" on="1"/>
        <pt x="188" y="-10" on="0"/>
        <pt x="60" y="125" on="0"/>
        <pt x="60" y="247" on="1"/>
        <pt x="60" y="446" on="1"/>
        <pt x="60" y="569" on="0"/>
        <pt x="202" y="700" on="0"/>
        <pt x="298" y="700" on="1"/>
        <pt x="354" y="700" on="0"/>
        <pt x="436" y="627" on="0"/>
        <pt x="452" y="575" on="1"/>
        <pt x="452" y="690" on="1"/>
        <pt x="611" y="690" on="1"/>
      </contour>
    </TTGlyph>
    <TTGlyph name="Aacute" xMin="60" yMin="-10" xMax="611" yMax="964">
      <contour>
        <pt x="451" y="227" on="1"/>
        <pt x="451" y="468" on="1"/>
        <pt x="451" y="543" on="0"/>
        <pt x="372" y="665" on="0"/>
        <pt x="308" y="665" on="1"/>
        <pt x="279" y="665" on="0"/>
        <pt x="240" y="627" on="0"/>
        <pt x="232" y="596" on="1"/>
        <pt x="218" y="548" on="0"/>
        <pt x="218" y="497" on="1"/>
        <pt x="218" y="197" on="1"/>
        <pt x="218" y="109" on="0"/>
        <pt x="271" y="25" on="0"/>
        <pt x="314" y="25" on="1"/>
        <pt x="377" y="25" on="0"/>
        <pt x="451" y="145" on="0"/>
      </contour>
      <contour>
        <pt x="611" y="0" on="1"/>
        <pt x="452" y="0" on="1"/>
        <pt x="452" y="110" on="1"/>
        <pt x="429" y="50" on="0"/>
        <pt x="343" y="-10" on="0"/>
        <pt x="296" y="-10" on="1"/>
        <pt x="188" y="-10" on="0"/>
        <pt x="60" y="125" on="0"/>
        <pt x="60" y="247" on="1"/>
        <pt x="60" y="446" on="1"/>
        <pt x="60" y="569" on="0"/>
        <pt x="202" y="700" on="0"/>
        <pt x="298" y="700" on="1"/>
        <pt x="354" y="700" on="0"/>
        <pt x="436" y="627" on="0"/>
        <pt x="452" y="575" on="1"/>
        <pt x="452" y="690" on="1"/>
        <pt x="611" y="690" on="1"/>
      </contour>
      <contour>
        <pt x="411" y="964" on="0"/>
        <pt x="444" y="932" on="0"/>
        <pt x="444" y="894" on="0"/>
        <pt x="430" y="883" on="1"/>
        <pt x="284" y="756" on="1"/>
        <pt x="263" y="773" on="1"/>
        <pt x="356" y="944" on="1"/>
        <pt x="367" y="964" on="0"/>
      </contour>
    </TTGlyph>
    <TTGlyph name="Acircumflex" xMin="60" yMin="-10" xMax="611" yMax="927">
      <contour>
        <pt x="451" y="468" on="1"/>
        <pt x="451" y="543" on="0"/>
        <pt x="372" y="665" on="0"/>
        <pt x="308" y="665" on="1"/>
        <pt x="279" y="665" on="0"/>
        <pt x="260" y="646" on="1"/>
        <pt x="218" y="606" on="0"/>
        <pt x="218" y="497" on="1"/>
        <pt x="218" y="197" on="1"/>
        <pt x="218" y="109" on="0"/>
        <pt x="271" y="25" on="0"/>
        <pt x="314" y="25" on="1"/>
        <pt x="377" y="25" on="0"/>
        <pt x="451" y="145" on="0"/>
        <pt x="451" y="227" on="1"/>
      </contour>
      <contour>
        <pt x="452" y="0" on="1"/>
        <pt x="452" y="110" on="1"/>
        <pt x="429" y="50" on="0"/>
        <pt x="343" y="-10" on="0"/>
        <pt x="296" y="-10" on="1"/>
        <pt x="188" y="-10" on="0"/>
        <pt x="60" y="125" on="0"/>
        <pt x="60" y="247" on="1"/>
        <pt x="60" y="446" on="1"/>
        <pt x="60" y="569" on="0"/>
        <pt x="202" y="700" on="0"/>
        <pt x="298" y="700" on="1"/>
        <pt x="354" y="700" on="0"/>
        <pt x="436" y="627" on="0"/>
        <pt x="452" y="575" on="1"/>
        <pt x="452" y="690" on="1"/>
        <pt x="611" y="690" on="1"/>
        <pt x="611" y="0" on="1"/>
      </contour>
      <contour>
        <pt x="237" y="887" on="1"/>
        <pt x="261" y="927" on="0"/>
        <pt x="338" y="927" on="0"/>
        <pt x="359" y="887" on="1"/>
        <pt x="416" y="778" on="1"/>
        <pt x="388" y="760" on="1"/>
        <pt x="298" y="857" on="1"/>
        <pt x="207" y="761" on="1"/>
        <pt x="180" y="778" on="1"/>
      </contour>
    </TTGlyph>
    <TTGlyph name="Adieresis" xMin="60" yMin="-10" xMax="611" yMax="868">
      <contour>
        <pt x="451" y="468" on="1"/>
        <pt x="451" y="543" on="0"/>
        <pt x="372" y="665" on="0"/>
        <pt x="308" y="665" on="1"/>
        <pt x="279" y="665" on="0"/>
        <pt x="260" y="646" on="1"/>
        <pt x="218" y="606" on="0"/>
        <pt x="218" y="497" on="1"/>
        <pt x="218" y="197" on="1"/>
        <pt x="218" y="109" on="0"/>
        <pt x="271" y="25" on="0"/>
        <pt x="314" y="25" on="1"/>
        <pt x="377" y="25" on="0"/>
        <pt x="451" y="145" on="0"/>
        <pt x="451" y="227" on="1"/>
      </contour>
      <contour>
        <pt x="452" y="0" on="1"/>
        <pt x="452" y="110" on="1"/>
        <pt x="429" y="50" on="0"/>
        <pt x="343" y="-10" on="0"/>
        <pt x="296" y="-10" on="1"/>
        <pt x="188" y="-10" on="0"/>
        <pt x="60" y="125" on="0"/>
        <pt x="60" y="247" on="1"/>
        <pt x="60" y="446" on="1"/>
        <pt x="60" y="569" on="0"/>
        <pt x="202" y="700" on="0"/>
        <pt x="298" y="700" on="1"/>
        <pt x="354" y="700" on="0"/>
        <pt x="436" y="627" on="0"/>
        <pt x="452" y="575" on="1"/>
        <pt x="452" y="690" on="1"/>
        <pt x="611" y="690" on="1"/>
        <pt x="611" y="0" on="1"/>
      </contour>
      <contour>
        <pt x="417" y="868" on="0"/>
        <pt x="449" y="838" on="0"/>
        <pt x="449" y="791" on="0"/>
        <pt x="417" y="760" on="0"/>
        <pt x="363" y="760" on="0"/>
        <pt x="331" y="791" on="0"/>
        <pt x="331" y="838" on="0"/>
        <pt x="363" y="868" on="0"/>
      </contour>
      <contour>
        <pt x="235" y="868" on="0"/>
        <pt x="267" y="838" on="0"/>
        <pt x="267" y="791" on="0"/>
        <pt x="235" y="760" on="0"/>
        <pt x="181" y="760" on="0"/>
        <pt x="149" y="791" on="0"/>
        <pt x="149" y="838" on="0"/>
        <pt x="181" y="868" on="0"/>
      </contour>
    </TTGlyph>
    <TTGlyph name="Agrave" xMin="60" yMin="-10" xMax="611" yMax="966">
      <contour>
        <pt x="451" y="468" on="1"/>
        <pt x="451" y="543" on="0"/>
        <pt x="372" y="665" on="0"/>
        <pt x="308" y="665" on="1"/>
        <pt x="279" y="665" on="0"/>
        <pt x="260" y="646" on="1"/>
        <pt x="218" y="606" on="0"/>
        <pt x="218" y="497" on="1"/>
        <pt x="218" y="197" on="1"/>
        <pt x="218" y="109" on="0"/>
        <pt x="271" y="25" on="0"/>
        <pt x="314" y="25" on="1"/>
        <pt x="377" y="25" on="0"/>
        <pt x="451" y="145" on="0"/>
        <pt x="451" y="227" on="1"/>
      </contour>
      <contour>
        <pt x="452" y="0" on="1"/>
        <pt x="452" y="110" on="1"/>
        <pt x="429" y="50" on="0"/>
        <pt x="343" y="-10" on="0"/>
        <pt x="296" y="-10" on="1"/>
        <pt x="188" y="-10" on="0"/>
        <pt x="60" y="125" on="0"/>
        <pt x="60" y="247" on="1"/>
        <pt x="60" y="446" on="1"/>
        <pt x="60" y="569" on="0"/>
        <pt x="202" y="700" on="0"/>
        <pt x="298" y="700" on="1"/>
        <pt x="354" y="700" on="0"/>
        <pt x="436" y="627" on="0"/>
        <pt x="452" y="575" on="1"/>
        <pt x="452" y="690" on="1"/>
        <pt x="611" y="690" on="1"/>
        <pt x="611" y="0" on="1"/>
      </contour>
      <contour>
        <pt x="172" y="885" on="1"/>
        <pt x="158" y="899" on="0"/>
        <pt x="158" y="934" on="0"/>
        <pt x="191" y="966" on="0"/>
        <pt x="235" y="966" on="0"/>
        <pt x="246" y="946" on="1"/>
        <pt x="339" y="775" on="1"/>
        <pt x="318" y="758" on="1"/>
      </contour>
    </TTGlyph>
    <TTGlyph name="Aring" xMin="60" yMin="-10" xMax="611" yMax="894">
      <contour>
        <pt x="451" y="468" on="1"/>
        <pt x="451" y="543" on="0"/>
        <pt x="372" y="665" on="0"/>
        <pt x="308" y="665" on="1"/>
        <pt x="279" y="665" on="0"/>
        <pt x="260" y="646" on="1"/>
        <pt x="218" y="606" on="0"/>
        <pt x="218" y="497" on="1"/>
        <pt x="218" y="197" on="1"/>
        <pt x="218" y="109" on="0"/>
        <pt x="271" y="25" on="0"/>
        <pt x="314" y="25" on="1"/>
        <pt x="377" y="25" on="0"/>
        <pt x="451" y="145" on="0"/>
        <pt x="451" y="227" on="1"/>
      </contour>
      <contour>
        <pt x="452" y="0" on="1"/>
        <pt x="452" y="110" on="1"/>
        <pt x="429" y="50" on="0"/>
        <pt x="343" y="-10" on="0"/>
        <pt x="296" y="-10" on="1"/>
        <pt x="188" y="-10" on="0"/>
        <pt x="60" y="125" on="0"/>
        <pt x="60" y="247" on="1"/>
        <pt x="60" y="446" on="1"/>
        <pt x="60" y="569" on="0"/>
        <pt x="202" y="700" on="0"/>
        <pt x="298" y="700" on="1"/>
        <pt x="354" y="700" on="0"/>
        <pt x="436" y="627" on="0"/>
        <pt x="452" y="575" on="1"/>
        <pt x="452" y="690" on="1"/>
        <pt x="611" y="690" on="1"/>
        <pt x="611" y="0" on="1"/>
      </contour>
      <contour>
        <pt x="338" y="894" on="0"/>
        <pt x="383" y="856" on="0"/>
        <pt x="383" y="797" on="0"/>
        <pt x="338" y="760" on="0"/>
        <pt x="272" y="760" on="0"/>
        <pt x="227" y="798" on="0"/>
        <pt x="227" y="856" on="0"/>
        <pt x="272" y="894" on="0"/>
      </contour>
      <contour>
        <pt x="322" y="790" on="0"/>
        <pt x="346" y="811" on="0"/>
        <pt x="346" y="842" on="0"/>
        <pt x="322" y="863" on="0"/>
        <pt x="288" y="863" on="0"/>
        <pt x="265" y="842" on="0"/>
        <pt x="265" y="811" on="0"/>
        <pt x="288" y="790" on="0"/>
      </contour>
    </TTGlyph>
    <TTGlyph name="Atilde" xMin="60" yMin="-10" xMax="611" yMax="867">
      <contour>
        <pt x="451" y="468" on="1"/>
        <pt x="451" y="543" on="0"/>
        <pt x="372" y="665" on="0"/>
        <pt x="308" y="665" on="1"/>
        <pt x="279" y="665" on="0"/>
        <pt x="260" y="646" on="1"/>
        <pt x="218" y="606" on="0"/>
        <pt x="218" y="497" on="1"/>
        <pt x="218" y="197" on="1"/>
        <pt x="218" y="109" on="0"/>
        <pt x="271" y="25" on="0"/>
        <pt x="314" y="25" on="1"/>
        <pt x="377" y="25" on="0"/>
        <pt x="451" y="145" on="0"/>
        <pt x="451" y="227" on="1"/>
      </contour>
      <contour>
        <pt x="452" y="0" on="1"/>
        <pt x="452" y="110" on="1"/>
        <pt x="429" y="50" on="0"/>
        <pt x="343" y="-10" on="0"/>
        <pt x="296" y="-10" on="1"/>
        <pt x="188" y="-10" on="0"/>
        <pt x="60" y="125" on="0"/>
        <pt x="60" y="247" on="1"/>
        <pt x="60" y="446" on="1"/>
        <pt x="60" y="569" on="0"/>
        <pt x="202" y="700" on="0"/>
        <pt x="298" y="700" on="1"/>
        <pt x="354" y="700" on="0"/>
        <pt x="436" y="627" on="0"/>
        <pt x="452" y="575" on="1"/>
        <pt x="452" y="690" on="1"/>
        <pt x="611" y="690" on="1"/>
        <pt x="611" y="0" on="1"/>
      </contour>
      <contour>
        <pt x="451" y="811" on="0"/>
        <pt x="396" y="757" on="0"/>
        <pt x="338" y="757" on="0"/>
        <pt x="253" y="806" on="0"/>
        <pt x="236" y="806" on="1"/>
        <pt x="200" y="806" on="0"/>
        <pt x="168" y="768" on="1"/>
        <pt x="153" y="783" on="1"/>
        <pt x="218" y="867" on="0"/>
        <pt x="276" y="867" on="1"/>
        <pt x="295" y="867" on="0"/>
        <pt x="366" y="824" on="0"/>
        <pt x="420" y="824" on="0"/>
        <pt x="447" y="843" on="1"/>
        <pt x="460" y="830" on="1"/>
      </contour>
    </TTGlyph>
    <TTGlyph name="B" xMin="70" yMin="0" xMax="572" yMax="700">
      <contour>
        <pt x="572" y="189" on="1"/>
        <pt x="572" y="0" on="0"/>
        <pt x="301" y="0" on="1"/>
        <pt x="70" y="0" on="1"/>
        <pt x="70" y="700" on="1"/>
        <pt x="278" y="700" on="1"/>
        <pt x="390" y="700" on="0"/>
        <pt x="464" y="672" on="1"/>
        <pt x="551" y="638" on="0"/>
        <pt x="551" y="528" on="1"/>
        <pt x="551" y="470" on="0"/>
        <pt x="477" y="400" on="0"/>
        <pt x="407" y="375" on="1"/>
        <pt x="572" y="319" on="0"/>
      </contour>
      <contour>
        <pt x="343" y="34" on="0"/>
        <pt x="417" y="113" on="0"/>
        <pt x="417" y="273" on="0"/>
        <pt x="345" y="357" on="0"/>
        <pt x="292" y="357" on="1"/>
        <pt x="228" y="357" on="1"/>
        <pt x="228" y="34" on="1"/>
        <pt x="263" y="34" on="1"/>
      </contour>
      <contour>
        <pt x="398" y="534" on="1"/>
        <pt x="398" y="623" on="0"/>
        <pt x="352" y="646" on="1"/>
        <pt x="313" y="666" on="0"/>
        <pt x="249" y="666" on="1"/>
        <pt x="228" y="666" on="1"/>
        <pt x="228" y="388" on="1"/>
        <pt x="270" y="388" on="1"/>
        <pt x="398" y="388" on="0"/>
      </contour>
    </TTGlyph>
    <TTGlyph name="C" xMin="60" yMin="-10" xMax="582" yMax="700">
      <contour>
        <pt x="582" y="194" on="1"/>
        <pt x="582" y="140" on="0"/>
        <pt x="532" y="57" on="0"/>
        <pt x="492" y="34" on="1"/>
        <pt x="414" y="-10" on="0"/>
        <pt x="333" y="-10" on="1"/>
        <pt x="211" y="-10" on="0"/>
        <pt x="60" y="141" on="0"/>
        <pt x="60" y="254" on="1"/>
        <pt x="60" y="436" on="1"/>
        <pt x="60" y="549" on="0"/>
        <pt x="211" y="700" on="0"/>
        <pt x="333" y="700" on="1"/>
        <pt x="429" y="700" on="0"/>
        <pt x="582" y="593" on="0"/>
        <pt x="582" y="499" on="1"/>
        <pt x="582" y="486" on="1"/>
        <pt x="446" y="486" on="1"/>
        <pt x="446" y="509" on="1"/>
        <pt x="446" y="579" on="0"/>
        <pt x="388" y="665" on="0"/>
        <pt x="277" y="665" on="0"/>
        <pt x="219" y="579" on="0"/>
        <pt x="219" y="509" on="1"/>
        <pt x="219" y="182" on="1"/>
        <pt x="219" y="111" on="0"/>
        <pt x="277" y="25" on="0"/>
        <pt x="388" y="25" on="0"/>
        <pt x="446" y="112" on="0"/>
        <pt x="446" y="182" on="1"/>
        <pt x="446" y="204" on="1"/>
        <pt x="582" y="204" on="1"/>
      </contour>
    </TTGlyph>
    <TTGlyph name="Ccedilla" xMin="60" yMin="-160" xMax="582" yMax="700">
      <contour>
        <pt x="582" y="486" on="1"/>
        <pt x="446" y="486" on="1"/>
        <pt x="446" y="509" on="1"/>
        <pt x="446" y="579" on="0"/>
        <pt x="388" y="665" on="0"/>
        <pt x="277" y="665" on="0"/>
        <pt x="219" y="579" on="0"/>
        <pt x="219" y="509" on="1"/>
        <pt x="219" y="182" on="1"/>
        <pt x="219" y="111" on="0"/>
        <pt x="277" y="25" on="0"/>
        <pt x="388" y="25" on="0"/>
        <pt x="446" y="112" on="0"/>
        <pt x="446" y="182" on="1"/>
        <pt x="446" y="204" on="1"/>
        <pt x="582" y="204" on="1"/>
        <pt x="582" y="194" on="1"/>
        <pt x="582" y="107" on="0"/>
        <pt x="462" y="7" on="0"/>
        <pt x="382" y="-6" on="1"/>
        <pt x="378" y="-72" on="0"/>
        <pt x="266" y="-160" on="1"/>
        <pt x="235" y="-136" on="1"/>
        <pt x="247" y="-121" on="0"/>
        <pt x="260" y="-62" on="0"/>
        <pt x="262" y="-19" on="1"/>
        <pt x="262" y="-2" on="1"/>
        <pt x="170" y="19" on="0"/>
        <pt x="60" y="159" on="0"/>
        <pt x="60" y="254" on="1"/>
        <pt x="60" y="436" on="1"/>
        <pt x="60" y="549" on="0"/>
        <pt x="211" y="700" on="0"/>
        <pt x="333" y="700" on="1"/>
        <pt x="429" y="700" on="0"/>
        <pt x="582" y="593" on="0"/>
        <pt x="582" y="499" on="1"/>
      </contour>
    </TTGlyph>
    <TTGlyph name="D" xMin="70" yMin="0" xMax="591" yMax="690">
      <contour>
        <pt x="591" y="421" on="1"/>
        <pt x="591" y="269" on="1"/>
        <pt x="591" y="153" on="0"/>
        <pt x="435" y="0" on="0"/>
        <pt x="311" y="0" on="1"/>
        <pt x="70" y="0" on="1"/>
        <pt x="70" y="690" on="1"/>
        <pt x="311" y="690" on="1"/>
        <pt x="435" y="690" on="0"/>
        <pt x="591" y="537" on="0"/>
      </contour>
      <contour>
        <pt x="433" y="468" on="1"/>
        <pt x="433" y="559" on="0"/>
        <pt x="348" y="656" on="0"/>
        <pt x="274" y="656" on="1"/>
        <pt x="228" y="656" on="1"/>
        <pt x="228" y="34" on="1"/>
        <pt x="274" y="34" on="1"/>
        <pt x="348" y="34" on="0"/>
        <pt x="433" y="131" on="0"/>
        <pt x="433" y="222" on="1"/>
      </contour>
    </TTGlyph>
    <TTGlyph name="E" xMin="60" yMin="-10" xMax="582" yMax="700">
      <contour>
        <pt x="582" y="194" on="1"/>
        <pt x="582" y="140" on="0"/>
        <pt x="532" y="57" on="0"/>
        <pt x="492" y="34" on="1"/>
        <pt x="414" y="-10" on="0"/>
        <pt x="333" y="-10" on="1"/>
        <pt x="211" y="-10" on="0"/>
        <pt x="60" y="141" on="0"/>
        <pt x="60" y="254" on="1"/>
        <pt x="60" y="436" on="1"/>
        <pt x="60" y="549" on="0"/>
        <pt x="211" y="700" on="0"/>
        <pt x="333" y="700" on="1"/>
        <pt x="429" y="700" on="0"/>
        <pt x="582" y="593" on="0"/>
        <pt x="582" y="499" on="1"/>
        <pt x="582" y="486" on="1"/>
        <pt x="446" y="486" on="1"/>
        <pt x="446" y="508" on="1"/>
        <pt x="446" y="578" on="0"/>
        <pt x="388" y="665" on="0"/>
        <pt x="277" y="665" on="0"/>
        <pt x="219" y="579" on="0"/>
        <pt x="219" y="508" on="1"/>
        <pt x="219" y="388" on="1"/>
        <pt x="483" y="388" on="1"/>
        <pt x="483" y="341" on="1"/>
        <pt x="219" y="341" on="1"/>
        <pt x="219" y="182" on="1"/>
        <pt x="219" y="111" on="0"/>
        <pt x="277" y="25" on="0"/>
        <pt x="388" y="25" on="0"/>
        <pt x="446" y="112" on="0"/>
        <pt x="446" y="182" on="1"/>
        <pt x="446" y="204" on="1"/>
        <pt x="582" y="204" on="1"/>
      </contour>
    </TTGlyph>
    <TTGlyph name="Eacute" xMin="60" yMin="-10" xMax="582" yMax="966">
      <contour>
        <pt x="582" y="194" on="1"/>
        <pt x="582" y="140" on="0"/>
        <pt x="532" y="57" on="0"/>
        <pt x="492" y="34" on="1"/>
        <pt x="414" y="-10" on="0"/>
        <pt x="333" y="-10" on="1"/>
        <pt x="211" y="-10" on="0"/>
        <pt x="60" y="141" on="0"/>
        <pt x="60" y="254" on="1"/>
        <pt x="60" y="436" on="1"/>
        <pt x="60" y="549" on="0"/>
        <pt x="211" y="700" on="0"/>
        <pt x="333" y="700" on="1"/>
        <pt x="429" y="700" on="0"/>
        <pt x="582" y="593" on="0"/>
        <pt x="582" y="499" on="1"/>
        <pt x="582" y="486" on="1"/>
        <pt x="446" y="486" on="1"/>
        <pt x="446" y="508" on="1"/>
        <pt x="446" y="578" on="0"/>
        <pt x="388" y="665" on="0"/>
        <pt x="277" y="665" on="0"/>
        <pt x="219" y="579" on="0"/>
        <pt x="219" y="508" on="1"/>
        <pt x="219" y="388" on="1"/>
        <pt x="483" y="388" on="1"/>
        <pt x="483" y="341" on="1"/>
        <pt x="219" y="341" on="1"/>
        <pt x="219" y="182" on="1"/>
        <pt x="219" y="111" on="0"/>
        <pt x="277" y="25" on="0"/>
        <pt x="388" y="25" on="0"/>
        <pt x="446" y="112" on="0"/>
        <pt x="446" y="182" on="1"/>
        <pt x="446" y="204" on="1"/>
        <pt x="582" y="204" on="1"/>
      </contour>
      <contour>
        <pt x="438" y="966" on="0"/>
        <pt x="471" y="934" on="0"/>
        <pt x="471" y="896" on="0"/>
        <pt x="457" y="885" on="1"/>
        <pt x="311" y="758" on="1"/>
        <pt x="290" y="775" on="1"/>
        <pt x="383" y="946" on="1"/>
        <pt x="394" y="966" on="0"/>
      </contour>
    </TTGlyph>
    <TTGlyph name="Ecircumflex" xMin="60" yMin="-10" xMax="582" yMax="925">
      <contour>
        <pt x="582" y="194" on="1"/>
        <pt x="582" y="140" on="0"/>
        <pt x="532" y="57" on="0"/>
        <pt x="492" y="34" on="1"/>
        <pt x="414" y="-10" on="0"/>
        <pt x="333" y="-10" on="1"/>
        <pt x="211" y="-10" on="0"/>
        <pt x="60" y="141" on="0"/>
        <pt x="60" y="254" on="1"/>
        <pt x="60" y="436" on="1"/>
        <pt x="60" y="549" on="0"/>
        <pt x="211" y="700" on="0"/>
        <pt x="333" y="700" on="1"/>
        <pt x="429" y="700" on="0"/>
        <pt x="582" y="593" on="0"/>
        <pt x="582" y="499" on="1"/>
        <pt x="582" y="486" on="1"/>
        <pt x="446" y="486" on="1"/>
        <pt x="446" y="508" on="1"/>
        <pt x="446" y="578" on="0"/>
        <pt x="388" y="665" on="0"/>
        <pt x="277" y="665" on="0"/>
        <pt x="219" y="579" on="0"/>
        <pt x="219" y="508" on="1"/>
        <pt x="219" y="388" on="1"/>
        <pt x="483" y="388" on="1"/>
        <pt x="483" y="341" on="1"/>
        <pt x="219" y="341" on="1"/>
        <pt x="219" y="182" on="1"/>
        <pt x="219" y="111" on="0"/>
        <pt x="277" y="25" on="0"/>
        <pt x="388" y="25" on="0"/>
        <pt x="446" y="112" on="0"/>
        <pt x="446" y="182" on="1"/>
        <pt x="446" y="204" on="1"/>
        <pt x="582" y="204" on="1"/>
      </contour>
      <contour>
        <pt x="272" y="885" on="1"/>
        <pt x="296" y="925" on="0"/>
        <pt x="373" y="925" on="0"/>
        <pt x="394" y="885" on="1"/>
        <pt x="451" y="776" on="1"/>
        <pt x="423" y="758" on="1"/>
        <pt x="333" y="855" on="1"/>
        <pt x="242" y="759" on="1"/>
        <pt x="215" y="776" on="1"/>
      </contour>
    </TTGlyph>
    <TTGlyph name="Edieresis" xMin="60" yMin="-10" xMax="582" yMax="866">
      <contour>
        <pt x="582" y="194" on="1"/>
        <pt x="582" y="140" on="0"/>
        <pt x="532" y="57" on="0"/>
        <pt x="492" y="34" on="1"/>
        <pt x="414" y="-10" on="0"/>
        <pt x="333" y="-10" on="1"/>
        <pt x="211" y="-10" on="0"/>
        <pt x="60" y="141" on="0"/>
        <pt x="60" y="254" on="1"/>
        <pt x="60" y="436" on="1"/>
        <pt x="60" y="549" on="0"/>
        <pt x="211" y="700" on="0"/>
        <pt x="333" y="700" on="1"/>
        <pt x="429" y="700" on="0"/>
        <pt x="582" y="593" on="0"/>
        <pt x="582" y="499" on="1"/>
        <pt x="582" y="486" on="1"/>
        <pt x="446" y="486" on="1"/>
        <pt x="446" y="508" on="1"/>
        <pt x="446" y="578" on="0"/>
        <pt x="388" y="665" on="0"/>
        <pt x="277" y="665" on="0"/>
        <pt x="219" y="579" on="0"/>
        <pt x="219" y="508" on="1"/>
        <pt x="219" y="388" on="1"/>
        <pt x="483" y="388" on="1"/>
        <pt x="483" y="341" on="1"/>
        <pt x="219" y="341" on="1"/>
        <pt x="219" y="182" on="1"/>
        <pt x="219" y="111" on="0"/>
        <pt x="277" y="25" on="0"/>
        <pt x="388" y="25" on="0"/>
        <pt x="446" y="112" on="0"/>
        <pt x="446" y="182" on="1"/>
        <pt x="446" y="204" on="1"/>
        <pt x="582" y="204" on="1"/>
      </contour>
      <contour>
        <pt x="447" y="866" on="0"/>
        <pt x="479" y="836" on="0"/>
        <pt x="479" y="789" on="0"/>
        <pt x="447" y="758" on="0"/>
        <pt x="393" y="758" on="0"/>
        <pt x="361" y="789" on="0"/>
        <pt x="361" y="836" on="0"/>
        <pt x="393" y="866" on="0"/>
      </contour>
      <contour>
        <pt x="265" y="866" on="0"/>
        <pt x="297" y="836" on="0"/>
        <pt x="297" y="789" on="0"/>
        <pt x="265" y="758" on="0"/>
        <pt x="211" y="758" on="0"/>
        <pt x="179" y="789" on="0"/>
        <pt x="179" y="836" on="0"/>
        <pt x="211" y="866" on="0"/>
      </contour>
    </TTGlyph>
    <TTGlyph name="Egrave" xMin="60" yMin="-10" xMax="582" yMax="966">
      <contour>
        <pt x="582" y="194" on="1"/>
        <pt x="582" y="140" on="0"/>
        <pt x="532" y="57" on="0"/>
        <pt x="492" y="34" on="1"/>
        <pt x="414" y="-10" on="0"/>
        <pt x="333" y="-10" on="1"/>
        <pt x="211" y="-10" on="0"/>
        <pt x="60" y="141" on="0"/>
        <pt x="60" y="254" on="1"/>
        <pt x="60" y="436" on="1"/>
        <pt x="60" y="549" on="0"/>
        <pt x="211" y="700" on="0"/>
        <pt x="333" y="700" on="1"/>
        <pt x="429" y="700" on="0"/>
        <pt x="582" y="593" on="0"/>
        <pt x="582" y="499" on="1"/>
        <pt x="582" y="486" on="1"/>
        <pt x="446" y="486" on="1"/>
        <pt x="446" y="508" on="1"/>
        <pt x="446" y="578" on="0"/>
        <pt x="388" y="665" on="0"/>
        <pt x="277" y="665" on="0"/>
        <pt x="219" y="579" on="0"/>
        <pt x="219" y="508" on="1"/>
        <pt x="219" y="388" on="1"/>
        <pt x="483" y="388" on="1"/>
        <pt x="483" y="341" on="1"/>
        <pt x="219" y="341" on="1"/>
        <pt x="219" y="182" on="1"/>
        <pt x="219" y="111" on="0"/>
        <pt x="277" y="25" on="0"/>
        <pt x="388" y="25" on="0"/>
        <pt x="446" y="112" on="0"/>
        <pt x="446" y="182" on="1"/>
        <pt x="446" y="204" on="1"/>
        <pt x="582" y="204" on="1"/>
      </contour>
      <contour>
        <pt x="222" y="885" on="1"/>
        <pt x="208" y="899" on="0"/>
        <pt x="208" y="934" on="0"/>
        <pt x="241" y="966" on="0"/>
        <pt x="285" y="966" on="0"/>
        <pt x="296" y="946" on="1"/>
        <pt x="389" y="775" on="1"/>
        <pt x="368" y="758" on="1"/>
      </contour>
    </TTGlyph>
    <TTGlyph name="Eth" xMin="0" yMin="0" xMax="591" yMax="690">
      <contour>
        <pt x="0" y="365" on="1"/>
        <pt x="0" y="430" on="1"/>
        <pt x="70" y="430" on="1"/>
        <pt x="70" y="690" on="1"/>
        <pt x="311" y="690" on="1"/>
        <pt x="435" y="690" on="0"/>
        <pt x="591" y="537" on="0"/>
        <pt x="591" y="421" on="1"/>
        <pt x="591" y="269" on="1"/>
        <pt x="591" y="153" on="0"/>
        <pt x="435" y="0" on="0"/>
        <pt x="311" y="0" on="1"/>
        <pt x="70" y="0" on="1"/>
        <pt x="70" y="365" on="1"/>
      </contour>
      <contour>
        <pt x="433" y="222" on="1"/>
        <pt x="433" y="468" on="1"/>
        <pt x="433" y="559" on="0"/>
        <pt x="348" y="656" on="0"/>
        <pt x="274" y="656" on="1"/>
        <pt x="228" y="656" on="1"/>
        <pt x="228" y="430" on="1"/>
        <pt x="323" y="430" on="1"/>
        <pt x="323" y="365" on="1"/>
        <pt x="228" y="365" on="1"/>
        <pt x="228" y="34" on="1"/>
        <pt x="274" y="34" on="1"/>
        <pt x="348" y="34" on="0"/>
        <pt x="433" y="131" on="0"/>
      </contour>
    </TTGlyph>
    <TTGlyph name="Euro" xMin="60" yMin="-10" xMax="641" yMax="700">
      <contour>
        <pt x="60" y="373" on="1"/>
        <pt x="60" y="420" on="1"/>
        <pt x="119" y="420" on="1"/>
        <pt x="119" y="436" on="1"/>
        <pt x="119" y="549" on="0"/>
        <pt x="270" y="700" on="0"/>
        <pt x="392" y="700" on="1"/>
        <pt x="488" y="700" on="0"/>
        <pt x="641" y="593" on="0"/>
        <pt x="641" y="499" on="1"/>
        <pt x="641" y="486" on="1"/>
        <pt x="505" y="486" on="1"/>
        <pt x="505" y="509" on="1"/>
        <pt x="505" y="579" on="0"/>
        <pt x="447" y="665" on="0"/>
        <pt x="336" y="665" on="0"/>
        <pt x="278" y="579" on="0"/>
        <pt x="278" y="509" on="1"/>
        <pt x="278" y="420" on="1"/>
        <pt x="504" y="420" on="1"/>
        <pt x="504" y="373" on="1"/>
        <pt x="278" y="373" on="1"/>
        <pt x="278" y="316" on="1"/>
        <pt x="504" y="316" on="1"/>
        <pt x="504" y="269" on="1"/>
        <pt x="278" y="269" on="1"/>
        <pt x="278" y="182" on="1"/>
        <pt x="278" y="111" on="0"/>
        <pt x="336" y="25" on="0"/>
        <pt x="447" y="25" on="0"/>
        <pt x="505" y="112" on="0"/>
        <pt x="505" y="182" on="1"/>
        <pt x="505" y="204" on="1"/>
        <pt x="641" y="204" on="1"/>
        <pt x="641" y="194" on="1"/>
        <pt x="641" y="140" on="0"/>
        <pt x="591" y="57" on="0"/>
        <pt x="552" y="34" on="1"/>
        <pt x="473" y="-10" on="0"/>
        <pt x="392" y="-10" on="1"/>
        <pt x="270" y="-10" on="0"/>
        <pt x="119" y="141" on="0"/>
        <pt x="119" y="254" on="1"/>
        <pt x="119" y="269" on="1"/>
        <pt x="60" y="269" on="1"/>
        <pt x="60" y="316" on="1"/>
        <pt x="119" y="316" on="1"/>
        <pt x="119" y="373" on="1"/>
      </contour>
    </TTGlyph>
    <TTGlyph name="F" xMin="45" yMin="0" xMax="504" yMax="700">
      <contour>
        <pt x="504" y="486" on="1"/>
        <pt x="373" y="486" on="1"/>
        <pt x="373" y="583" on="1"/>
        <pt x="373" y="621" on="0"/>
        <pt x="340" y="665" on="0"/>
        <pt x="278" y="665" on="0"/>
        <pt x="244" y="620" on="0"/>
        <pt x="244" y="583" on="1"/>
        <pt x="244" y="388" on="1"/>
        <pt x="396" y="388" on="1"/>
        <pt x="396" y="341" on="1"/>
        <pt x="244" y="341" on="1"/>
        <pt x="244" y="0" on="1"/>
        <pt x="85" y="0" on="1"/>
        <pt x="85" y="341" on="1"/>
        <pt x="45" y="341" on="1"/>
        <pt x="45" y="388" on="1"/>
        <pt x="85" y="388" on="1"/>
        <pt x="85" y="527" on="1"/>
        <pt x="85" y="607" on="0"/>
        <pt x="216" y="700" on="0"/>
        <pt x="377" y="700" on="0"/>
        <pt x="504" y="601" on="0"/>
        <pt x="504" y="521" on="1"/>
      </contour>
    </TTGlyph>
    <TTGlyph name="G" xMin="60" yMin="-210" xMax="604" yMax="700">
      <contour>
        <pt x="604" y="79" on="1"/>
        <pt x="604" y="-45" on="0"/>
        <pt x="566" y="-104" on="1"/>
        <pt x="522" y="-173" on="0"/>
        <pt x="448" y="-196" on="1"/>
        <pt x="403" y="-210" on="0"/>
        <pt x="344" y="-210" on="1"/>
        <pt x="203" y="-210" on="0"/>
        <pt x="111" y="-132" on="1"/>
        <pt x="132" y="-103" on="1"/>
        <pt x="218" y="-170" on="0"/>
        <pt x="310" y="-170" on="1"/>
        <pt x="454" y="-170" on="0"/>
        <pt x="454" y="12" on="1"/>
        <pt x="454" y="68" on="1"/>
        <pt x="439" y="37" on="0"/>
        <pt x="374" y="-10" on="0"/>
        <pt x="326" y="-10" on="1"/>
        <pt x="205" y="-10" on="0"/>
        <pt x="60" y="137" on="0"/>
        <pt x="60" y="252" on="1"/>
        <pt x="60" y="437" on="1"/>
        <pt x="60" y="549" on="0"/>
        <pt x="210" y="700" on="0"/>
        <pt x="331" y="700" on="1"/>
        <pt x="426" y="700" on="0"/>
        <pt x="578" y="593" on="0"/>
        <pt x="578" y="500" on="1"/>
        <pt x="578" y="486" on="1"/>
        <pt x="444" y="486" on="1"/>
        <pt x="443" y="510" on="1"/>
        <pt x="440" y="580" on="0"/>
        <pt x="384" y="665" on="0"/>
        <pt x="276" y="665" on="0"/>
        <pt x="218" y="579" on="0"/>
        <pt x="218" y="510" on="1"/>
        <pt x="218" y="181" on="1"/>
        <pt x="218" y="111" on="0"/>
        <pt x="276" y="25" on="0"/>
        <pt x="388" y="25" on="0"/>
        <pt x="445" y="112" on="0"/>
        <pt x="445" y="181" on="1"/>
        <pt x="445" y="202" on="1"/>
        <pt x="604" y="202" on="1"/>
      </contour>
    </TTGlyph>
    <TTGlyph name="H" xMin="70" yMin="0" xMax="611" yMax="690">
      <contour>
        <pt x="611" y="0" on="1"/>
        <pt x="452" y="0" on="1"/>
        <pt x="452" y="340" on="1"/>
        <pt x="228" y="340" on="1"/>
        <pt x="228" y="0" on="1"/>
        <pt x="70" y="0" on="1"/>
        <pt x="70" y="690" on="1"/>
        <pt x="228" y="690" on="1"/>
        <pt x="228" y="388" on="1"/>
        <pt x="452" y="388" on="1"/>
        <pt x="452" y="690" on="1"/>
        <pt x="611" y="690" on="1"/>
      </contour>
    </TTGlyph>
    <TTGlyph name="I" xMin="70" yMin="0" xMax="229" yMax="690">
      <contour>
        <pt x="229" y="690" on="1"/>
        <pt x="229" y="0" on="1"/>
        <pt x="70" y="0" on="1"/>
        <pt x="70" y="690" on="1"/>
      </contour>
    </TTGlyph>
    <TTGlyph name="Iacute" xMin="45" yMin="0" xMax="247" yMax="963">
      <contour>
        <pt x="204" y="690" on="1"/>
        <pt x="204" y="0" on="1"/>
        <pt x="45" y="0" on="1"/>
        <pt x="45" y="690" on="1"/>
      </contour>
      <contour>
        <pt x="214" y="963" on="0"/>
        <pt x="247" y="931" on="0"/>
        <pt x="247" y="893" on="0"/>
        <pt x="233" y="882" on="1"/>
        <pt x="87" y="755" on="1"/>
        <pt x="66" y="772" on="1"/>
        <pt x="159" y="943" on="1"/>
        <pt x="170" y="963" on="0"/>
      </contour>
    </TTGlyph>
    <TTGlyph name="Icircumflex" xMin="10" yMin="0" xMax="246" yMax="922">
      <contour>
        <pt x="204" y="690" on="1"/>
        <pt x="204" y="0" on="1"/>
        <pt x="45" y="0" on="1"/>
        <pt x="45" y="690" on="1"/>
      </contour>
      <contour>
        <pt x="67" y="882" on="1"/>
        <pt x="91" y="922" on="0"/>
        <pt x="168" y="922" on="0"/>
        <pt x="189" y="882" on="1"/>
        <pt x="246" y="773" on="1"/>
        <pt x="218" y="755" on="1"/>
        <pt x="128" y="852" on="1"/>
        <pt x="37" y="756" on="1"/>
        <pt x="10" y="773" on="1"/>
      </contour>
    </TTGlyph>
    <TTGlyph name="Idieresis" xMin="-22" yMin="0" xMax="278" yMax="865">
      <contour>
        <pt x="204" y="690" on="1"/>
        <pt x="204" y="0" on="1"/>
        <pt x="45" y="0" on="1"/>
        <pt x="45" y="690" on="1"/>
      </contour>
      <contour>
        <pt x="246" y="865" on="0"/>
        <pt x="278" y="835" on="0"/>
        <pt x="278" y="788" on="0"/>
        <pt x="246" y="757" on="0"/>
        <pt x="192" y="757" on="0"/>
        <pt x="160" y="788" on="0"/>
        <pt x="160" y="835" on="0"/>
        <pt x="192" y="865" on="0"/>
      </contour>
      <contour>
        <pt x="64" y="865" on="0"/>
        <pt x="96" y="835" on="0"/>
        <pt x="96" y="788" on="0"/>
        <pt x="64" y="757" on="0"/>
        <pt x="10" y="757" on="0"/>
        <pt x="-22" y="788" on="0"/>
        <pt x="-22" y="835" on="0"/>
        <pt x="10" y="865" on="0"/>
      </contour>
    </TTGlyph>
    <TTGlyph name="Igrave" xMin="1" yMin="0" xMax="204" yMax="963">
      <contour>
        <pt x="204" y="690" on="1"/>
        <pt x="204" y="0" on="1"/>
        <pt x="45" y="0" on="1"/>
        <pt x="45" y="690" on="1"/>
      </contour>
      <contour>
        <pt x="15" y="882" on="1"/>
        <pt x="1" y="896" on="0"/>
        <pt x="1" y="931" on="0"/>
        <pt x="34" y="963" on="0"/>
        <pt x="78" y="963" on="0"/>
        <pt x="89" y="943" on="1"/>
        <pt x="182" y="772" on="1"/>
        <pt x="161" y="755" on="1"/>
      </contour>
    </TTGlyph>
    <TTGlyph name="J" xMin="20" yMin="-10" xMax="468" yMax="690">
      <contour>
        <pt x="468" y="690" on="1"/>
        <pt x="468" y="167" on="1"/>
        <pt x="468" y="94" on="0"/>
        <pt x="339" y="-10" on="0"/>
        <pt x="140" y="-10" on="0"/>
        <pt x="20" y="93" on="0"/>
        <pt x="20" y="168" on="1"/>
        <pt x="20" y="204" on="1"/>
        <pt x="150" y="204" on="1"/>
        <pt x="150" y="115" on="1"/>
        <pt x="150" y="77" on="0"/>
        <pt x="196" y="26" on="0"/>
        <pt x="234" y="26" on="1"/>
        <pt x="309" y="26" on="0"/>
        <pt x="309" y="121" on="1"/>
        <pt x="309" y="690" on="1"/>
      </contour>
    </TTGlyph>
    <TTGlyph name="K" xMin="70" yMin="0" xMax="528" yMax="690">
      <contour>
        <pt x="528" y="0" on="1"/>
        <pt x="377" y="0" on="1"/>
        <pt x="377" y="135" on="1"/>
        <pt x="377" y="353" on="0"/>
        <pt x="228" y="369" on="1"/>
        <pt x="228" y="0" on="1"/>
        <pt x="70" y="0" on="1"/>
        <pt x="70" y="690" on="1"/>
        <pt x="228" y="690" on="1"/>
        <pt x="228" y="411" on="1"/>
        <pt x="277" y="422" on="0"/>
        <pt x="356" y="508" on="0"/>
        <pt x="356" y="565" on="1"/>
        <pt x="356" y="690" on="1"/>
        <pt x="515" y="690" on="1"/>
        <pt x="515" y="638" on="1"/>
        <pt x="515" y="565" on="0"/>
        <pt x="426" y="432" on="0"/>
        <pt x="355" y="401" on="1"/>
        <pt x="521" y="359" on="0"/>
        <pt x="528" y="153" on="1"/>
        <pt x="528" y="137" on="0"/>
        <pt x="528" y="111" on="1"/>
      </contour>
    </TTGlyph>
    <TTGlyph name="L" xMin="70" yMin="0" xMax="412" yMax="690">
      <contour>
        <pt x="412" y="0" on="1"/>
        <pt x="70" y="0" on="1"/>
        <pt x="70" y="690" on="1"/>
        <pt x="228" y="690" on="1"/>
        <pt x="228" y="47" on="1"/>
        <pt x="412" y="47" on="1"/>
      </contour>
    </TTGlyph>
    <TTGlyph name="Lslash" xMin="0" yMin="0" xMax="412" yMax="690">
      <contour>
        <pt x="70" y="690" on="1"/>
        <pt x="228" y="690" on="1"/>
        <pt x="228" y="448" on="1"/>
        <pt x="315" y="483" on="1"/>
        <pt x="340" y="422" on="1"/>
        <pt x="228" y="376" on="1"/>
        <pt x="228" y="47" on="1"/>
        <pt x="412" y="47" on="1"/>
        <pt x="412" y="0" on="1"/>
        <pt x="70" y="0" on="1"/>
        <pt x="70" y="312" on="1"/>
        <pt x="24" y="294" on="1"/>
        <pt x="0" y="356" on="1"/>
        <pt x="70" y="384" on="1"/>
      </contour>
    </TTGlyph>
    <TTGlyph name="M" xMin="70" yMin="0" xMax="968" yMax="700">
      <contour>
        <pt x="598" y="0" on="1"/>
        <pt x="438" y="0" on="1"/>
        <pt x="438" y="513" on="1"/>
        <pt x="438" y="604" on="0"/>
        <pt x="399" y="665" on="0"/>
        <pt x="364" y="665" on="1"/>
        <pt x="310" y="665" on="0"/>
        <pt x="228" y="545" on="0"/>
        <pt x="228" y="464" on="1"/>
        <pt x="228" y="0" on="1"/>
        <pt x="70" y="0" on="1"/>
        <pt x="70" y="690" on="1"/>
        <pt x="228" y="690" on="1"/>
        <pt x="228" y="575" on="1"/>
        <pt x="248" y="634" on="0"/>
        <pt x="331" y="700" on="0"/>
        <pt x="387" y="700" on="1"/>
        <pt x="553" y="700" on="0"/>
        <pt x="588" y="551" on="1"/>
        <pt x="608" y="618" on="0"/>
        <pt x="695" y="700" on="0"/>
        <pt x="757" y="700" on="1"/>
        <pt x="968" y="700" on="0"/>
        <pt x="968" y="462" on="1"/>
        <pt x="968" y="0" on="1"/>
        <pt x="808" y="0" on="1"/>
        <pt x="808" y="513" on="1"/>
        <pt x="808" y="604" on="0"/>
        <pt x="769" y="665" on="0"/>
        <pt x="734" y="665" on="1"/>
        <pt x="680" y="665" on="0"/>
        <pt x="598" y="545" on="0"/>
        <pt x="598" y="464" on="1"/>
      </contour>
    </TTGlyph>
    <TTGlyph name="N" xMin="70" yMin="0" xMax="616" yMax="700">
      <contour>
        <pt x="616" y="0" on="1"/>
        <pt x="456" y="0" on="1"/>
        <pt x="456" y="503" on="1"/>
        <pt x="456" y="665" on="0"/>
        <pt x="364" y="665" on="1"/>
        <pt x="310" y="665" on="0"/>
        <pt x="228" y="545" on="0"/>
        <pt x="228" y="464" on="1"/>
        <pt x="228" y="0" on="1"/>
        <pt x="70" y="0" on="1"/>
        <pt x="70" y="690" on="1"/>
        <pt x="228" y="690" on="1"/>
        <pt x="228" y="575" on="1"/>
        <pt x="248" y="634" on="0"/>
        <pt x="330" y="700" on="0"/>
        <pt x="386" y="700" on="1"/>
        <pt x="487" y="700" on="0"/>
        <pt x="616" y="576" on="0"/>
        <pt x="616" y="452" on="1"/>
      </contour>
    </TTGlyph>
    <TTGlyph name="Ntilde" xMin="70" yMin="0" xMax="616" yMax="877">
      <contour>
        <pt x="616" y="0" on="1"/>
        <pt x="456" y="0" on="1"/>
        <pt x="456" y="503" on="1"/>
        <pt x="456" y="665" on="0"/>
        <pt x="364" y="665" on="1"/>
        <pt x="310" y="665" on="0"/>
        <pt x="228" y="545" on="0"/>
        <pt x="228" y="464" on="1"/>
        <pt x="228" y="0" on="1"/>
        <pt x="70" y="0" on="1"/>
        <pt x="70" y="690" on="1"/>
        <pt x="228" y="690" on="1"/>
        <pt x="228" y="575" on="1"/>
        <pt x="248" y="634" on="0"/>
        <pt x="330" y="700" on="0"/>
        <pt x="386" y="700" on="1"/>
        <pt x="487" y="700" on="0"/>
        <pt x="616" y="576" on="0"/>
        <pt x="616" y="452" on="1"/>
      </contour>
      <contour>
        <pt x="521" y="821" on="0"/>
        <pt x="466" y="767" on="0"/>
        <pt x="408" y="767" on="0"/>
        <pt x="324" y="816" on="0"/>
        <pt x="306" y="816" on="1"/>
        <pt x="270" y="816" on="0"/>
        <pt x="238" y="778" on="1"/>
        <pt x="223" y="793" on="1"/>
        <pt x="288" y="877" on="0"/>
        <pt x="346" y="877" on="1"/>
        <pt x="365" y="877" on="0"/>
        <pt x="436" y="834" on="0"/>
        <pt x="490" y="834" on="0"/>
        <pt x="517" y="853" on="1"/>
        <pt x="530" y="840" on="1"/>
      </contour>
    </TTGlyph>
    <TTGlyph name="O" xMin="60" yMin="-10" xMax="606" yMax="700">
      <contour>
        <pt x="606" y="260" on="1"/>
        <pt x="606" y="137" on="0"/>
        <pt x="462" y="-10" on="0"/>
        <pt x="203" y="-10" on="0"/>
        <pt x="60" y="137" on="0"/>
        <pt x="60" y="260" on="1"/>
        <pt x="60" y="429" on="1"/>
        <pt x="60" y="552" on="0"/>
        <pt x="203" y="700" on="0"/>
        <pt x="462" y="700" on="0"/>
        <pt x="606" y="552" on="0"/>
        <pt x="606" y="429" on="1"/>
      </contour>
      <contour>
        <pt x="446" y="182" on="1"/>
        <pt x="446" y="508" on="1"/>
        <pt x="446" y="578" on="0"/>
        <pt x="388" y="665" on="0"/>
        <pt x="277" y="665" on="0"/>
        <pt x="219" y="578" on="0"/>
        <pt x="219" y="508" on="1"/>
        <pt x="219" y="182" on="1"/>
        <pt x="219" y="111" on="0"/>
        <pt x="277" y="25" on="0"/>
        <pt x="388" y="25" on="0"/>
        <pt x="446" y="112" on="0"/>
      </contour>
    </TTGlyph>
    <TTGlyph name="OE" xMin="60" yMin="-10" xMax="969" yMax="700">
      <contour>
        <pt x="969" y="194" on="1"/>
        <pt x="969" y="140" on="0"/>
        <pt x="919" y="57" on="0"/>
        <pt x="880" y="34" on="1"/>
        <pt x="801" y="-10" on="0"/>
        <pt x="720" y="-10" on="1"/>
        <pt x="604" y="-10" on="0"/>
        <pt x="529" y="59" on="1"/>
        <pt x="457" y="-10" on="0"/>
        <pt x="203" y="-10" on="0"/>
        <pt x="60" y="137" on="0"/>
        <pt x="60" y="260" on="1"/>
        <pt x="60" y="429" on="1"/>
        <pt x="60" y="552" on="0"/>
        <pt x="203" y="700" on="0"/>
        <pt x="456" y="700" on="0"/>
        <pt x="529" y="630" on="1"/>
        <pt x="606" y="700" on="0"/>
        <pt x="816" y="700" on="0"/>
        <pt x="969" y="593" on="0"/>
        <pt x="969" y="499" on="1"/>
        <pt x="969" y="486" on="1"/>
        <pt x="833" y="486" on="1"/>
        <pt x="833" y="508" on="1"/>
        <pt x="833" y="578" on="0"/>
        <pt x="775" y="665" on="0"/>
        <pt x="664" y="665" on="0"/>
        <pt x="606" y="579" on="0"/>
        <pt x="606" y="508" on="1"/>
        <pt x="606" y="388" on="1"/>
        <pt x="870" y="388" on="1"/>
        <pt x="870" y="341" on="1"/>
        <pt x="606" y="341" on="1"/>
        <pt x="606" y="182" on="1"/>
        <pt x="606" y="111" on="0"/>
        <pt x="664" y="25" on="0"/>
        <pt x="775" y="25" on="0"/>
        <pt x="833" y="112" on="0"/>
        <pt x="833" y="182" on="1"/>
        <pt x="833" y="204" on="1"/>
        <pt x="969" y="204" on="1"/>
      </contour>
      <contour>
        <pt x="446" y="182" on="1"/>
        <pt x="446" y="508" on="1"/>
        <pt x="446" y="578" on="0"/>
        <pt x="388" y="665" on="0"/>
        <pt x="277" y="665" on="0"/>
        <pt x="219" y="578" on="0"/>
        <pt x="219" y="508" on="1"/>
        <pt x="219" y="182" on="1"/>
        <pt x="219" y="111" on="0"/>
        <pt x="277" y="25" on="0"/>
        <pt x="388" y="25" on="0"/>
        <pt x="446" y="112" on="0"/>
      </contour>
    </TTGlyph>
    <TTGlyph name="Oacute" xMin="60" yMin="-10" xMax="606" yMax="966">
      <contour>
        <pt x="606" y="260" on="1"/>
        <pt x="606" y="137" on="0"/>
        <pt x="462" y="-10" on="0"/>
        <pt x="203" y="-10" on="0"/>
        <pt x="60" y="137" on="0"/>
        <pt x="60" y="260" on="1"/>
        <pt x="60" y="429" on="1"/>
        <pt x="60" y="552" on="0"/>
        <pt x="203" y="700" on="0"/>
        <pt x="462" y="700" on="0"/>
        <pt x="606" y="552" on="0"/>
        <pt x="606" y="429" on="1"/>
      </contour>
      <contour>
        <pt x="446" y="182" on="1"/>
        <pt x="446" y="508" on="1"/>
        <pt x="446" y="578" on="0"/>
        <pt x="388" y="665" on="0"/>
        <pt x="277" y="665" on="0"/>
        <pt x="219" y="578" on="0"/>
        <pt x="219" y="508" on="1"/>
        <pt x="219" y="182" on="1"/>
        <pt x="219" y="111" on="0"/>
        <pt x="277" y="25" on="0"/>
        <pt x="388" y="25" on="0"/>
        <pt x="446" y="112" on="0"/>
      </contour>
      <contour>
        <pt x="441" y="966" on="0"/>
        <pt x="474" y="934" on="0"/>
        <pt x="474" y="896" on="0"/>
        <pt x="460" y="885" on="1"/>
        <pt x="314" y="758" on="1"/>
        <pt x="293" y="775" on="1"/>
        <pt x="386" y="946" on="1"/>
        <pt x="397" y="966" on="0"/>
      </contour>
    </TTGlyph>
    <TTGlyph name="Ocircumflex" xMin="60" yMin="-10" xMax="606" yMax="925">
      <contour>
        <pt x="606" y="260" on="1"/>
        <pt x="606" y="137" on="0"/>
        <pt x="462" y="-10" on="0"/>
        <pt x="203" y="-10" on="0"/>
        <pt x="60" y="137" on="0"/>
        <pt x="60" y="260" on="1"/>
        <pt x="60" y="429" on="1"/>
        <pt x="60" y="552" on="0"/>
        <pt x="203" y="700" on="0"/>
        <pt x="462" y="700" on="0"/>
        <pt x="606" y="552" on="0"/>
        <pt x="606" y="429" on="1"/>
      </contour>
      <contour>
        <pt x="446" y="182" on="1"/>
        <pt x="446" y="508" on="1"/>
        <pt x="446" y="578" on="0"/>
        <pt x="388" y="665" on="0"/>
        <pt x="277" y="665" on="0"/>
        <pt x="219" y="578" on="0"/>
        <pt x="219" y="508" on="1"/>
        <pt x="219" y="182" on="1"/>
        <pt x="219" y="111" on="0"/>
        <pt x="277" y="25" on="0"/>
        <pt x="388" y="25" on="0"/>
        <pt x="446" y="112" on="0"/>
      </contour>
      <contour>
        <pt x="270" y="885" on="1"/>
        <pt x="294" y="925" on="0"/>
        <pt x="371" y="925" on="0"/>
        <pt x="392" y="885" on="1"/>
        <pt x="449" y="776" on="1"/>
        <pt x="421" y="758" on="1"/>
        <pt x="331" y="855" on="1"/>
        <pt x="240" y="759" on="1"/>
        <pt x="213" y="776" on="1"/>
      </contour>
    </TTGlyph>
    <TTGlyph name="Odieresis" xMin="60" yMin="-10" xMax="606" yMax="867">
      <contour>
        <pt x="606" y="260" on="1"/>
        <pt x="606" y="137" on="0"/>
        <pt x="462" y="-10" on="0"/>
        <pt x="203" y="-10" on="0"/>
        <pt x="60" y="137" on="0"/>
        <pt x="60" y="260" on="1"/>
        <pt x="60" y="429" on="1"/>
        <pt x="60" y="552" on="0"/>
        <pt x="203" y="700" on="0"/>
        <pt x="462" y="700" on="0"/>
        <pt x="606" y="552" on="0"/>
        <pt x="606" y="429" on="1"/>
      </contour>
      <contour>
        <pt x="446" y="182" on="1"/>
        <pt x="446" y="508" on="1"/>
        <pt x="446" y="578" on="0"/>
        <pt x="388" y="665" on="0"/>
        <pt x="277" y="665" on="0"/>
        <pt x="219" y="578" on="0"/>
        <pt x="219" y="508" on="1"/>
        <pt x="219" y="182" on="1"/>
        <pt x="219" y="111" on="0"/>
        <pt x="277" y="25" on="0"/>
        <pt x="388" y="25" on="0"/>
        <pt x="446" y="112" on="0"/>
      </contour>
      <contour>
        <pt x="450" y="867" on="0"/>
        <pt x="482" y="837" on="0"/>
        <pt x="482" y="790" on="0"/>
        <pt x="450" y="759" on="0"/>
        <pt x="396" y="759" on="0"/>
        <pt x="364" y="790" on="0"/>
        <pt x="364" y="837" on="0"/>
        <pt x="396" y="867" on="0"/>
      </contour>
      <contour>
        <pt x="268" y="867" on="0"/>
        <pt x="300" y="837" on="0"/>
        <pt x="300" y="790" on="0"/>
        <pt x="268" y="759" on="0"/>
        <pt x="214" y="759" on="0"/>
        <pt x="182" y="790" on="0"/>
        <pt x="182" y="837" on="0"/>
        <pt x="214" y="867" on="0"/>
      </contour>
    </TTGlyph>
    <TTGlyph name="Ograve" xMin="60" yMin="-10" xMax="606" yMax="966">
      <contour>
        <pt x="606" y="260" on="1"/>
        <pt x="606" y="137" on="0"/>
        <pt x="462" y="-10" on="0"/>
        <pt x="203" y="-10" on="0"/>
        <pt x="60" y="137" on="0"/>
        <pt x="60" y="260" on="1"/>
        <pt x="60" y="429" on="1"/>
        <pt x="60" y="552" on="0"/>
        <pt x="203" y="700" on="0"/>
        <pt x="462" y="700" on="0"/>
        <pt x="606" y="552" on="0"/>
        <pt x="606" y="429" on="1"/>
      </contour>
      <contour>
        <pt x="446" y="182" on="1"/>
        <pt x="446" y="508" on="1"/>
        <pt x="446" y="578" on="0"/>
        <pt x="388" y="665" on="0"/>
        <pt x="277" y="665" on="0"/>
        <pt x="219" y="578" on="0"/>
        <pt x="219" y="508" on="1"/>
        <pt x="219" y="182" on="1"/>
        <pt x="219" y="111" on="0"/>
        <pt x="277" y="25" on="0"/>
        <pt x="388" y="25" on="0"/>
        <pt x="446" y="112" on="0"/>
      </contour>
      <contour>
        <pt x="212" y="885" on="1"/>
        <pt x="198" y="899" on="0"/>
        <pt x="198" y="934" on="0"/>
        <pt x="231" y="966" on="0"/>
        <pt x="275" y="966" on="0"/>
        <pt x="286" y="946" on="1"/>
        <pt x="379" y="775" on="1"/>
        <pt x="358" y="758" on="1"/>
      </contour>
    </TTGlyph>
    <TTGlyph name="Oslash" xMin="60" yMin="-48" xMax="606" yMax="730">
      <contour>
        <pt x="606" y="260" on="1"/>
        <pt x="606" y="137" on="0"/>
        <pt x="462" y="-10" on="0"/>
        <pt x="333" y="-10" on="1"/>
        <pt x="322" y="-10" on="1"/>
        <pt x="319" y="-48" on="1"/>
        <pt x="270" y="-44" on="1"/>
        <pt x="273" y="-5" on="1"/>
        <pt x="171" y="11" on="0"/>
        <pt x="60" y="152" on="0"/>
        <pt x="60" y="260" on="1"/>
        <pt x="60" y="429" on="1"/>
        <pt x="60" y="552" on="0"/>
        <pt x="203" y="700" on="0"/>
        <pt x="333" y="700" on="1"/>
        <pt x="344" y="700" on="1"/>
        <pt x="347" y="730" on="1"/>
        <pt x="397" y="725" on="1"/>
        <pt x="394" y="695" on="1"/>
        <pt x="495" y="678" on="0"/>
        <pt x="606" y="536" on="0"/>
        <pt x="606" y="429" on="1"/>
      </contour>
      <contour>
        <pt x="219" y="182" on="1"/>
        <pt x="219" y="76" on="0"/>
        <pt x="277" y="40" on="1"/>
        <pt x="341" y="664" on="1"/>
        <pt x="333" y="665" on="1"/>
        <pt x="277" y="665" on="0"/>
        <pt x="219" y="578" on="0"/>
        <pt x="219" y="508" on="1"/>
      </contour>
      <contour>
        <pt x="446" y="182" on="1"/>
        <pt x="446" y="508" on="1"/>
        <pt x="446" y="610" on="0"/>
        <pt x="390" y="649" on="1"/>
        <pt x="326" y="25" on="1"/>
        <pt x="333" y="25" on="1"/>
        <pt x="388" y="25" on="0"/>
        <pt x="446" y="112" on="0"/>
      </contour>
    </TTGlyph>
    <TTGlyph name="Otilde" xMin="60" yMin="-10" xMax="606" yMax="867">
      <contour>
        <pt x="606" y="260" on="1"/>
        <pt x="606" y="137" on="0"/>
        <pt x="462" y="-10" on="0"/>
        <pt x="203" y="-10" on="0"/>
        <pt x="60" y="137" on="0"/>
        <pt x="60" y="260" on="1"/>
        <pt x="60" y="429" on="1"/>
        <pt x="60" y="552" on="0"/>
        <pt x="203" y="700" on="0"/>
        <pt x="462" y="700" on="0"/>
        <pt x="606" y="552" on="0"/>
        <pt x="606" y="429" on="1"/>
      </contour>
      <contour>
        <pt x="446" y="182" on="1"/>
        <pt x="446" y="508" on="1"/>
        <pt x="446" y="578" on="0"/>
        <pt x="388" y="665" on="0"/>
        <pt x="277" y="665" on="0"/>
        <pt x="219" y="578" on="0"/>
        <pt x="219" y="508" on="1"/>
        <pt x="219" y="182" on="1"/>
        <pt x="219" y="111" on="0"/>
        <pt x="277" y="25" on="0"/>
        <pt x="388" y="25" on="0"/>
        <pt x="446" y="112" on="0"/>
      </contour>
      <contour>
        <pt x="481" y="811" on="0"/>
        <pt x="426" y="757" on="0"/>
        <pt x="368" y="757" on="0"/>
        <pt x="284" y="806" on="0"/>
        <pt x="266" y="806" on="1"/>
        <pt x="230" y="806" on="0"/>
        <pt x="198" y="768" on="1"/>
        <pt x="183" y="783" on="1"/>
        <pt x="248" y="867" on="0"/>
        <pt x="306" y="867" on="1"/>
        <pt x="325" y="867" on="0"/>
        <pt x="396" y="824" on="0"/>
        <pt x="450" y="824" on="0"/>
        <pt x="477" y="843" on="1"/>
        <pt x="490" y="830" on="1"/>
      </contour>
    </TTGlyph>
    <TTGlyph name="P" xMin="70" yMin="-200" xMax="621" yMax="700">
      <contour>
        <pt x="230" y="468" on="1"/>
        <pt x="230" y="231" on="1"/>
        <pt x="230" y="150" on="0"/>
        <pt x="306" y="25" on="0"/>
        <pt x="367" y="25" on="1"/>
        <pt x="410" y="25" on="0"/>
        <pt x="463" y="109" on="0"/>
        <pt x="463" y="197" on="1"/>
        <pt x="463" y="497" on="1"/>
        <pt x="463" y="546" on="0"/>
        <pt x="452" y="586" on="1"/>
        <pt x="429" y="665" on="0"/>
        <pt x="305" y="665" on="0"/>
        <pt x="230" y="545" on="0"/>
      </contour>
      <contour>
        <pt x="229" y="-200" on="1"/>
        <pt x="70" y="-200" on="1"/>
        <pt x="70" y="690" on="1"/>
        <pt x="229" y="690" on="1"/>
        <pt x="229" y="580" on="1"/>
        <pt x="247" y="630" on="0"/>
        <pt x="332" y="700" on="0"/>
        <pt x="385" y="700" on="1"/>
        <pt x="481" y="700" on="0"/>
        <pt x="621" y="569" on="0"/>
        <pt x="621" y="446" on="1"/>
        <pt x="621" y="247" on="1"/>
        <pt x="621" y="125" on="0"/>
        <pt x="493" y="-10" on="0"/>
        <pt x="385" y="-10" on="1"/>
        <pt x="336" y="-10" on="0"/>
        <pt x="253" y="52" on="0"/>
        <pt x="229" y="114" on="1"/>
      </contour>
    </TTGlyph>
    <TTGlyph name="Q" xMin="60" yMin="-200" xMax="611" yMax="700">
      <contour>
        <pt x="451" y="227" on="1"/>
        <pt x="451" y="468" on="1"/>
        <pt x="451" y="543" on="0"/>
        <pt x="372" y="665" on="0"/>
        <pt x="308" y="665" on="1"/>
        <pt x="279" y="665" on="0"/>
        <pt x="240" y="627" on="0"/>
        <pt x="232" y="596" on="1"/>
        <pt x="218" y="548" on="0"/>
        <pt x="218" y="497" on="1"/>
        <pt x="218" y="197" on="1"/>
        <pt x="218" y="109" on="0"/>
        <pt x="271" y="25" on="0"/>
        <pt x="314" y="25" on="1"/>
        <pt x="377" y="25" on="0"/>
        <pt x="451" y="145" on="0"/>
      </contour>
      <contour>
        <pt x="611" y="-200" on="1"/>
        <pt x="452" y="-200" on="1"/>
        <pt x="452" y="110" on="1"/>
        <pt x="429" y="50" on="0"/>
        <pt x="343" y="-10" on="0"/>
        <pt x="296" y="-10" on="1"/>
        <pt x="188" y="-10" on="0"/>
        <pt x="60" y="125" on="0"/>
        <pt x="60" y="247" on="1"/>
        <pt x="60" y="446" on="1"/>
        <pt x="60" y="569" on="0"/>
        <pt x="202" y="700" on="0"/>
        <pt x="298" y="700" on="1"/>
        <pt x="354" y="700" on="0"/>
        <pt x="436" y="627" on="0"/>
        <pt x="452" y="575" on="1"/>
        <pt x="452" y="690" on="1"/>
        <pt x="611" y="690" on="1"/>
      </contour>
    </TTGlyph>
    <TTGlyph name="R" xMin="20" yMin="0" xMax="535" yMax="690">
      <contour>
        <pt x="371" y="590" on="0"/>
        <pt x="304" y="657" on="0"/>
        <pt x="233" y="657" on="1"/>
        <pt x="178" y="657" on="1"/>
        <pt x="178" y="0" on="1"/>
        <pt x="20" y="0" on="1"/>
        <pt x="20" y="690" on="1"/>
        <pt x="265" y="690" on="1"/>
        <pt x="524" y="690" on="0"/>
        <pt x="524" y="512" on="1"/>
        <pt x="524" y="393" on="0"/>
        <pt x="343" y="339" on="1"/>
        <pt x="535" y="301" on="0"/>
        <pt x="535" y="135" on="1"/>
        <pt x="535" y="0" on="1"/>
        <pt x="377" y="0" on="1"/>
        <pt x="377" y="169" on="1"/>
        <pt x="377" y="245" on="0"/>
        <pt x="315" y="325" on="0"/>
        <pt x="259" y="325" on="1"/>
        <pt x="243" y="325" on="0"/>
        <pt x="216" y="323" on="1"/>
        <pt x="216" y="349" on="1"/>
        <pt x="270" y="351" on="0"/>
        <pt x="316" y="384" on="1"/>
        <pt x="371" y="422" on="0"/>
      </contour>
    </TTGlyph>
    <TTGlyph name="S" xMin="25" yMin="-10" xMax="546" yMax="700">
      <contour>
        <pt x="469" y="325" on="1"/>
        <pt x="546" y="276" on="0"/>
        <pt x="546" y="115" on="0"/>
        <pt x="379" y="-10" on="0"/>
        <pt x="173" y="-10" on="0"/>
        <pt x="25" y="95" on="0"/>
        <pt x="25" y="193" on="1"/>
        <pt x="25" y="204" on="1"/>
        <pt x="152" y="204" on="1"/>
        <pt x="152" y="182" on="1"/>
        <pt x="152" y="115" on="0"/>
        <pt x="227" y="26" on="0"/>
        <pt x="336" y="26" on="0"/>
        <pt x="403" y="95" on="0"/>
        <pt x="403" y="156" on="1"/>
        <pt x="403" y="202" on="0"/>
        <pt x="333" y="245" on="1"/>
        <pt x="133" y="367" on="1"/>
        <pt x="50" y="417" on="0"/>
        <pt x="50" y="507" on="1"/>
        <pt x="50" y="580" on="0"/>
        <pt x="186" y="700" on="0"/>
        <pt x="286" y="700" on="1"/>
        <pt x="339" y="700" on="0"/>
        <pt x="420" y="668" on="0"/>
        <pt x="440" y="644" on="1"/>
        <pt x="477" y="599" on="0"/>
        <pt x="477" y="569" on="1"/>
        <pt x="477" y="563" on="1"/>
        <pt x="443" y="563" on="1"/>
        <pt x="443" y="597" on="0"/>
        <pt x="368" y="665" on="0"/>
        <pt x="261" y="665" on="0"/>
        <pt x="185" y="599" on="0"/>
        <pt x="185" y="547" on="1"/>
        <pt x="185" y="516" on="0"/>
        <pt x="228" y="472" on="0"/>
        <pt x="265" y="450" on="1"/>
      </contour>
    </TTGlyph>
    <TTGlyph name="Scaron" xMin="25" yMin="-10" xMax="546" yMax="927">
      <contour>
        <pt x="469" y="325" on="1"/>
        <pt x="546" y="276" on="0"/>
        <pt x="546" y="115" on="0"/>
        <pt x="379" y="-10" on="0"/>
        <pt x="173" y="-10" on="0"/>
        <pt x="25" y="95" on="0"/>
        <pt x="25" y="193" on="1"/>
        <pt x="25" y="204" on="1"/>
        <pt x="152" y="204" on="1"/>
        <pt x="152" y="182" on="1"/>
        <pt x="152" y="115" on="0"/>
        <pt x="227" y="26" on="0"/>
        <pt x="336" y="26" on="0"/>
        <pt x="403" y="95" on="0"/>
        <pt x="403" y="156" on="1"/>
        <pt x="403" y="202" on="0"/>
        <pt x="333" y="245" on="1"/>
        <pt x="133" y="367" on="1"/>
        <pt x="50" y="417" on="0"/>
        <pt x="50" y="507" on="1"/>
        <pt x="50" y="580" on="0"/>
        <pt x="186" y="700" on="0"/>
        <pt x="286" y="700" on="1"/>
        <pt x="339" y="700" on="0"/>
        <pt x="420" y="668" on="0"/>
        <pt x="440" y="644" on="1"/>
        <pt x="477" y="599" on="0"/>
        <pt x="477" y="569" on="1"/>
        <pt x="477" y="563" on="1"/>
        <pt x="443" y="563" on="1"/>
        <pt x="443" y="597" on="0"/>
        <pt x="368" y="665" on="0"/>
        <pt x="261" y="665" on="0"/>
        <pt x="185" y="599" on="0"/>
        <pt x="185" y="547" on="1"/>
        <pt x="185" y="516" on="0"/>
        <pt x="228" y="472" on="0"/>
        <pt x="265" y="450" on="1"/>
      </contour>
      <contour>
        <pt x="355" y="800" on="1"/>
        <pt x="334" y="760" on="0"/>
        <pt x="257" y="760" on="0"/>
        <pt x="233" y="800" on="1"/>
        <pt x="176" y="909" on="1"/>
        <pt x="203" y="926" on="1"/>
        <pt x="294" y="830" on="1"/>
        <pt x="384" y="927" on="1"/>
        <pt x="412" y="909" on="1"/>
      </contour>
    </TTGlyph>
    <TTGlyph name="T" xMin="20" yMin="0" xMax="693" yMax="700">
      <contour>
        <pt x="693" y="500" on="1"/>
        <pt x="539" y="500" on="1"/>
        <pt x="539" y="518" on="1"/>
        <pt x="539" y="576" on="0"/>
        <pt x="488" y="637" on="0"/>
        <pt x="446" y="655" on="1"/>
        <pt x="436" y="656" on="1"/>
        <pt x="436" y="0" on="1"/>
        <pt x="277" y="0" on="1"/>
        <pt x="277" y="656" on="1"/>
        <pt x="267" y="656" on="1"/>
        <pt x="173" y="619" on="0"/>
        <pt x="173" y="517" on="1"/>
        <pt x="173" y="500" on="1"/>
        <pt x="20" y="500" on="1"/>
        <pt x="20" y="517" on="1"/>
        <pt x="20" y="570" on="0"/>
        <pt x="78" y="645" on="0"/>
        <pt x="179" y="684" on="0"/>
        <pt x="290" y="700" on="0"/>
        <pt x="422" y="700" on="0"/>
        <pt x="533" y="684" on="0"/>
        <pt x="635" y="645" on="0"/>
        <pt x="693" y="570" on="0"/>
        <pt x="693" y="517" on="1"/>
      </contour>
    </TTGlyph>
    <TTGlyph name="Thorn" xMin="70" yMin="-200" xMax="621" yMax="690">
      <contour>
        <pt x="230" y="388" on="1"/>
        <pt x="230" y="231" on="1"/>
        <pt x="230" y="150" on="0"/>
        <pt x="306" y="25" on="0"/>
        <pt x="367" y="25" on="1"/>
        <pt x="410" y="25" on="0"/>
        <pt x="463" y="109" on="0"/>
        <pt x="463" y="197" on="1"/>
        <pt x="463" y="417" on="1"/>
        <pt x="463" y="466" on="0"/>
        <pt x="452" y="506" on="1"/>
        <pt x="429" y="585" on="0"/>
        <pt x="305" y="585" on="0"/>
        <pt x="230" y="465" on="0"/>
      </contour>
      <contour>
        <pt x="229" y="-200" on="1"/>
        <pt x="70" y="-200" on="1"/>
        <pt x="70" y="690" on="1"/>
        <pt x="229" y="690" on="1"/>
        <pt x="229" y="500" on="1"/>
        <pt x="247" y="550" on="0"/>
        <pt x="332" y="620" on="0"/>
        <pt x="385" y="620" on="1"/>
        <pt x="481" y="620" on="0"/>
        <pt x="621" y="489" on="0"/>
        <pt x="621" y="366" on="1"/>
        <pt x="621" y="247" on="1"/>
        <pt x="621" y="125" on="0"/>
        <pt x="493" y="-10" on="0"/>
        <pt x="385" y="-10" on="1"/>
        <pt x="336" y="-10" on="0"/>
        <pt x="253" y="52" on="0"/>
        <pt x="229" y="114" on="1"/>
      </contour>
    </TTGlyph>
    <TTGlyph name="U" xMin="60" yMin="-10" xMax="611" yMax="690">
      <contour>
        <pt x="611" y="0" on="1"/>
        <pt x="452" y="0" on="1"/>
        <pt x="452" y="110" on="1"/>
        <pt x="433" y="55" on="0"/>
        <pt x="348" y="-10" on="0"/>
        <pt x="296" y="-10" on="1"/>
        <pt x="188" y="-10" on="0"/>
        <pt x="60" y="125" on="0"/>
        <pt x="60" y="247" on="1"/>
        <pt x="60" y="690" on="1"/>
        <pt x="218" y="690" on="1"/>
        <pt x="218" y="197" on="1"/>
        <pt x="218" y="25" on="0"/>
        <pt x="319" y="25" on="1"/>
        <pt x="375" y="25" on="0"/>
        <pt x="451" y="143" on="0"/>
        <pt x="451" y="230" on="1"/>
        <pt x="451" y="690" on="1"/>
        <pt x="611" y="690" on="1"/>
      </contour>
    </TTGlyph>
    <TTGlyph name="Uacute" xMin="60" yMin="-10" xMax="611" yMax="966">
      <contour>
        <pt x="611" y="0" on="1"/>
        <pt x="452" y="0" on="1"/>
        <pt x="452" y="110" on="1"/>
        <pt x="433" y="55" on="0"/>
        <pt x="348" y="-10" on="0"/>
        <pt x="296" y="-10" on="1"/>
        <pt x="188" y="-10" on="0"/>
        <pt x="60" y="125" on="0"/>
        <pt x="60" y="247" on="1"/>
        <pt x="60" y="690" on="1"/>
        <pt x="218" y="690" on="1"/>
        <pt x="218" y="197" on="1"/>
        <pt x="218" y="25" on="0"/>
        <pt x="319" y="25" on="1"/>
        <pt x="375" y="25" on="0"/>
        <pt x="451" y="143" on="0"/>
        <pt x="451" y="230" on="1"/>
        <pt x="451" y="690" on="1"/>
        <pt x="611" y="690" on="1"/>
      </contour>
      <contour>
        <pt x="436" y="966" on="0"/>
        <pt x="469" y="934" on="0"/>
        <pt x="469" y="896" on="0"/>
        <pt x="455" y="885" on="1"/>
        <pt x="309" y="758" on="1"/>
        <pt x="288" y="775" on="1"/>
        <pt x="381" y="946" on="1"/>
        <pt x="392" y="966" on="0"/>
      </contour>
    </TTGlyph>
    <TTGlyph name="Ucircumflex" xMin="60" yMin="-10" xMax="611" yMax="928">
      <contour>
        <pt x="611" y="0" on="1"/>
        <pt x="452" y="0" on="1"/>
        <pt x="452" y="110" on="1"/>
        <pt x="433" y="55" on="0"/>
        <pt x="348" y="-10" on="0"/>
        <pt x="296" y="-10" on="1"/>
        <pt x="188" y="-10" on="0"/>
        <pt x="60" y="125" on="0"/>
        <pt x="60" y="247" on="1"/>
        <pt x="60" y="690" on="1"/>
        <pt x="218" y="690" on="1"/>
        <pt x="218" y="197" on="1"/>
        <pt x="218" y="25" on="0"/>
        <pt x="319" y="25" on="1"/>
        <pt x="375" y="25" on="0"/>
        <pt x="451" y="143" on="0"/>
        <pt x="451" y="230" on="1"/>
        <pt x="451" y="690" on="1"/>
        <pt x="611" y="690" on="1"/>
      </contour>
      <contour>
        <pt x="272" y="888" on="1"/>
        <pt x="296" y="928" on="0"/>
        <pt x="373" y="928" on="0"/>
        <pt x="394" y="888" on="1"/>
        <pt x="451" y="779" on="1"/>
        <pt x="423" y="761" on="1"/>
        <pt x="333" y="858" on="1"/>
        <pt x="242" y="762" on="1"/>
        <pt x="215" y="779" on="1"/>
      </contour>
    </TTGlyph>
    <TTGlyph name="Udieresis" xMin="60" yMin="-10" xMax="611" yMax="866">
      <contour>
        <pt x="611" y="0" on="1"/>
        <pt x="452" y="0" on="1"/>
        <pt x="452" y="110" on="1"/>
        <pt x="433" y="55" on="0"/>
        <pt x="348" y="-10" on="0"/>
        <pt x="296" y="-10" on="1"/>
        <pt x="188" y="-10" on="0"/>
        <pt x="60" y="125" on="0"/>
        <pt x="60" y="247" on="1"/>
        <pt x="60" y="690" on="1"/>
        <pt x="218" y="690" on="1"/>
        <pt x="218" y="197" on="1"/>
        <pt x="218" y="25" on="0"/>
        <pt x="319" y="25" on="1"/>
        <pt x="375" y="25" on="0"/>
        <pt x="451" y="143" on="0"/>
        <pt x="451" y="230" on="1"/>
        <pt x="451" y="690" on="1"/>
        <pt x="611" y="690" on="1"/>
      </contour>
      <contour>
        <pt x="440" y="866" on="0"/>
        <pt x="472" y="836" on="0"/>
        <pt x="472" y="789" on="0"/>
        <pt x="440" y="758" on="0"/>
        <pt x="386" y="758" on="0"/>
        <pt x="354" y="789" on="0"/>
        <pt x="354" y="836" on="0"/>
        <pt x="386" y="866" on="0"/>
      </contour>
      <contour>
        <pt x="258" y="866" on="0"/>
        <pt x="290" y="836" on="0"/>
        <pt x="290" y="789" on="0"/>
        <pt x="258" y="758" on="0"/>
        <pt x="204" y="758" on="0"/>
        <pt x="172" y="789" on="0"/>
        <pt x="172" y="836" on="0"/>
        <pt x="204" y="866" on="0"/>
      </contour>
    </TTGlyph>
    <TTGlyph name="Ugrave" xMin="60" yMin="-10" xMax="611" yMax="967">
      <contour>
        <pt x="611" y="0" on="1"/>
        <pt x="452" y="0" on="1"/>
        <pt x="452" y="110" on="1"/>
        <pt x="433" y="55" on="0"/>
        <pt x="348" y="-10" on="0"/>
        <pt x="296" y="-10" on="1"/>
        <pt x="188" y="-10" on="0"/>
        <pt x="60" y="125" on="0"/>
        <pt x="60" y="247" on="1"/>
        <pt x="60" y="690" on="1"/>
        <pt x="218" y="690" on="1"/>
        <pt x="218" y="197" on="1"/>
        <pt x="218" y="25" on="0"/>
        <pt x="319" y="25" on="1"/>
        <pt x="375" y="25" on="0"/>
        <pt x="451" y="143" on="0"/>
        <pt x="451" y="230" on="1"/>
        <pt x="451" y="690" on="1"/>
        <pt x="611" y="690" on="1"/>
      </contour>
      <contour>
        <pt x="197" y="886" on="1"/>
        <pt x="183" y="900" on="0"/>
        <pt x="183" y="935" on="0"/>
        <pt x="216" y="967" on="0"/>
        <pt x="260" y="967" on="0"/>
        <pt x="271" y="947" on="1"/>
        <pt x="364" y="776" on="1"/>
        <pt x="343" y="759" on="1"/>
      </contour>
    </TTGlyph>
    <TTGlyph name="V" xMin="5" yMin="0" xMax="491" yMax="690">
      <contour>
        <pt x="491" y="690" on="1"/>
        <pt x="318" y="0" on="1"/>
        <pt x="167" y="0" on="1"/>
        <pt x="5" y="690" on="1"/>
        <pt x="165" y="690" on="1"/>
        <pt x="297" y="125" on="1"/>
        <pt x="437" y="690" on="1"/>
      </contour>
    </TTGlyph>
    <TTGlyph name="W" xMin="5" yMin="0" xMax="818" yMax="690">
      <contour>
        <pt x="506" y="0" on="1"/>
        <pt x="412" y="376" on="1"/>
        <pt x="318" y="0" on="1"/>
        <pt x="167" y="0" on="1"/>
        <pt x="5" y="690" on="1"/>
        <pt x="165" y="690" on="1"/>
        <pt x="297" y="125" on="1"/>
        <pt x="385" y="482" on="1"/>
        <pt x="332" y="690" on="1"/>
        <pt x="386" y="690" on="1"/>
        <pt x="412" y="590" on="1"/>
        <pt x="437" y="690" on="1"/>
        <pt x="491" y="690" on="1"/>
        <pt x="438" y="482" on="1"/>
        <pt x="527" y="125" on="1"/>
        <pt x="658" y="690" on="1"/>
        <pt x="818" y="690" on="1"/>
        <pt x="657" y="0" on="1"/>
      </contour>
    </TTGlyph>
    <TTGlyph name="W.alt1" xMin="5" yMin="0" xMax="846" yMax="690">
      <contour>
        <pt x="846" y="690" on="1"/>
        <pt x="674" y="0" on="1"/>
        <pt x="523" y="0" on="1"/>
        <pt x="423" y="425" on="1"/>
        <pt x="317" y="0" on="1"/>
        <pt x="166" y="0" on="1"/>
        <pt x="5" y="690" on="1"/>
        <pt x="165" y="690" on="1"/>
        <pt x="296" y="125" on="1"/>
        <pt x="397" y="535" on="1"/>
        <pt x="362" y="690" on="1"/>
        <pt x="524" y="690" on="1"/>
        <pt x="523" y="686" on="1"/>
        <pt x="653" y="125" on="1"/>
        <pt x="792" y="690" on="1"/>
      </contour>
    </TTGlyph>
    <TTGlyph name="X" xMin="45" yMin="-10" xMax="763" yMax="700">
      <contour>
        <pt x="763" y="167" on="1"/>
        <pt x="763" y="95" on="0"/>
        <pt x="633" y="-10" on="0"/>
        <pt x="453" y="-10" on="0"/>
        <pt x="404" y="24" on="1"/>
        <pt x="354" y="-10" on="0"/>
        <pt x="175" y="-10" on="0"/>
        <pt x="45" y="95" on="0"/>
        <pt x="45" y="167" on="1"/>
        <pt x="45" y="179" on="1"/>
        <pt x="175" y="179" on="1"/>
        <pt x="175" y="115" on="1"/>
        <pt x="175" y="77" on="0"/>
        <pt x="216" y="25" on="0"/>
        <pt x="285" y="25" on="0"/>
        <pt x="324" y="75" on="0"/>
        <pt x="324" y="119" on="1"/>
        <pt x="324" y="571" on="1"/>
        <pt x="324" y="615" on="0"/>
        <pt x="285" y="665" on="0"/>
        <pt x="216" y="665" on="0"/>
        <pt x="175" y="613" on="0"/>
        <pt x="175" y="575" on="1"/>
        <pt x="175" y="511" on="1"/>
        <pt x="45" y="511" on="1"/>
        <pt x="45" y="523" on="1"/>
        <pt x="45" y="596" on="0"/>
        <pt x="175" y="700" on="0"/>
        <pt x="354" y="700" on="0"/>
        <pt x="404" y="666" on="1"/>
        <pt x="453" y="700" on="0"/>
        <pt x="633" y="700" on="0"/>
        <pt x="763" y="596" on="0"/>
        <pt x="763" y="523" on="1"/>
        <pt x="763" y="511" on="1"/>
        <pt x="633" y="511" on="1"/>
        <pt x="633" y="575" on="1"/>
        <pt x="633" y="613" on="0"/>
        <pt x="592" y="665" on="0"/>
        <pt x="523" y="665" on="0"/>
        <pt x="484" y="615" on="0"/>
        <pt x="484" y="571" on="1"/>
        <pt x="484" y="119" on="1"/>
        <pt x="484" y="75" on="0"/>
        <pt x="523" y="25" on="0"/>
        <pt x="592" y="25" on="0"/>
        <pt x="633" y="77" on="0"/>
        <pt x="633" y="115" on="1"/>
        <pt x="633" y="179" on="1"/>
        <pt x="763" y="179" on="1"/>
      </contour>
    </TTGlyph>
    <TTGlyph name="Y" xMin="25" yMin="0" xMax="590" yMax="690">
      <contour>
        <pt x="590" y="611" on="1"/>
        <pt x="590" y="521" on="0"/>
        <pt x="478" y="382" on="0"/>
        <pt x="387" y="357" on="1"/>
        <pt x="387" y="0" on="1"/>
        <pt x="228" y="0" on="1"/>
        <pt x="228" y="356" on="1"/>
        <pt x="137" y="381" on="0"/>
        <pt x="25" y="521" on="0"/>
        <pt x="25" y="611" on="1"/>
        <pt x="25" y="690" on="1"/>
        <pt x="184" y="690" on="1"/>
        <pt x="184" y="538" on="1"/>
        <pt x="184" y="471" on="0"/>
        <pt x="253" y="382" on="0"/>
        <pt x="362" y="382" on="0"/>
        <pt x="430" y="470" on="0"/>
        <pt x="430" y="538" on="1"/>
        <pt x="430" y="690" on="1"/>
        <pt x="590" y="690" on="1"/>
      </contour>
    </TTGlyph>
    <TTGlyph name="Yacute" xMin="25" yMin="0" xMax="590" yMax="966">
      <contour>
        <pt x="590" y="611" on="1"/>
        <pt x="590" y="521" on="0"/>
        <pt x="478" y="382" on="0"/>
        <pt x="387" y="357" on="1"/>
        <pt x="387" y="0" on="1"/>
        <pt x="228" y="0" on="1"/>
        <pt x="228" y="356" on="1"/>
        <pt x="137" y="381" on="0"/>
        <pt x="25" y="521" on="0"/>
        <pt x="25" y="611" on="1"/>
        <pt x="25" y="690" on="1"/>
        <pt x="184" y="690" on="1"/>
        <pt x="184" y="538" on="1"/>
        <pt x="184" y="471" on="0"/>
        <pt x="253" y="382" on="0"/>
        <pt x="362" y="382" on="0"/>
        <pt x="430" y="470" on="0"/>
        <pt x="430" y="538" on="1"/>
        <pt x="430" y="690" on="1"/>
        <pt x="590" y="690" on="1"/>
      </contour>
      <contour>
        <pt x="428" y="966" on="0"/>
        <pt x="461" y="934" on="0"/>
        <pt x="461" y="896" on="0"/>
        <pt x="447" y="885" on="1"/>
        <pt x="301" y="758" on="1"/>
        <pt x="280" y="775" on="1"/>
        <pt x="373" y="946" on="1"/>
        <pt x="384" y="966" on="0"/>
      </contour>
    </TTGlyph>
    <TTGlyph name="Ydieresis" xMin="25" yMin="0" xMax="590" yMax="866">
      <contour>
        <pt x="590" y="611" on="1"/>
        <pt x="590" y="521" on="0"/>
        <pt x="478" y="382" on="0"/>
        <pt x="387" y="357" on="1"/>
        <pt x="387" y="0" on="1"/>
        <pt x="228" y="0" on="1"/>
        <pt x="228" y="356" on="1"/>
        <pt x="137" y="381" on="0"/>
        <pt x="25" y="521" on="0"/>
        <pt x="25" y="611" on="1"/>
        <pt x="25" y="690" on="1"/>
        <pt x="184" y="690" on="1"/>
        <pt x="184" y="538" on="1"/>
        <pt x="184" y="471" on="0"/>
        <pt x="253" y="382" on="0"/>
        <pt x="362" y="382" on="0"/>
        <pt x="430" y="470" on="0"/>
        <pt x="430" y="538" on="1"/>
        <pt x="430" y="690" on="1"/>
        <pt x="590" y="690" on="1"/>
      </contour>
      <contour>
        <pt x="450" y="866" on="0"/>
        <pt x="482" y="836" on="0"/>
        <pt x="482" y="789" on="0"/>
        <pt x="450" y="758" on="0"/>
        <pt x="396" y="758" on="0"/>
        <pt x="364" y="789" on="0"/>
        <pt x="364" y="836" on="0"/>
        <pt x="396" y="866" on="0"/>
      </contour>
      <contour>
        <pt x="268" y="866" on="0"/>
        <pt x="300" y="836" on="0"/>
        <pt x="300" y="789" on="0"/>
        <pt x="268" y="758" on="0"/>
        <pt x="214" y="758" on="0"/>
        <pt x="182" y="789" on="0"/>
        <pt x="182" y="836" on="0"/>
        <pt x="214" y="866" on="0"/>
      </contour>
    </TTGlyph>
    <TTGlyph name="Z" xMin="30" yMin="0" xMax="543" yMax="690">
      <contour>
        <pt x="543" y="0" on="1"/>
        <pt x="30" y="0" on="1"/>
        <pt x="346" y="643" on="1"/>
        <pt x="36" y="643" on="1"/>
        <pt x="36" y="690" on="1"/>
        <pt x="528" y="690" on="1"/>
        <pt x="209" y="47" on="1"/>
        <pt x="543" y="47" on="1"/>
      </contour>
    </TTGlyph>
    <TTGlyph name="Zcaron" xMin="30" yMin="0" xMax="543" yMax="927">
      <contour>
        <pt x="543" y="0" on="1"/>
        <pt x="30" y="0" on="1"/>
        <pt x="346" y="643" on="1"/>
        <pt x="36" y="643" on="1"/>
        <pt x="36" y="690" on="1"/>
        <pt x="528" y="690" on="1"/>
        <pt x="209" y="47" on="1"/>
        <pt x="543" y="47" on="1"/>
      </contour>
      <contour>
        <pt x="380" y="800" on="1"/>
        <pt x="359" y="760" on="0"/>
        <pt x="282" y="760" on="0"/>
        <pt x="258" y="800" on="1"/>
        <pt x="201" y="909" on="1"/>
        <pt x="228" y="926" on="1"/>
        <pt x="319" y="830" on="1"/>
        <pt x="409" y="927" on="1"/>
        <pt x="437" y="909" on="1"/>
      </contour>
    </TTGlyph>
    <TTGlyph name="a" xMin="50" yMin="-10" xMax="519" yMax="480">
      <contour>
        <pt x="468" y="40" on="1"/>
        <pt x="488" y="40" on="0"/>
        <pt x="500" y="72" on="1"/>
        <pt x="519" y="69" on="1"/>
        <pt x="519" y="59" on="0"/>
        <pt x="504" y="28" on="0"/>
        <pt x="494" y="18" on="1"/>
        <pt x="468" y="-10" on="0"/>
        <pt x="416" y="-10" on="1"/>
        <pt x="323" y="-10" on="0"/>
        <pt x="311" y="64" on="1"/>
        <pt x="303" y="37" on="0"/>
        <pt x="251" y="-10" on="0"/>
        <pt x="211" y="-10" on="1"/>
        <pt x="133" y="-10" on="0"/>
        <pt x="50" y="75" on="0"/>
        <pt x="50" y="149" on="1"/>
        <pt x="50" y="322" on="1"/>
        <pt x="50" y="394" on="0"/>
        <pt x="139" y="480" on="0"/>
        <pt x="211" y="480" on="1"/>
        <pt x="250" y="480" on="0"/>
        <pt x="303" y="438" on="0"/>
        <pt x="309" y="414" on="1"/>
        <pt x="309" y="470" on="1"/>
        <pt x="445" y="470" on="1"/>
        <pt x="445" y="74" on="1"/>
        <pt x="445" y="40" on="0"/>
      </contour>
      <contour>
        <pt x="309" y="334" on="1"/>
        <pt x="309" y="376" on="0"/>
        <pt x="265" y="450" on="0"/>
        <pt x="208" y="450" on="0"/>
        <pt x="187" y="402" on="0"/>
        <pt x="187" y="356" on="1"/>
        <pt x="187" y="115" on="1"/>
        <pt x="187" y="66" on="0"/>
        <pt x="209" y="22" on="0"/>
        <pt x="265" y="22" on="0"/>
        <pt x="309" y="92" on="0"/>
        <pt x="309" y="137" on="1"/>
      </contour>
    </TTGlyph>
    <TTGlyph name="aacute" xMin="50" yMin="-10" xMax="519" yMax="734">
      <contour>
        <pt x="468" y="40" on="1"/>
        <pt x="488" y="40" on="0"/>
        <pt x="500" y="72" on="1"/>
        <pt x="519" y="69" on="1"/>
        <pt x="519" y="59" on="0"/>
        <pt x="504" y="28" on="0"/>
        <pt x="494" y="18" on="1"/>
        <pt x="468" y="-10" on="0"/>
        <pt x="416" y="-10" on="1"/>
        <pt x="323" y="-10" on="0"/>
        <pt x="311" y="64" on="1"/>
        <pt x="303" y="37" on="0"/>
        <pt x="251" y="-10" on="0"/>
        <pt x="211" y="-10" on="1"/>
        <pt x="133" y="-10" on="0"/>
        <pt x="50" y="75" on="0"/>
        <pt x="50" y="149" on="1"/>
        <pt x="50" y="322" on="1"/>
        <pt x="50" y="394" on="0"/>
        <pt x="139" y="480" on="0"/>
        <pt x="211" y="480" on="1"/>
        <pt x="250" y="480" on="0"/>
        <pt x="303" y="438" on="0"/>
        <pt x="309" y="414" on="1"/>
        <pt x="309" y="470" on="1"/>
        <pt x="445" y="470" on="1"/>
        <pt x="445" y="74" on="1"/>
        <pt x="445" y="40" on="0"/>
      </contour>
      <contour>
        <pt x="309" y="334" on="1"/>
        <pt x="309" y="376" on="0"/>
        <pt x="265" y="450" on="0"/>
        <pt x="208" y="450" on="0"/>
        <pt x="187" y="402" on="0"/>
        <pt x="187" y="356" on="1"/>
        <pt x="187" y="115" on="1"/>
        <pt x="187" y="66" on="0"/>
        <pt x="209" y="22" on="0"/>
        <pt x="265" y="22" on="0"/>
        <pt x="309" y="92" on="0"/>
        <pt x="309" y="137" on="1"/>
      </contour>
      <contour>
        <pt x="343" y="734" on="0"/>
        <pt x="376" y="702" on="0"/>
        <pt x="376" y="664" on="0"/>
        <pt x="362" y="653" on="1"/>
        <pt x="216" y="526" on="1"/>
        <pt x="195" y="543" on="1"/>
        <pt x="288" y="714" on="1"/>
        <pt x="299" y="734" on="0"/>
      </contour>
    </TTGlyph>
    <TTGlyph name="acircumflex" xMin="50" yMin="-10" xMax="519" yMax="700">
      <contour>
        <pt x="468" y="40" on="1"/>
        <pt x="488" y="40" on="0"/>
        <pt x="500" y="72" on="1"/>
        <pt x="519" y="69" on="1"/>
        <pt x="519" y="59" on="0"/>
        <pt x="504" y="28" on="0"/>
        <pt x="494" y="18" on="1"/>
        <pt x="468" y="-10" on="0"/>
        <pt x="416" y="-10" on="1"/>
        <pt x="323" y="-10" on="0"/>
        <pt x="311" y="64" on="1"/>
        <pt x="303" y="37" on="0"/>
        <pt x="251" y="-10" on="0"/>
        <pt x="211" y="-10" on="1"/>
        <pt x="133" y="-10" on="0"/>
        <pt x="50" y="75" on="0"/>
        <pt x="50" y="149" on="1"/>
        <pt x="50" y="322" on="1"/>
        <pt x="50" y="394" on="0"/>
        <pt x="139" y="480" on="0"/>
        <pt x="211" y="480" on="1"/>
        <pt x="250" y="480" on="0"/>
        <pt x="303" y="438" on="0"/>
        <pt x="309" y="414" on="1"/>
        <pt x="309" y="470" on="1"/>
        <pt x="445" y="470" on="1"/>
        <pt x="445" y="74" on="1"/>
        <pt x="445" y="40" on="0"/>
      </contour>
      <contour>
        <pt x="309" y="334" on="1"/>
        <pt x="309" y="376" on="0"/>
        <pt x="265" y="450" on="0"/>
        <pt x="208" y="450" on="0"/>
        <pt x="187" y="402" on="0"/>
        <pt x="187" y="356" on="1"/>
        <pt x="187" y="115" on="1"/>
        <pt x="187" y="66" on="0"/>
        <pt x="209" y="22" on="0"/>
        <pt x="265" y="22" on="0"/>
        <pt x="309" y="92" on="0"/>
        <pt x="309" y="137" on="1"/>
      </contour>
      <contour>
        <pt x="172" y="660" on="1"/>
        <pt x="196" y="700" on="0"/>
        <pt x="273" y="700" on="0"/>
        <pt x="294" y="660" on="1"/>
        <pt x="351" y="551" on="1"/>
        <pt x="323" y="533" on="1"/>
        <pt x="233" y="630" on="1"/>
        <pt x="142" y="534" on="1"/>
        <pt x="115" y="551" on="1"/>
      </contour>
    </TTGlyph>
    <TTGlyph name="acute" xMin="50" yMin="526" xMax="231" yMax="734">
      <contour>
        <pt x="198" y="734" on="0"/>
        <pt x="231" y="702" on="0"/>
        <pt x="231" y="664" on="0"/>
        <pt x="217" y="653" on="1"/>
        <pt x="71" y="526" on="1"/>
        <pt x="50" y="543" on="1"/>
        <pt x="143" y="714" on="1"/>
        <pt x="154" y="734" on="0"/>
      </contour>
    </TTGlyph>
    <TTGlyph name="adieresis" xMin="50" yMin="-10" xMax="519" yMax="676">
      <contour>
        <pt x="468" y="40" on="1"/>
        <pt x="488" y="40" on="0"/>
        <pt x="500" y="72" on="1"/>
        <pt x="519" y="69" on="1"/>
        <pt x="519" y="59" on="0"/>
        <pt x="504" y="28" on="0"/>
        <pt x="494" y="18" on="1"/>
        <pt x="468" y="-10" on="0"/>
        <pt x="416" y="-10" on="1"/>
        <pt x="323" y="-10" on="0"/>
        <pt x="311" y="64" on="1"/>
        <pt x="303" y="37" on="0"/>
        <pt x="251" y="-10" on="0"/>
        <pt x="211" y="-10" on="1"/>
        <pt x="133" y="-10" on="0"/>
        <pt x="50" y="75" on="0"/>
        <pt x="50" y="149" on="1"/>
        <pt x="50" y="322" on="1"/>
        <pt x="50" y="394" on="0"/>
        <pt x="139" y="480" on="0"/>
        <pt x="211" y="480" on="1"/>
        <pt x="250" y="480" on="0"/>
        <pt x="303" y="438" on="0"/>
        <pt x="309" y="414" on="1"/>
        <pt x="309" y="470" on="1"/>
        <pt x="445" y="470" on="1"/>
        <pt x="445" y="74" on="1"/>
        <pt x="445" y="40" on="0"/>
      </contour>
      <contour>
        <pt x="309" y="334" on="1"/>
        <pt x="309" y="376" on="0"/>
        <pt x="265" y="450" on="0"/>
        <pt x="208" y="450" on="0"/>
        <pt x="187" y="402" on="0"/>
        <pt x="187" y="356" on="1"/>
        <pt x="187" y="115" on="1"/>
        <pt x="187" y="66" on="0"/>
        <pt x="209" y="22" on="0"/>
        <pt x="265" y="22" on="0"/>
        <pt x="309" y="92" on="0"/>
        <pt x="309" y="137" on="1"/>
      </contour>
      <contour>
        <pt x="356" y="676" on="0"/>
        <pt x="388" y="646" on="0"/>
        <pt x="388" y="599" on="0"/>
        <pt x="356" y="568" on="0"/>
        <pt x="302" y="568" on="0"/>
        <pt x="270" y="599" on="0"/>
        <pt x="270" y="646" on="0"/>
        <pt x="302" y="676" on="0"/>
      </contour>
      <contour>
        <pt x="174" y="676" on="0"/>
        <pt x="206" y="646" on="0"/>
        <pt x="206" y="599" on="0"/>
        <pt x="174" y="568" on="0"/>
        <pt x="120" y="568" on="0"/>
        <pt x="88" y="599" on="0"/>
        <pt x="88" y="646" on="0"/>
        <pt x="120" y="676" on="0"/>
      </contour>
    </TTGlyph>
    <TTGlyph name="agrave" xMin="50" yMin="-10" xMax="519" yMax="734">
      <contour>
        <pt x="468" y="40" on="1"/>
        <pt x="488" y="40" on="0"/>
        <pt x="500" y="72" on="1"/>
        <pt x="519" y="69" on="1"/>
        <pt x="519" y="59" on="0"/>
        <pt x="504" y="28" on="0"/>
        <pt x="494" y="18" on="1"/>
        <pt x="468" y="-10" on="0"/>
        <pt x="416" y="-10" on="1"/>
        <pt x="323" y="-10" on="0"/>
        <pt x="311" y="64" on="1"/>
        <pt x="303" y="37" on="0"/>
        <pt x="251" y="-10" on="0"/>
        <pt x="211" y="-10" on="1"/>
        <pt x="133" y="-10" on="0"/>
        <pt x="50" y="75" on="0"/>
        <pt x="50" y="149" on="1"/>
        <pt x="50" y="322" on="1"/>
        <pt x="50" y="394" on="0"/>
        <pt x="139" y="480" on="0"/>
        <pt x="211" y="480" on="1"/>
        <pt x="250" y="480" on="0"/>
        <pt x="303" y="438" on="0"/>
        <pt x="309" y="414" on="1"/>
        <pt x="309" y="470" on="1"/>
        <pt x="445" y="470" on="1"/>
        <pt x="445" y="74" on="1"/>
        <pt x="445" y="40" on="0"/>
      </contour>
      <contour>
        <pt x="309" y="334" on="1"/>
        <pt x="309" y="376" on="0"/>
        <pt x="265" y="450" on="0"/>
        <pt x="208" y="450" on="0"/>
        <pt x="187" y="402" on="0"/>
        <pt x="187" y="356" on="1"/>
        <pt x="187" y="115" on="1"/>
        <pt x="187" y="66" on="0"/>
        <pt x="209" y="22" on="0"/>
        <pt x="265" y="22" on="0"/>
        <pt x="309" y="92" on="0"/>
        <pt x="309" y="137" on="1"/>
      </contour>
      <contour>
        <pt x="133" y="653" on="1"/>
        <pt x="119" y="667" on="0"/>
        <pt x="119" y="702" on="0"/>
        <pt x="152" y="734" on="0"/>
        <pt x="196" y="734" on="0"/>
        <pt x="207" y="714" on="1"/>
        <pt x="300" y="543" on="1"/>
        <pt x="279" y="526" on="1"/>
      </contour>
    </TTGlyph>
    <TTGlyph name="ampersand" xMin="60" yMin="-10" xMax="687" yMax="700">
      <contour>
        <pt x="605" y="40" on="1"/>
        <pt x="625" y="40" on="0"/>
        <pt x="637" y="72" on="1"/>
        <pt x="656" y="69" on="1"/>
        <pt x="656" y="59" on="0"/>
        <pt x="641" y="28" on="0"/>
        <pt x="631" y="18" on="1"/>
        <pt x="605" y="-10" on="0"/>
        <pt x="485" y="-10" on="0"/>
        <pt x="460" y="31" on="1"/>
        <pt x="411" y="-10" on="0"/>
        <pt x="333" y="-10" on="1"/>
        <pt x="212" y="-10" on="0"/>
        <pt x="60" y="149" on="0"/>
        <pt x="60" y="263" on="1"/>
        <pt x="60" y="436" on="1"/>
        <pt x="60" y="549" on="0"/>
        <pt x="211" y="700" on="0"/>
        <pt x="333" y="700" on="1"/>
        <pt x="429" y="700" on="0"/>
        <pt x="582" y="593" on="0"/>
        <pt x="582" y="499" on="1"/>
        <pt x="582" y="486" on="1"/>
        <pt x="446" y="486" on="1"/>
        <pt x="446" y="508" on="1"/>
        <pt x="446" y="578" on="0"/>
        <pt x="388" y="665" on="0"/>
        <pt x="277" y="665" on="0"/>
        <pt x="219" y="579" on="0"/>
        <pt x="219" y="508" on="1"/>
        <pt x="219" y="347" on="1"/>
        <pt x="446" y="347" on="1"/>
        <pt x="446" y="409" on="1"/>
        <pt x="582" y="409" on="1"/>
        <pt x="582" y="347" on="1"/>
        <pt x="687" y="347" on="1"/>
        <pt x="687" y="300" on="1"/>
        <pt x="582" y="300" on="1"/>
        <pt x="582" y="74" on="1"/>
        <pt x="582" y="40" on="0"/>
      </contour>
      <contour>
        <pt x="446" y="182" on="1"/>
        <pt x="446" y="300" on="1"/>
        <pt x="219" y="300" on="1"/>
        <pt x="219" y="182" on="1"/>
        <pt x="219" y="111" on="0"/>
        <pt x="277" y="25" on="0"/>
        <pt x="388" y="25" on="0"/>
        <pt x="446" y="112" on="0"/>
      </contour>
    </TTGlyph>
    <TTGlyph name="aring" xMin="50" yMin="-10" xMax="519" yMax="690">
      <contour>
        <pt x="468" y="40" on="1"/>
        <pt x="488" y="40" on="0"/>
        <pt x="500" y="72" on="1"/>
        <pt x="519" y="69" on="1"/>
        <pt x="519" y="59" on="0"/>
        <pt x="504" y="28" on="0"/>
        <pt x="494" y="18" on="1"/>
        <pt x="468" y="-10" on="0"/>
        <pt x="416" y="-10" on="1"/>
        <pt x="323" y="-10" on="0"/>
        <pt x="311" y="64" on="1"/>
        <pt x="303" y="37" on="0"/>
        <pt x="251" y="-10" on="0"/>
        <pt x="211" y="-10" on="1"/>
        <pt x="133" y="-10" on="0"/>
        <pt x="50" y="75" on="0"/>
        <pt x="50" y="149" on="1"/>
        <pt x="50" y="322" on="1"/>
        <pt x="50" y="394" on="0"/>
        <pt x="139" y="480" on="0"/>
        <pt x="211" y="480" on="1"/>
        <pt x="250" y="480" on="0"/>
        <pt x="303" y="438" on="0"/>
        <pt x="309" y="414" on="1"/>
        <pt x="309" y="470" on="1"/>
        <pt x="445" y="470" on="1"/>
        <pt x="445" y="74" on="1"/>
        <pt x="445" y="40" on="0"/>
      </contour>
      <contour>
        <pt x="309" y="334" on="1"/>
        <pt x="309" y="376" on="0"/>
        <pt x="265" y="450" on="0"/>
        <pt x="208" y="450" on="0"/>
        <pt x="187" y="402" on="0"/>
        <pt x="187" y="356" on="1"/>
        <pt x="187" y="115" on="1"/>
        <pt x="187" y="66" on="0"/>
        <pt x="209" y="22" on="0"/>
        <pt x="265" y="22" on="0"/>
        <pt x="309" y="92" on="0"/>
        <pt x="309" y="137" on="1"/>
      </contour>
      <contour>
        <pt x="263" y="690" on="0"/>
        <pt x="308" y="652" on="0"/>
        <pt x="308" y="593" on="0"/>
        <pt x="263" y="556" on="0"/>
        <pt x="197" y="556" on="0"/>
        <pt x="152" y="594" on="0"/>
        <pt x="152" y="652" on="0"/>
        <pt x="197" y="690" on="0"/>
      </contour>
      <contour>
        <pt x="247" y="586" on="0"/>
        <pt x="271" y="607" on="0"/>
        <pt x="271" y="638" on="0"/>
        <pt x="247" y="659" on="0"/>
        <pt x="213" y="659" on="0"/>
        <pt x="190" y="638" on="0"/>
        <pt x="190" y="607" on="0"/>
        <pt x="213" y="586" on="0"/>
      </contour>
    </TTGlyph>
    <TTGlyph name="asciicircum" xMin="79" yMin="397" xMax="487" yMax="712">
      <contour>
        <pt x="283" y="712" on="1"/>
        <pt x="487" y="397" on="1"/>
        <pt x="387" y="397" on="1"/>
        <pt x="281" y="555" on="1"/>
        <pt x="179" y="397" on="1"/>
        <pt x="79" y="397" on="1"/>
      </contour>
    </TTGlyph>
    <TTGlyph name="asciitilde" xMin="60" yMin="370" xMax="402" yMax="480">
      <contour>
        <pt x="315" y="370" on="0"/>
        <pt x="258" y="370" on="0"/>
        <pt x="173" y="419" on="0"/>
        <pt x="153" y="419" on="1"/>
        <pt x="112" y="419" on="0"/>
        <pt x="78" y="394" on="1"/>
        <pt x="60" y="409" on="1"/>
        <pt x="124" y="480" on="0"/>
        <pt x="194" y="480" on="1"/>
        <pt x="215" y="480" on="0"/>
        <pt x="295" y="438" on="0"/>
        <pt x="357" y="438" on="0"/>
        <pt x="383" y="456" on="1"/>
        <pt x="402" y="438" on="1"/>
        <pt x="380" y="408" on="0"/>
      </contour>
    </TTGlyph>
    <TTGlyph name="asterisk" xMin="50" yMin="300" xMax="450" yMax="700">
      <contour>
        <pt x="299" y="658" on="1"/>
        <pt x="299" y="655" on="0"/>
        <pt x="289" y="595" on="1"/>
        <pt x="319" y="640" on="0"/>
        <pt x="337" y="658" on="0"/>
        <pt x="373" y="658" on="0"/>
        <pt x="389" y="644" on="1"/>
        <pt x="405" y="628" on="0"/>
        <pt x="405" y="591" on="0"/>
        <pt x="391" y="577" on="0"/>
        <pt x="343" y="541" on="1"/>
        <pt x="396" y="551" on="0"/>
        <pt x="425" y="551" on="0"/>
        <pt x="449" y="524" on="0"/>
        <pt x="450" y="486" on="0"/>
        <pt x="426" y="455" on="0"/>
        <pt x="393" y="455" on="0"/>
        <pt x="343" y="463" on="1"/>
        <pt x="389" y="433" on="0"/>
        <pt x="409" y="413" on="0"/>
        <pt x="409" y="377" on="0"/>
        <pt x="395" y="361" on="1"/>
        <pt x="379" y="345" on="0"/>
        <pt x="342" y="345" on="0"/>
        <pt x="322" y="365" on="0"/>
        <pt x="291" y="408" on="1"/>
        <pt x="301" y="346" on="0"/>
        <pt x="301" y="342" on="1"/>
        <pt x="301" y="324" on="0"/>
        <pt x="272" y="300" on="0"/>
        <pt x="235" y="300" on="0"/>
        <pt x="206" y="324" on="0"/>
        <pt x="206" y="357" on="0"/>
        <pt x="214" y="407" on="1"/>
        <pt x="184" y="362" on="0"/>
        <pt x="164" y="342" on="0"/>
        <pt x="128" y="342" on="0"/>
        <pt x="111" y="356" on="1"/>
        <pt x="96" y="371" on="0"/>
        <pt x="96" y="411" on="0"/>
        <pt x="108" y="420" on="1"/>
        <pt x="116" y="428" on="0"/>
        <pt x="163" y="462" on="1"/>
        <pt x="104" y="451" on="0"/>
        <pt x="76" y="451" on="0"/>
        <pt x="50" y="480" on="0"/>
        <pt x="50" y="517" on="0"/>
        <pt x="74" y="546" on="0"/>
        <pt x="106" y="546" on="0"/>
        <pt x="157" y="538" on="1"/>
        <pt x="113" y="568" on="0"/>
        <pt x="94" y="587" on="0"/>
        <pt x="94" y="627" on="0"/>
        <pt x="118" y="655" on="0"/>
        <pt x="161" y="655" on="0"/>
        <pt x="180" y="636" on="0"/>
        <pt x="213" y="589" on="1"/>
        <pt x="203" y="653" on="0"/>
        <pt x="203" y="658" on="1"/>
        <pt x="203" y="676" on="0"/>
        <pt x="232" y="700" on="0"/>
        <pt x="269" y="700" on="0"/>
        <pt x="299" y="676" on="0"/>
      </contour>
    </TTGlyph>
    <TTGlyph name="at" xMin="60" yMin="-145" xMax="1009" yMax="690">
      <contour>
        <pt x="589" y="334" on="1"/>
        <pt x="589" y="376" on="0"/>
        <pt x="545" y="450" on="0"/>
        <pt x="488" y="450" on="0"/>
        <pt x="467" y="402" on="0"/>
        <pt x="467" y="356" on="1"/>
        <pt x="467" y="115" on="1"/>
        <pt x="467" y="66" on="0"/>
        <pt x="489" y="22" on="0"/>
        <pt x="545" y="22" on="0"/>
        <pt x="589" y="92" on="0"/>
        <pt x="589" y="137" on="1"/>
      </contour>
      <contour>
        <pt x="755" y="-10" on="1"/>
        <pt x="716" y="-10" on="1"/>
        <pt x="603" y="-10" on="0"/>
        <pt x="591" y="64" on="1"/>
        <pt x="583" y="37" on="0"/>
        <pt x="531" y="-10" on="0"/>
        <pt x="491" y="-10" on="1"/>
        <pt x="413" y="-10" on="0"/>
        <pt x="330" y="75" on="0"/>
        <pt x="330" y="149" on="1"/>
        <pt x="330" y="322" on="1"/>
        <pt x="330" y="394" on="0"/>
        <pt x="419" y="480" on="0"/>
        <pt x="491" y="480" on="1"/>
        <pt x="530" y="480" on="0"/>
        <pt x="583" y="438" on="0"/>
        <pt x="589" y="414" on="1"/>
        <pt x="589" y="470" on="1"/>
        <pt x="725" y="470" on="1"/>
        <pt x="725" y="74" on="1"/>
        <pt x="725" y="40" on="0"/>
        <pt x="759" y="40" on="1"/>
        <pt x="849" y="40" on="0"/>
        <pt x="849" y="182" on="1"/>
        <pt x="849" y="498" on="1"/>
        <pt x="849" y="568" on="0"/>
        <pt x="797" y="655" on="0"/>
        <pt x="746" y="655" on="1"/>
        <pt x="323" y="655" on="1"/>
        <pt x="271" y="655" on="0"/>
        <pt x="219" y="569" on="0"/>
        <pt x="219" y="498" on="1"/>
        <pt x="219" y="47" on="1"/>
        <pt x="219" y="-24" on="0"/>
        <pt x="271" y="-110" on="0"/>
        <pt x="323" y="-110" on="1"/>
        <pt x="850" y="-110" on="1"/>
        <pt x="850" y="-145" on="1"/>
        <pt x="323" y="-145" on="1"/>
        <pt x="194" y="-145" on="0"/>
        <pt x="60" y="1" on="0"/>
        <pt x="60" y="125" on="1"/>
        <pt x="60" y="419" on="1"/>
        <pt x="60" y="544" on="0"/>
        <pt x="195" y="690" on="0"/>
        <pt x="323" y="690" on="1"/>
        <pt x="746" y="690" on="1"/>
        <pt x="874" y="690" on="0"/>
        <pt x="1009" y="543" on="0"/>
        <pt x="1009" y="419" on="1"/>
        <pt x="1009" y="260" on="1"/>
        <pt x="1009" y="139" on="0"/>
        <pt x="870" y="-10" on="0"/>
      </contour>
    </TTGlyph>
    <TTGlyph name="atilde" xMin="50" yMin="-10" xMax="519" yMax="652">
      <contour>
        <pt x="468" y="40" on="1"/>
        <pt x="488" y="40" on="0"/>
        <pt x="500" y="72" on="1"/>
        <pt x="519" y="69" on="1"/>
        <pt x="519" y="59" on="0"/>
        <pt x="504" y="28" on="0"/>
        <pt x="494" y="18" on="1"/>
        <pt x="468" y="-10" on="0"/>
        <pt x="416" y="-10" on="1"/>
        <pt x="323" y="-10" on="0"/>
        <pt x="311" y="64" on="1"/>
        <pt x="303" y="37" on="0"/>
        <pt x="251" y="-10" on="0"/>
        <pt x="211" y="-10" on="1"/>
        <pt x="133" y="-10" on="0"/>
        <pt x="50" y="75" on="0"/>
        <pt x="50" y="149" on="1"/>
        <pt x="50" y="322" on="1"/>
        <pt x="50" y="394" on="0"/>
        <pt x="139" y="480" on="0"/>
        <pt x="211" y="480" on="1"/>
        <pt x="250" y="480" on="0"/>
        <pt x="303" y="438" on="0"/>
        <pt x="309" y="414" on="1"/>
        <pt x="309" y="470" on="1"/>
        <pt x="445" y="470" on="1"/>
        <pt x="445" y="74" on="1"/>
        <pt x="445" y="40" on="0"/>
      </contour>
      <contour>
        <pt x="309" y="334" on="1"/>
        <pt x="309" y="376" on="0"/>
        <pt x="265" y="450" on="0"/>
        <pt x="208" y="450" on="0"/>
        <pt x="187" y="402" on="0"/>
        <pt x="187" y="356" on="1"/>
        <pt x="187" y="115" on="1"/>
        <pt x="187" y="66" on="0"/>
        <pt x="209" y="22" on="0"/>
        <pt x="265" y="22" on="0"/>
        <pt x="309" y="92" on="0"/>
        <pt x="309" y="137" on="1"/>
      </contour>
      <contour>
        <pt x="388" y="596" on="0"/>
        <pt x="333" y="542" on="0"/>
        <pt x="274" y="542" on="0"/>
        <pt x="190" y="591" on="0"/>
        <pt x="173" y="591" on="1"/>
        <pt x="137" y="591" on="0"/>
        <pt x="105" y="553" on="1"/>
        <pt x="90" y="568" on="1"/>
        <pt x="155" y="652" on="0"/>
        <pt x="213" y="652" on="1"/>
        <pt x="232" y="652" on="0"/>
        <pt x="303" y="609" on="0"/>
        <pt x="357" y="609" on="0"/>
        <pt x="384" y="628" on="1"/>
        <pt x="397" y="615" on="1"/>
      </contour>
    </TTGlyph>
    <TTGlyph name="b" xMin="60" yMin="-10" xMax="455" yMax="690">
      <contour>
        <pt x="196" y="0" on="1"/>
        <pt x="60" y="0" on="1"/>
        <pt x="60" y="690" on="1"/>
        <pt x="196" y="690" on="1"/>
        <pt x="196" y="414" on="1"/>
        <pt x="202" y="438" on="0"/>
        <pt x="255" y="480" on="0"/>
        <pt x="294" y="480" on="1"/>
        <pt x="366" y="480" on="0"/>
        <pt x="455" y="394" on="0"/>
        <pt x="455" y="322" on="1"/>
        <pt x="455" y="149" on="1"/>
        <pt x="455" y="75" on="0"/>
        <pt x="372" y="-10" on="0"/>
        <pt x="294" y="-10" on="1"/>
        <pt x="258" y="-10" on="0"/>
        <pt x="206" y="32" on="0"/>
        <pt x="196" y="58" on="1"/>
      </contour>
      <contour>
        <pt x="196" y="334" on="1"/>
        <pt x="196" y="137" on="1"/>
        <pt x="196" y="92" on="0"/>
        <pt x="240" y="22" on="0"/>
        <pt x="296" y="22" on="0"/>
        <pt x="318" y="66" on="0"/>
        <pt x="318" y="115" on="1"/>
        <pt x="318" y="356" on="1"/>
        <pt x="318" y="402" on="0"/>
        <pt x="297" y="450" on="0"/>
        <pt x="240" y="450" on="0"/>
        <pt x="196" y="376" on="0"/>
      </contour>
    </TTGlyph>
    <TTGlyph name="backslash" xMin="50" yMin="0" xMax="355" yMax="690">
      <contour>
        <pt x="50" y="690" on="1"/>
        <pt x="184" y="690" on="1"/>
        <pt x="355" y="0" on="1"/>
        <pt x="221" y="0" on="1"/>
      </contour>
    </TTGlyph>
    <TTGlyph name="bar" xMin="60" yMin="-145" xMax="196" yMax="690">
      <contour>
        <pt x="196" y="690" on="1"/>
        <pt x="196" y="-145" on="1"/>
        <pt x="60" y="-145" on="1"/>
        <pt x="60" y="690" on="1"/>
      </contour>
    </TTGlyph>
    <TTGlyph name="braceleft" xMin="60" yMin="-40" xMax="406" yMax="730">
      <contour>
        <pt x="406" y="700" on="1"/>
        <pt x="365" y="700" on="0"/>
        <pt x="328" y="652" on="0"/>
        <pt x="328" y="595" on="1"/>
        <pt x="328" y="499" on="1"/>
        <pt x="328" y="434" on="0"/>
        <pt x="297" y="407" on="1"/>
        <pt x="280" y="392" on="0"/>
        <pt x="246" y="375" on="0"/>
        <pt x="215" y="363" on="1"/>
        <pt x="328" y="321" on="0"/>
        <pt x="328" y="197" on="1"/>
        <pt x="328" y="95" on="1"/>
        <pt x="328" y="39" on="0"/>
        <pt x="365" y="-10" on="0"/>
        <pt x="406" y="-10" on="1"/>
        <pt x="406" y="-40" on="1"/>
        <pt x="276" y="-40" on="0"/>
        <pt x="168" y="45" on="0"/>
        <pt x="168" y="164" on="1"/>
        <pt x="168" y="189" on="1"/>
        <pt x="168" y="265" on="0"/>
        <pt x="121" y="348" on="0"/>
        <pt x="60" y="348" on="1"/>
        <pt x="60" y="378" on="1"/>
        <pt x="124" y="378" on="0"/>
        <pt x="168" y="436" on="0"/>
        <pt x="168" y="507" on="1"/>
        <pt x="168" y="527" on="1"/>
        <pt x="168" y="646" on="0"/>
        <pt x="276" y="730" on="0"/>
        <pt x="406" y="730" on="1"/>
      </contour>
    </TTGlyph>
    <TTGlyph name="braceright" xMin="20" yMin="-40" xMax="366" yMax="730">
      <contour>
        <pt x="20" y="700" on="1"/>
        <pt x="20" y="730" on="1"/>
        <pt x="150" y="730" on="0"/>
        <pt x="258" y="646" on="0"/>
        <pt x="258" y="527" on="1"/>
        <pt x="258" y="507" on="1"/>
        <pt x="258" y="436" on="0"/>
        <pt x="302" y="378" on="0"/>
        <pt x="366" y="378" on="1"/>
        <pt x="366" y="348" on="1"/>
        <pt x="305" y="348" on="0"/>
        <pt x="258" y="265" on="0"/>
        <pt x="258" y="189" on="1"/>
        <pt x="258" y="164" on="1"/>
        <pt x="258" y="45" on="0"/>
        <pt x="150" y="-40" on="0"/>
        <pt x="20" y="-40" on="1"/>
        <pt x="20" y="-10" on="1"/>
        <pt x="61" y="-10" on="0"/>
        <pt x="98" y="39" on="0"/>
        <pt x="98" y="95" on="1"/>
        <pt x="98" y="197" on="1"/>
        <pt x="98" y="321" on="0"/>
        <pt x="211" y="363" on="1"/>
        <pt x="180" y="375" on="0"/>
        <pt x="146" y="392" on="0"/>
        <pt x="129" y="407" on="1"/>
        <pt x="98" y="434" on="0"/>
        <pt x="98" y="499" on="1"/>
        <pt x="98" y="595" on="1"/>
        <pt x="98" y="652" on="0"/>
        <pt x="61" y="700" on="0"/>
      </contour>
    </TTGlyph>
    <TTGlyph name="bracketleft" xMin="60" yMin="-57" xMax="296" yMax="737">
      <contour>
        <pt x="196" y="-10" on="1"/>
        <pt x="296" y="-10" on="1"/>
        <pt x="296" y="-57" on="1"/>
        <pt x="60" y="-57" on="1"/>
        <pt x="60" y="737" on="1"/>
        <pt x="296" y="737" on="1"/>
        <pt x="296" y="690" on="1"/>
        <pt x="196" y="690" on="1"/>
      </contour>
    </TTGlyph>
    <TTGlyph name="bracketright" xMin="20" yMin="-57" xMax="256" yMax="737">
      <contour>
        <pt x="20" y="-10" on="1"/>
        <pt x="120" y="-10" on="1"/>
        <pt x="120" y="690" on="1"/>
        <pt x="20" y="690" on="1"/>
        <pt x="20" y="737" on="1"/>
        <pt x="256" y="737" on="1"/>
        <pt x="256" y="-57" on="1"/>
        <pt x="20" y="-57" on="1"/>
      </contour>
    </TTGlyph>
    <TTGlyph name="breve" xMin="35" yMin="545" xMax="321" yMax="665">
      <contour>
        <pt x="317" y="608" on="0"/>
        <pt x="243" y="545" on="0"/>
        <pt x="112" y="545" on="0"/>
        <pt x="38" y="608" on="0"/>
        <pt x="35" y="665" on="1"/>
        <pt x="100" y="665" on="1"/>
        <pt x="122" y="604" on="0"/>
        <pt x="237" y="604" on="0"/>
        <pt x="255" y="665" on="1"/>
        <pt x="321" y="665" on="1"/>
      </contour>
    </TTGlyph>
    <TTGlyph name="bullet" xMin="60" yMin="144" xMax="271" yMax="355">
      <contour>
        <pt x="271" y="293" on="0"/>
        <pt x="271" y="205" on="0"/>
        <pt x="209" y="144" on="0"/>
        <pt x="121" y="144" on="0"/>
        <pt x="60" y="205" on="0"/>
        <pt x="60" y="293" on="0"/>
        <pt x="121" y="355" on="0"/>
        <pt x="209" y="355" on="0"/>
      </contour>
    </TTGlyph>
    <TTGlyph name="c" xMin="50" yMin="-10" xMax="369" yMax="480">
      <contour>
        <pt x="369" y="122" on="1"/>
        <pt x="369" y="79" on="0"/>
        <pt x="299" y="-10" on="0"/>
        <pt x="237" y="-10" on="1"/>
        <pt x="155" y="-10" on="0"/>
        <pt x="50" y="83" on="0"/>
        <pt x="50" y="157" on="1"/>
        <pt x="50" y="313" on="1"/>
        <pt x="50" y="387" on="0"/>
        <pt x="156" y="480" on="0"/>
        <pt x="236" y="480" on="1"/>
        <pt x="267" y="480" on="0"/>
        <pt x="317" y="457" on="0"/>
        <pt x="345" y="425" on="0"/>
        <pt x="354" y="406" on="1"/>
        <pt x="369" y="373" on="0"/>
        <pt x="369" y="349" on="1"/>
        <pt x="339" y="349" on="1"/>
        <pt x="339" y="381" on="0"/>
        <pt x="290" y="450" on="0"/>
        <pt x="250" y="450" on="1"/>
        <pt x="187" y="450" on="0"/>
        <pt x="187" y="352" on="1"/>
        <pt x="187" y="118" on="1"/>
        <pt x="187" y="73" on="0"/>
        <pt x="221" y="20" on="0"/>
        <pt x="291" y="20" on="0"/>
        <pt x="339" y="97" on="0"/>
        <pt x="339" y="122" on="1"/>
      </contour>
    </TTGlyph>
    <TTGlyph name="caron" xMin="50" yMin="538" xMax="286" yMax="705">
      <contour>
        <pt x="229" y="578" on="1"/>
        <pt x="208" y="538" on="0"/>
        <pt x="131" y="538" on="0"/>
        <pt x="107" y="578" on="1"/>
        <pt x="50" y="687" on="1"/>
        <pt x="77" y="704" on="1"/>
        <pt x="168" y="608" on="1"/>
        <pt x="258" y="705" on="1"/>
        <pt x="286" y="687" on="1"/>
      </contour>
    </TTGlyph>
    <TTGlyph name="ccedilla" xMin="50" yMin="-160" xMax="369" yMax="480">
      <contour>
        <pt x="369" y="122" on="1"/>
        <pt x="369" y="90" on="0"/>
        <pt x="326" y="16" on="0"/>
        <pt x="287" y="0" on="1"/>
        <pt x="287" y="-68" on="0"/>
        <pt x="171" y="-160" on="1"/>
        <pt x="140" y="-136" on="1"/>
        <pt x="152" y="-121" on="0"/>
        <pt x="166" y="-62" on="0"/>
        <pt x="167" y="-19" on="1"/>
        <pt x="167" y="0" on="1"/>
        <pt x="113" y="17" on="0"/>
        <pt x="50" y="100" on="0"/>
        <pt x="50" y="157" on="1"/>
        <pt x="50" y="313" on="1"/>
        <pt x="50" y="387" on="0"/>
        <pt x="156" y="480" on="0"/>
        <pt x="236" y="480" on="1"/>
        <pt x="267" y="480" on="0"/>
        <pt x="317" y="457" on="0"/>
        <pt x="345" y="425" on="0"/>
        <pt x="354" y="406" on="1"/>
        <pt x="369" y="373" on="0"/>
        <pt x="369" y="349" on="1"/>
        <pt x="339" y="349" on="1"/>
        <pt x="339" y="381" on="0"/>
        <pt x="290" y="450" on="0"/>
        <pt x="250" y="450" on="1"/>
        <pt x="187" y="450" on="0"/>
        <pt x="187" y="352" on="1"/>
        <pt x="187" y="118" on="1"/>
        <pt x="187" y="73" on="0"/>
        <pt x="221" y="20" on="0"/>
        <pt x="291" y="20" on="0"/>
        <pt x="339" y="97" on="0"/>
        <pt x="339" y="122" on="1"/>
      </contour>
    </TTGlyph>
    <TTGlyph name="cedilla" xMin="50" yMin="-160" xMax="197" yMax="0">
      <contour>
        <pt x="197" y="0" on="1"/>
        <pt x="197" y="-69" on="0"/>
        <pt x="81" y="-160" on="1"/>
        <pt x="50" y="-136" on="1"/>
        <pt x="62" y="-121" on="0"/>
        <pt x="76" y="-62" on="0"/>
        <pt x="77" y="-19" on="1"/>
        <pt x="77" y="0" on="1"/>
      </contour>
    </TTGlyph>
    <TTGlyph name="cent" xMin="60" yMin="-59" xMax="379" yMax="529">
      <contour>
        <pt x="283" y="529" on="1"/>
        <pt x="283" y="475" on="1"/>
        <pt x="319" y="466" on="0"/>
        <pt x="342" y="438" on="1"/>
        <pt x="379" y="393" on="0"/>
        <pt x="379" y="349" on="1"/>
        <pt x="349" y="349" on="1"/>
        <pt x="349" y="375" on="0"/>
        <pt x="313" y="436" on="0"/>
        <pt x="283" y="446" on="1"/>
        <pt x="283" y="23" on="1"/>
        <pt x="313" y="34" on="0"/>
        <pt x="349" y="102" on="0"/>
        <pt x="349" y="122" on="1"/>
        <pt x="379" y="122" on="1"/>
        <pt x="379" y="86" on="0"/>
        <pt x="328" y="7" on="0"/>
        <pt x="283" y="-5" on="1"/>
        <pt x="283" y="-59" on="1"/>
        <pt x="253" y="-59" on="1"/>
        <pt x="253" y="-10" on="1"/>
        <pt x="247" y="-10" on="1"/>
        <pt x="165" y="-10" on="0"/>
        <pt x="60" y="83" on="0"/>
        <pt x="60" y="157" on="1"/>
        <pt x="60" y="313" on="1"/>
        <pt x="60" y="387" on="0"/>
        <pt x="166" y="480" on="0"/>
        <pt x="246" y="480" on="1"/>
        <pt x="253" y="480" on="1"/>
        <pt x="253" y="529" on="1"/>
      </contour>
      <contour>
        <pt x="197" y="118" on="1"/>
        <pt x="197" y="77" on="0"/>
        <pt x="227" y="24" on="0"/>
        <pt x="253" y="20" on="1"/>
        <pt x="253" y="449" on="1"/>
        <pt x="197" y="444" on="0"/>
        <pt x="197" y="352" on="1"/>
      </contour>
    </TTGlyph>
    <TTGlyph name="circumflex" xMin="60" yMin="533" xMax="296" yMax="700">
      <contour>
        <pt x="117" y="660" on="1"/>
        <pt x="141" y="700" on="0"/>
        <pt x="218" y="700" on="0"/>
        <pt x="239" y="660" on="1"/>
        <pt x="296" y="551" on="1"/>
        <pt x="268" y="533" on="1"/>
        <pt x="178" y="630" on="1"/>
        <pt x="87" y="534" on="1"/>
        <pt x="60" y="551" on="1"/>
      </contour>
    </TTGlyph>
    <TTGlyph name="colon" xMin="50" yMin="-10" xMax="168" yMax="416">
      <contour>
        <pt x="50" y="25" on="0"/>
        <pt x="50" y="71" on="0"/>
        <pt x="82" y="106" on="0"/>
        <pt x="136" y="106" on="0"/>
        <pt x="168" y="71" on="0"/>
        <pt x="168" y="25" on="0"/>
        <pt x="136" y="-10" on="0"/>
        <pt x="82" y="-10" on="0"/>
      </contour>
      <contour>
        <pt x="50" y="335" on="0"/>
        <pt x="50" y="381" on="0"/>
        <pt x="82" y="416" on="0"/>
        <pt x="136" y="416" on="0"/>
        <pt x="168" y="381" on="0"/>
        <pt x="168" y="335" on="0"/>
        <pt x="136" y="300" on="0"/>
        <pt x="82" y="300" on="0"/>
      </contour>
    </TTGlyph>
    <TTGlyph name="comma" xMin="35" yMin="-109" xMax="172" yMax="110">
      <contour>
        <pt x="172" y="110" on="1"/>
        <pt x="172" y="40" on="0"/>
        <pt x="128" y="-60" on="0"/>
        <pt x="66" y="-109" on="1"/>
        <pt x="35" y="-86" on="1"/>
        <pt x="47" y="-71" on="0"/>
        <pt x="60" y="-2" on="0"/>
        <pt x="62" y="51" on="1"/>
        <pt x="62" y="110" on="1"/>
      </contour>
    </TTGlyph>
    <TTGlyph name="copyright" xMin="100" yMin="0" xMax="910" yMax="690">
      <contour>
        <pt x="676" y="224" on="1"/>
        <pt x="676" y="181" on="0"/>
        <pt x="646" y="152" on="1"/>
        <pt x="595" y="100" on="0"/>
        <pt x="433" y="100" on="0"/>
        <pt x="332" y="193" on="0"/>
        <pt x="332" y="261" on="1"/>
        <pt x="332" y="414" on="1"/>
        <pt x="332" y="482" on="0"/>
        <pt x="433" y="575" on="0"/>
        <pt x="574" y="575" on="0"/>
        <pt x="676" y="509" on="0"/>
        <pt x="676" y="452" on="1"/>
        <pt x="676" y="444" on="1"/>
        <pt x="574" y="444" on="1"/>
        <pt x="574" y="458" on="1"/>
        <pt x="574" y="553" on="0"/>
        <pt x="448" y="553" on="0"/>
        <pt x="448" y="458" on="1"/>
        <pt x="448" y="217" on="1"/>
        <pt x="448" y="122" on="0"/>
        <pt x="574" y="122" on="0"/>
        <pt x="574" y="217" on="1"/>
        <pt x="574" y="230" on="1"/>
        <pt x="676" y="230" on="1"/>
      </contour>
      <contour>
        <pt x="910" y="270" on="1"/>
        <pt x="910" y="146" on="0"/>
        <pt x="775" y="0" on="0"/>
        <pt x="647" y="0" on="1"/>
        <pt x="363" y="0" on="1"/>
        <pt x="234" y="0" on="0"/>
        <pt x="100" y="146" on="0"/>
        <pt x="100" y="270" on="1"/>
        <pt x="100" y="418" on="1"/>
        <pt x="100" y="543" on="0"/>
        <pt x="235" y="690" on="0"/>
        <pt x="363" y="690" on="1"/>
        <pt x="647" y="690" on="1"/>
        <pt x="775" y="690" on="0"/>
        <pt x="910" y="542" on="0"/>
        <pt x="910" y="418" on="1"/>
      </contour>
      <contour>
        <pt x="750" y="192" on="1"/>
        <pt x="750" y="497" on="1"/>
        <pt x="750" y="568" on="0"/>
        <pt x="698" y="655" on="0"/>
        <pt x="647" y="655" on="1"/>
        <pt x="363" y="655" on="1"/>
        <pt x="311" y="655" on="0"/>
        <pt x="259" y="568" on="0"/>
        <pt x="259" y="497" on="1"/>
        <pt x="259" y="192" on="1"/>
        <pt x="259" y="121" on="0"/>
        <pt x="311" y="35" on="0"/>
        <pt x="363" y="35" on="1"/>
        <pt x="647" y="35" on="1"/>
        <pt x="698" y="35" on="0"/>
        <pt x="750" y="121" on="0"/>
      </contour>
    </TTGlyph>
    <TTGlyph name="d" xMin="50" yMin="-10" xMax="445" yMax="690">
      <contour>
        <pt x="445" y="0" on="1"/>
        <pt x="309" y="0" on="1"/>
        <pt x="309" y="58" on="1"/>
        <pt x="299" y="32" on="0"/>
        <pt x="247" y="-10" on="0"/>
        <pt x="211" y="-10" on="1"/>
        <pt x="133" y="-10" on="0"/>
        <pt x="50" y="75" on="0"/>
        <pt x="50" y="149" on="1"/>
        <pt x="50" y="322" on="1"/>
        <pt x="50" y="394" on="0"/>
        <pt x="139" y="480" on="0"/>
        <pt x="211" y="480" on="1"/>
        <pt x="250" y="480" on="0"/>
        <pt x="303" y="438" on="0"/>
        <pt x="309" y="414" on="1"/>
        <pt x="309" y="690" on="1"/>
        <pt x="445" y="690" on="1"/>
      </contour>
      <contour>
        <pt x="309" y="334" on="1"/>
        <pt x="309" y="376" on="0"/>
        <pt x="265" y="450" on="0"/>
        <pt x="208" y="450" on="0"/>
        <pt x="187" y="402" on="0"/>
        <pt x="187" y="356" on="1"/>
        <pt x="187" y="115" on="1"/>
        <pt x="187" y="66" on="0"/>
        <pt x="209" y="22" on="0"/>
        <pt x="265" y="22" on="0"/>
        <pt x="309" y="92" on="0"/>
        <pt x="309" y="137" on="1"/>
      </contour>
    </TTGlyph>
    <TTGlyph name="dagger" xMin="60" yMin="0" xMax="480" yMax="690">
      <contour>
        <pt x="480" y="554" on="1"/>
        <pt x="349" y="554" on="1"/>
        <pt x="349" y="0" on="1"/>
        <pt x="190" y="0" on="1"/>
        <pt x="190" y="554" on="1"/>
        <pt x="60" y="554" on="1"/>
        <pt x="60" y="619" on="1"/>
        <pt x="190" y="619" on="1"/>
        <pt x="190" y="690" on="1"/>
        <pt x="349" y="690" on="1"/>
        <pt x="349" y="619" on="1"/>
        <pt x="480" y="619" on="1"/>
      </contour>
    </TTGlyph>
    <TTGlyph name="daggerdbl" xMin="60" yMin="0" xMax="430" yMax="690">
      <contour>
        <pt x="299" y="0" on="1"/>
        <pt x="190" y="0" on="1"/>
        <pt x="190" y="424" on="1"/>
        <pt x="60" y="424" on="1"/>
        <pt x="60" y="489" on="1"/>
        <pt x="190" y="489" on="1"/>
        <pt x="190" y="554" on="1"/>
        <pt x="60" y="554" on="1"/>
        <pt x="60" y="619" on="1"/>
        <pt x="190" y="619" on="1"/>
        <pt x="190" y="690" on="1"/>
        <pt x="299" y="690" on="1"/>
        <pt x="299" y="619" on="1"/>
        <pt x="430" y="619" on="1"/>
        <pt x="430" y="554" on="1"/>
        <pt x="299" y="554" on="1"/>
        <pt x="299" y="489" on="1"/>
        <pt x="430" y="489" on="1"/>
        <pt x="430" y="424" on="1"/>
        <pt x="299" y="424" on="1"/>
      </contour>
    </TTGlyph>
    <TTGlyph name="degree" xMin="60" yMin="432" xMax="365" yMax="700">
      <contour>
        <pt x="277" y="700" on="0"/>
        <pt x="365" y="624" on="0"/>
        <pt x="365" y="507" on="0"/>
        <pt x="278" y="432" on="0"/>
        <pt x="148" y="432" on="0"/>
        <pt x="60" y="506" on="0"/>
        <pt x="60" y="624" on="0"/>
        <pt x="148" y="700" on="0"/>
      </contour>
      <contour>
        <pt x="278" y="530" on="0"/>
        <pt x="278" y="600" on="0"/>
        <pt x="241" y="649" on="0"/>
        <pt x="185" y="649" on="0"/>
        <pt x="147" y="600" on="0"/>
        <pt x="147" y="530" on="0"/>
        <pt x="185" y="483" on="0"/>
        <pt x="241" y="483" on="0"/>
      </contour>
    </TTGlyph>
    <TTGlyph name="dieresis" xMin="60" yMin="568" xMax="360" yMax="676">
      <contour>
        <pt x="328" y="676" on="0"/>
        <pt x="360" y="646" on="0"/>
        <pt x="360" y="599" on="0"/>
        <pt x="328" y="568" on="0"/>
        <pt x="274" y="568" on="0"/>
        <pt x="242" y="599" on="0"/>
        <pt x="242" y="646" on="0"/>
        <pt x="274" y="676" on="0"/>
      </contour>
      <contour>
        <pt x="146" y="676" on="0"/>
        <pt x="178" y="646" on="0"/>
        <pt x="178" y="599" on="0"/>
        <pt x="146" y="568" on="0"/>
        <pt x="92" y="568" on="0"/>
        <pt x="60" y="599" on="0"/>
        <pt x="60" y="646" on="0"/>
        <pt x="92" y="676" on="0"/>
      </contour>
    </TTGlyph>
    <TTGlyph name="dollar" xMin="60" yMin="-55" xMax="581" yMax="755">
      <contour>
        <pt x="311" y="-55" on="1"/>
        <pt x="311" y="-10" on="1"/>
        <pt x="308" y="-10" on="1"/>
        <pt x="208" y="-10" on="0"/>
        <pt x="60" y="95" on="0"/>
        <pt x="60" y="193" on="1"/>
        <pt x="60" y="204" on="1"/>
        <pt x="187" y="204" on="1"/>
        <pt x="187" y="182" on="1"/>
        <pt x="187" y="117" on="0"/>
        <pt x="259" y="28" on="0"/>
        <pt x="311" y="26" on="1"/>
        <pt x="311" y="280" on="1"/>
        <pt x="168" y="367" on="1"/>
        <pt x="85" y="417" on="0"/>
        <pt x="85" y="507" on="1"/>
        <pt x="85" y="579" on="0"/>
        <pt x="214" y="696" on="0"/>
        <pt x="311" y="700" on="1"/>
        <pt x="311" y="755" on="1"/>
        <pt x="351" y="755" on="1"/>
        <pt x="351" y="698" on="1"/>
        <pt x="395" y="694" on="0"/>
        <pt x="463" y="660" on="0"/>
        <pt x="480" y="638" on="1"/>
        <pt x="512" y="596" on="0"/>
        <pt x="512" y="569" on="1"/>
        <pt x="512" y="563" on="1"/>
        <pt x="478" y="563" on="1"/>
        <pt x="478" y="597" on="0"/>
        <pt x="403" y="664" on="0"/>
        <pt x="351" y="665" on="1"/>
        <pt x="351" y="419" on="1"/>
        <pt x="504" y="325" on="1"/>
        <pt x="581" y="276" on="0"/>
        <pt x="581" y="193" on="1"/>
        <pt x="581" y="123" on="0"/>
        <pt x="444" y="6" on="0"/>
        <pt x="351" y="-7" on="1"/>
        <pt x="351" y="-55" on="1"/>
      </contour>
      <contour>
        <pt x="392" y="41" on="0"/>
        <pt x="438" y="106" on="0"/>
        <pt x="438" y="202" on="0"/>
        <pt x="368" y="245" on="1"/>
        <pt x="351" y="255" on="1"/>
        <pt x="351" y="30" on="1"/>
      </contour>
      <contour>
        <pt x="271" y="649" on="0"/>
        <pt x="220" y="589" on="0"/>
        <pt x="220" y="516" on="0"/>
        <pt x="242" y="494" on="1"/>
        <pt x="259" y="476" on="0"/>
        <pt x="311" y="443" on="1"/>
        <pt x="311" y="660" on="1"/>
      </contour>
    </TTGlyph>
    <TTGlyph name="dotaccent" xMin="50" yMin="569" xMax="188" yMax="675">
      <contour>
        <pt x="50" y="600" on="0"/>
        <pt x="50" y="644" on="0"/>
        <pt x="91" y="675" on="0"/>
        <pt x="147" y="675" on="0"/>
        <pt x="188" y="644" on="0"/>
        <pt x="188" y="600" on="0"/>
        <pt x="147" y="569" on="0"/>
        <pt x="91" y="569" on="0"/>
      </contour>
    </TTGlyph>
    <TTGlyph name="dotlessi" xMin="60" yMin="-10" xMax="270" yMax="470">
      <contour>
        <pt x="219" y="40" on="1"/>
        <pt x="239" y="40" on="0"/>
        <pt x="251" y="72" on="1"/>
        <pt x="270" y="69" on="1"/>
        <pt x="270" y="59" on="0"/>
        <pt x="255" y="28" on="0"/>
        <pt x="245" y="18" on="1"/>
        <pt x="219" y="-10" on="0"/>
        <pt x="167" y="-10" on="1"/>
        <pt x="60" y="-10" on="0"/>
        <pt x="60" y="89" on="1"/>
        <pt x="60" y="470" on="1"/>
        <pt x="196" y="470" on="1"/>
        <pt x="196" y="74" on="1"/>
        <pt x="196" y="40" on="0"/>
      </contour>
    </TTGlyph>
    <TTGlyph name="e" xMin="50" yMin="-10" xMax="416" yMax="480">
      <contour>
        <pt x="416" y="232" on="1"/>
        <pt x="186" y="232" on="1"/>
        <pt x="186" y="118" on="1"/>
        <pt x="186" y="20" on="0"/>
        <pt x="266" y="20" on="1"/>
        <pt x="313" y="20" on="0"/>
        <pt x="377" y="91" on="0"/>
        <pt x="377" y="115" on="1"/>
        <pt x="401" y="115" on="1"/>
        <pt x="401" y="80" on="0"/>
        <pt x="322" y="-10" on="0"/>
        <pt x="150" y="-10" on="0"/>
        <pt x="50" y="86" on="0"/>
        <pt x="50" y="157" on="1"/>
        <pt x="50" y="314" on="1"/>
        <pt x="50" y="385" on="0"/>
        <pt x="156" y="480" on="0"/>
        <pt x="330" y="480" on="0"/>
        <pt x="416" y="381" on="0"/>
        <pt x="416" y="311" on="1"/>
      </contour>
      <contour>
        <pt x="309" y="262" on="1"/>
        <pt x="309" y="353" on="1"/>
        <pt x="309" y="399" on="0"/>
        <pt x="278" y="450" on="0"/>
        <pt x="216" y="450" on="0"/>
        <pt x="186" y="393" on="0"/>
        <pt x="186" y="353" on="1"/>
        <pt x="186" y="262" on="1"/>
      </contour>
    </TTGlyph>
    <TTGlyph name="eacute" xMin="50" yMin="-10" xMax="416" yMax="734">
      <contour>
        <pt x="416" y="232" on="1"/>
        <pt x="186" y="232" on="1"/>
        <pt x="186" y="118" on="1"/>
        <pt x="186" y="20" on="0"/>
        <pt x="266" y="20" on="1"/>
        <pt x="313" y="20" on="0"/>
        <pt x="377" y="91" on="0"/>
        <pt x="377" y="115" on="1"/>
        <pt x="401" y="115" on="1"/>
        <pt x="401" y="80" on="0"/>
        <pt x="322" y="-10" on="0"/>
        <pt x="150" y="-10" on="0"/>
        <pt x="50" y="86" on="0"/>
        <pt x="50" y="157" on="1"/>
        <pt x="50" y="314" on="1"/>
        <pt x="50" y="385" on="0"/>
        <pt x="156" y="480" on="0"/>
        <pt x="330" y="480" on="0"/>
        <pt x="416" y="381" on="0"/>
        <pt x="416" y="311" on="1"/>
      </contour>
      <contour>
        <pt x="309" y="262" on="1"/>
        <pt x="309" y="353" on="1"/>
        <pt x="309" y="399" on="0"/>
        <pt x="278" y="450" on="0"/>
        <pt x="216" y="450" on="0"/>
        <pt x="186" y="393" on="0"/>
        <pt x="186" y="353" on="1"/>
        <pt x="186" y="262" on="1"/>
      </contour>
      <contour>
        <pt x="353" y="734" on="0"/>
        <pt x="386" y="702" on="0"/>
        <pt x="386" y="664" on="0"/>
        <pt x="372" y="653" on="1"/>
        <pt x="226" y="526" on="1"/>
        <pt x="205" y="543" on="1"/>
        <pt x="298" y="714" on="1"/>
        <pt x="309" y="734" on="0"/>
      </contour>
    </TTGlyph>
    <TTGlyph name="ecircumflex" xMin="50" yMin="-10" xMax="416" yMax="700">
      <contour>
        <pt x="416" y="232" on="1"/>
        <pt x="186" y="232" on="1"/>
        <pt x="186" y="118" on="1"/>
        <pt x="186" y="20" on="0"/>
        <pt x="266" y="20" on="1"/>
        <pt x="313" y="20" on="0"/>
        <pt x="377" y="91" on="0"/>
        <pt x="377" y="115" on="1"/>
        <pt x="401" y="115" on="1"/>
        <pt x="401" y="80" on="0"/>
        <pt x="322" y="-10" on="0"/>
        <pt x="150" y="-10" on="0"/>
        <pt x="50" y="86" on="0"/>
        <pt x="50" y="157" on="1"/>
        <pt x="50" y="314" on="1"/>
        <pt x="50" y="385" on="0"/>
        <pt x="156" y="480" on="0"/>
        <pt x="330" y="480" on="0"/>
        <pt x="416" y="381" on="0"/>
        <pt x="416" y="311" on="1"/>
      </contour>
      <contour>
        <pt x="309" y="262" on="1"/>
        <pt x="309" y="353" on="1"/>
        <pt x="309" y="399" on="0"/>
        <pt x="278" y="450" on="0"/>
        <pt x="216" y="450" on="0"/>
        <pt x="186" y="393" on="0"/>
        <pt x="186" y="353" on="1"/>
        <pt x="186" y="262" on="1"/>
      </contour>
      <contour>
        <pt x="181" y="660" on="1"/>
        <pt x="205" y="700" on="0"/>
        <pt x="282" y="700" on="0"/>
        <pt x="303" y="660" on="1"/>
        <pt x="360" y="551" on="1"/>
        <pt x="332" y="533" on="1"/>
        <pt x="242" y="630" on="1"/>
        <pt x="151" y="534" on="1"/>
        <pt x="124" y="551" on="1"/>
      </contour>
    </TTGlyph>
    <TTGlyph name="edieresis" xMin="50" yMin="-10" xMax="416" yMax="676">
      <contour>
        <pt x="416" y="232" on="1"/>
        <pt x="186" y="232" on="1"/>
        <pt x="186" y="118" on="1"/>
        <pt x="186" y="20" on="0"/>
        <pt x="266" y="20" on="1"/>
        <pt x="313" y="20" on="0"/>
        <pt x="377" y="91" on="0"/>
        <pt x="377" y="115" on="1"/>
        <pt x="401" y="115" on="1"/>
        <pt x="401" y="80" on="0"/>
        <pt x="322" y="-10" on="0"/>
        <pt x="150" y="-10" on="0"/>
        <pt x="50" y="86" on="0"/>
        <pt x="50" y="157" on="1"/>
        <pt x="50" y="314" on="1"/>
        <pt x="50" y="385" on="0"/>
        <pt x="156" y="480" on="0"/>
        <pt x="330" y="480" on="0"/>
        <pt x="416" y="381" on="0"/>
        <pt x="416" y="311" on="1"/>
      </contour>
      <contour>
        <pt x="309" y="262" on="1"/>
        <pt x="309" y="353" on="1"/>
        <pt x="309" y="399" on="0"/>
        <pt x="278" y="450" on="0"/>
        <pt x="216" y="450" on="0"/>
        <pt x="186" y="393" on="0"/>
        <pt x="186" y="353" on="1"/>
        <pt x="186" y="262" on="1"/>
      </contour>
      <contour>
        <pt x="358" y="676" on="0"/>
        <pt x="390" y="646" on="0"/>
        <pt x="390" y="599" on="0"/>
        <pt x="358" y="568" on="0"/>
        <pt x="304" y="568" on="0"/>
        <pt x="272" y="599" on="0"/>
        <pt x="272" y="646" on="0"/>
        <pt x="304" y="676" on="0"/>
      </contour>
      <contour>
        <pt x="176" y="676" on="0"/>
        <pt x="208" y="646" on="0"/>
        <pt x="208" y="599" on="0"/>
        <pt x="176" y="568" on="0"/>
        <pt x="122" y="568" on="0"/>
        <pt x="90" y="599" on="0"/>
        <pt x="90" y="646" on="0"/>
        <pt x="122" y="676" on="0"/>
      </contour>
    </TTGlyph>
    <TTGlyph name="egrave" xMin="50" yMin="-10" xMax="416" yMax="734">
      <contour>
        <pt x="416" y="232" on="1"/>
        <pt x="186" y="232" on="1"/>
        <pt x="186" y="118" on="1"/>
        <pt x="186" y="20" on="0"/>
        <pt x="266" y="20" on="1"/>
        <pt x="313" y="20" on="0"/>
        <pt x="377" y="91" on="0"/>
        <pt x="377" y="115" on="1"/>
        <pt x="401" y="115" on="1"/>
        <pt x="401" y="80" on="0"/>
        <pt x="322" y="-10" on="0"/>
        <pt x="150" y="-10" on="0"/>
        <pt x="50" y="86" on="0"/>
        <pt x="50" y="157" on="1"/>
        <pt x="50" y="314" on="1"/>
        <pt x="50" y="385" on="0"/>
        <pt x="156" y="480" on="0"/>
        <pt x="330" y="480" on="0"/>
        <pt x="416" y="381" on="0"/>
        <pt x="416" y="311" on="1"/>
      </contour>
      <contour>
        <pt x="309" y="262" on="1"/>
        <pt x="309" y="353" on="1"/>
        <pt x="309" y="399" on="0"/>
        <pt x="278" y="450" on="0"/>
        <pt x="216" y="450" on="0"/>
        <pt x="186" y="393" on="0"/>
        <pt x="186" y="353" on="1"/>
        <pt x="186" y="262" on="1"/>
      </contour>
      <contour>
        <pt x="123" y="653" on="1"/>
        <pt x="109" y="667" on="0"/>
        <pt x="109" y="702" on="0"/>
        <pt x="142" y="734" on="0"/>
        <pt x="186" y="734" on="0"/>
        <pt x="197" y="714" on="1"/>
        <pt x="290" y="543" on="1"/>
        <pt x="269" y="526" on="1"/>
      </contour>
    </TTGlyph>
    <TTGlyph name="eight" xMin="50" yMin="-10" xMax="512" yMax="700">
      <contour>
        <pt x="507" y="515" on="1"/>
        <pt x="507" y="468" on="0"/>
        <pt x="439" y="387" on="0"/>
        <pt x="383" y="365" on="1"/>
        <pt x="441" y="343" on="0"/>
        <pt x="512" y="261" on="0"/>
        <pt x="512" y="214" on="1"/>
        <pt x="512" y="157" on="1"/>
        <pt x="512" y="87" on="0"/>
        <pt x="377" y="-10" on="0"/>
        <pt x="185" y="-10" on="0"/>
        <pt x="50" y="87" on="0"/>
        <pt x="50" y="157" on="1"/>
        <pt x="50" y="214" on="1"/>
        <pt x="50" y="261" on="0"/>
        <pt x="120" y="343" on="0"/>
        <pt x="178" y="365" on="1"/>
        <pt x="122" y="387" on="0"/>
        <pt x="55" y="468" on="0"/>
        <pt x="55" y="515" on="1"/>
        <pt x="55" y="534" on="1"/>
        <pt x="55" y="604" on="0"/>
        <pt x="187" y="700" on="0"/>
        <pt x="375" y="700" on="0"/>
        <pt x="507" y="604" on="0"/>
        <pt x="507" y="534" on="1"/>
      </contour>
      <contour>
        <pt x="363" y="118" on="1"/>
        <pt x="363" y="253" on="1"/>
        <pt x="363" y="350" on="0"/>
        <pt x="198" y="350" on="0"/>
        <pt x="198" y="253" on="1"/>
        <pt x="198" y="118" on="1"/>
        <pt x="198" y="75" on="0"/>
        <pt x="238" y="20" on="0"/>
        <pt x="281" y="20" on="1"/>
        <pt x="363" y="20" on="0"/>
      </contour>
      <contour>
        <pt x="361" y="476" on="1"/>
        <pt x="361" y="573" on="1"/>
        <pt x="361" y="670" on="0"/>
        <pt x="200" y="670" on="0"/>
        <pt x="200" y="573" on="1"/>
        <pt x="200" y="476" on="1"/>
        <pt x="200" y="381" on="0"/>
        <pt x="274" y="380" on="1"/>
        <pt x="289" y="380" on="1"/>
        <pt x="361" y="381" on="0"/>
      </contour>
    </TTGlyph>
    <TTGlyph name="ellipsis" xMin="50" yMin="-10" xMax="520" yMax="96">
      <contour>
        <pt x="50" y="20" on="0"/>
        <pt x="50" y="66" on="0"/>
        <pt x="81" y="96" on="0"/>
        <pt x="137" y="96" on="0"/>
        <pt x="168" y="66" on="0"/>
        <pt x="168" y="20" on="0"/>
        <pt x="137" y="-10" on="0"/>
        <pt x="81" y="-10" on="0"/>
      </contour>
      <contour>
        <pt x="226" y="20" on="0"/>
        <pt x="226" y="66" on="0"/>
        <pt x="257" y="96" on="0"/>
        <pt x="313" y="96" on="0"/>
        <pt x="344" y="66" on="0"/>
        <pt x="344" y="20" on="0"/>
        <pt x="313" y="-10" on="0"/>
        <pt x="257" y="-10" on="0"/>
      </contour>
      <contour>
        <pt x="402" y="20" on="0"/>
        <pt x="402" y="66" on="0"/>
        <pt x="433" y="96" on="0"/>
        <pt x="489" y="96" on="0"/>
        <pt x="520" y="66" on="0"/>
        <pt x="520" y="20" on="0"/>
        <pt x="489" y="-10" on="0"/>
        <pt x="433" y="-10" on="0"/>
      </contour>
    </TTGlyph>
    <TTGlyph name="emdash" xMin="0" yMin="240" xMax="1000" yMax="300">
      <contour>
        <pt x="1000" y="240" on="1"/>
        <pt x="0" y="240" on="1"/>
        <pt x="0" y="300" on="1"/>
        <pt x="1000" y="300" on="1"/>
      </contour>
    </TTGlyph>
    <TTGlyph name="endash" xMin="0" yMin="240" xMax="500" yMax="300">
      <contour>
        <pt x="500" y="240" on="1"/>
        <pt x="0" y="240" on="1"/>
        <pt x="0" y="300" on="1"/>
        <pt x="500" y="300" on="1"/>
      </contour>
    </TTGlyph>
    <TTGlyph name="equal" xMin="50" yMin="150" xMax="450" yMax="350">
      <contour>
        <pt x="450" y="290" on="1"/>
        <pt x="50" y="290" on="1"/>
        <pt x="50" y="350" on="1"/>
        <pt x="450" y="350" on="1"/>
      </contour>
      <contour>
        <pt x="450" y="150" on="1"/>
        <pt x="50" y="150" on="1"/>
        <pt x="50" y="210" on="1"/>
        <pt x="450" y="210" on="1"/>
      </contour>
    </TTGlyph>
    <TTGlyph name="eth" xMin="50" yMin="-10" xMax="509" yMax="690">
      <contour>
        <pt x="169" y="560" on="1"/>
        <pt x="169" y="625" on="1"/>
        <pt x="309" y="625" on="1"/>
        <pt x="309" y="690" on="1"/>
        <pt x="445" y="690" on="1"/>
        <pt x="445" y="625" on="1"/>
        <pt x="509" y="625" on="1"/>
        <pt x="509" y="560" on="1"/>
        <pt x="445" y="560" on="1"/>
        <pt x="445" y="0" on="1"/>
        <pt x="309" y="0" on="1"/>
        <pt x="309" y="58" on="1"/>
        <pt x="299" y="32" on="0"/>
        <pt x="247" y="-10" on="0"/>
        <pt x="211" y="-10" on="1"/>
        <pt x="133" y="-10" on="0"/>
        <pt x="50" y="75" on="0"/>
        <pt x="50" y="149" on="1"/>
        <pt x="50" y="322" on="1"/>
        <pt x="50" y="394" on="0"/>
        <pt x="139" y="480" on="0"/>
        <pt x="211" y="480" on="1"/>
        <pt x="250" y="480" on="0"/>
        <pt x="303" y="438" on="0"/>
        <pt x="309" y="414" on="1"/>
        <pt x="309" y="560" on="1"/>
      </contour>
      <contour>
        <pt x="309" y="334" on="1"/>
        <pt x="309" y="376" on="0"/>
        <pt x="265" y="450" on="0"/>
        <pt x="208" y="450" on="0"/>
        <pt x="187" y="402" on="0"/>
        <pt x="187" y="356" on="1"/>
        <pt x="187" y="115" on="1"/>
        <pt x="187" y="66" on="0"/>
        <pt x="209" y="22" on="0"/>
        <pt x="265" y="22" on="0"/>
        <pt x="309" y="92" on="0"/>
        <pt x="309" y="137" on="1"/>
      </contour>
    </TTGlyph>
    <TTGlyph name="exclam" xMin="60" yMin="-10" xMax="209" yMax="700">
      <contour>
        <pt x="60" y="670" on="0"/>
        <pt x="106" y="700" on="0"/>
        <pt x="163" y="700" on="0"/>
        <pt x="209" y="671" on="0"/>
        <pt x="209" y="646" on="1"/>
        <pt x="168" y="154" on="1"/>
        <pt x="101" y="154" on="1"/>
        <pt x="60" y="646" on="1"/>
      </contour>
      <contour>
        <pt x="75" y="20" on="0"/>
        <pt x="75" y="66" on="0"/>
        <pt x="106" y="96" on="0"/>
        <pt x="162" y="96" on="0"/>
        <pt x="193" y="66" on="0"/>
        <pt x="193" y="20" on="0"/>
        <pt x="162" y="-10" on="0"/>
        <pt x="106" y="-10" on="0"/>
      </contour>
    </TTGlyph>
    <TTGlyph name="exclamdown" xMin="60" yMin="-145" xMax="209" yMax="565">
      <contour>
        <pt x="209" y="-116" on="0"/>
        <pt x="163" y="-145" on="0"/>
        <pt x="106" y="-145" on="0"/>
        <pt x="60" y="-115" on="0"/>
        <pt x="60" y="-91" on="1"/>
        <pt x="101" y="401" on="1"/>
        <pt x="168" y="401" on="1"/>
        <pt x="209" y="-91" on="1"/>
      </contour>
      <contour>
        <pt x="75" y="489" on="0"/>
        <pt x="75" y="535" on="0"/>
        <pt x="106" y="565" on="0"/>
        <pt x="162" y="565" on="0"/>
        <pt x="193" y="535" on="0"/>
        <pt x="193" y="489" on="0"/>
        <pt x="162" y="459" on="0"/>
        <pt x="106" y="459" on="0"/>
      </contour>
    </TTGlyph>
    <TTGlyph name="f" xMin="40" yMin="0" xMax="333" yMax="720">
      <contour>
        <pt x="294" y="300" on="1"/>
        <pt x="294" y="270" on="1"/>
        <pt x="209" y="270" on="1"/>
        <pt x="209" y="0" on="1"/>
        <pt x="73" y="0" on="1"/>
        <pt x="73" y="270" on="1"/>
        <pt x="40" y="270" on="1"/>
        <pt x="40" y="300" on="1"/>
        <pt x="73" y="300" on="1"/>
        <pt x="73" y="533" on="1"/>
        <pt x="73" y="610" on="0"/>
        <pt x="148" y="700" on="0"/>
        <pt x="219" y="700" on="1"/>
        <pt x="256" y="700" on="0"/>
        <pt x="303" y="666" on="0"/>
        <pt x="310" y="646" on="1"/>
        <pt x="310" y="720" on="1"/>
        <pt x="333" y="720" on="1"/>
        <pt x="333" y="515" on="1"/>
        <pt x="310" y="515" on="1"/>
        <pt x="310" y="554" on="1"/>
        <pt x="310" y="604" on="0"/>
        <pt x="272" y="665" on="0"/>
        <pt x="247" y="665" on="1"/>
        <pt x="209" y="665" on="0"/>
        <pt x="209" y="587" on="1"/>
        <pt x="209" y="300" on="1"/>
      </contour>
    </TTGlyph>
    <TTGlyph name="ff" xMin="40" yMin="0" xMax="637" yMax="720">
      <contour>
        <pt x="637" y="515" on="1"/>
        <pt x="614" y="515" on="1"/>
        <pt x="614" y="554" on="1"/>
        <pt x="614" y="604" on="0"/>
        <pt x="576" y="665" on="0"/>
        <pt x="551" y="665" on="1"/>
        <pt x="513" y="665" on="0"/>
        <pt x="513" y="587" on="1"/>
        <pt x="513" y="300" on="1"/>
        <pt x="598" y="300" on="1"/>
        <pt x="598" y="270" on="1"/>
        <pt x="513" y="270" on="1"/>
        <pt x="513" y="0" on="1"/>
        <pt x="377" y="0" on="1"/>
        <pt x="377" y="270" on="1"/>
        <pt x="209" y="270" on="1"/>
        <pt x="209" y="0" on="1"/>
        <pt x="73" y="0" on="1"/>
        <pt x="73" y="270" on="1"/>
        <pt x="40" y="270" on="1"/>
        <pt x="40" y="300" on="1"/>
        <pt x="73" y="300" on="1"/>
        <pt x="73" y="533" on="1"/>
        <pt x="73" y="610" on="0"/>
        <pt x="148" y="700" on="0"/>
        <pt x="219" y="700" on="1"/>
        <pt x="256" y="700" on="0"/>
        <pt x="303" y="666" on="0"/>
        <pt x="310" y="646" on="1"/>
        <pt x="310" y="720" on="1"/>
        <pt x="333" y="720" on="1"/>
        <pt x="333" y="515" on="1"/>
        <pt x="310" y="515" on="1"/>
        <pt x="310" y="554" on="1"/>
        <pt x="310" y="604" on="0"/>
        <pt x="272" y="665" on="0"/>
        <pt x="247" y="665" on="1"/>
        <pt x="209" y="665" on="0"/>
        <pt x="209" y="587" on="1"/>
        <pt x="209" y="300" on="1"/>
        <pt x="377" y="300" on="1"/>
        <pt x="377" y="533" on="1"/>
        <pt x="377" y="610" on="0"/>
        <pt x="452" y="700" on="0"/>
        <pt x="523" y="700" on="1"/>
        <pt x="560" y="700" on="0"/>
        <pt x="607" y="666" on="0"/>
        <pt x="614" y="646" on="1"/>
        <pt x="614" y="720" on="1"/>
        <pt x="637" y="720" on="1"/>
      </contour>
    </TTGlyph>
    <TTGlyph name="fi" xMin="40" yMin="-10" xMax="567" yMax="720">
      <contour>
        <pt x="380" y="545" on="1"/>
        <pt x="358" y="545" on="1"/>
        <pt x="358" y="554" on="1"/>
        <pt x="358" y="601" on="0"/>
        <pt x="310" y="665" on="0"/>
        <pt x="247" y="665" on="0"/>
        <pt x="209" y="622" on="0"/>
        <pt x="209" y="587" on="1"/>
        <pt x="209" y="300" on="1"/>
        <pt x="294" y="300" on="1"/>
        <pt x="294" y="270" on="1"/>
        <pt x="209" y="270" on="1"/>
        <pt x="209" y="0" on="1"/>
        <pt x="73" y="0" on="1"/>
        <pt x="73" y="270" on="1"/>
        <pt x="40" y="270" on="1"/>
        <pt x="40" y="300" on="1"/>
        <pt x="73" y="300" on="1"/>
        <pt x="73" y="533" on="1"/>
        <pt x="73" y="608" on="0"/>
        <pt x="174" y="700" on="0"/>
        <pt x="251" y="700" on="1"/>
        <pt x="297" y="700" on="0"/>
        <pt x="352" y="655" on="0"/>
        <pt x="358" y="633" on="1"/>
        <pt x="358" y="720" on="1"/>
        <pt x="380" y="720" on="1"/>
      </contour>
      <contour>
        <pt x="516" y="40" on="1"/>
        <pt x="536" y="40" on="0"/>
        <pt x="548" y="72" on="1"/>
        <pt x="567" y="69" on="1"/>
        <pt x="567" y="59" on="0"/>
        <pt x="552" y="28" on="0"/>
        <pt x="542" y="18" on="1"/>
        <pt x="516" y="-10" on="0"/>
        <pt x="464" y="-10" on="1"/>
        <pt x="357" y="-10" on="0"/>
        <pt x="357" y="89" on="1"/>
        <pt x="357" y="470" on="1"/>
        <pt x="493" y="470" on="1"/>
        <pt x="493" y="74" on="1"/>
        <pt x="493" y="40" on="0"/>
      </contour>
    </TTGlyph>
    <TTGlyph name="five" xMin="70" yMin="-10" xMax="482" yMax="690">
      <contour>
        <pt x="482" y="238" on="1"/>
        <pt x="482" y="212" on="1"/>
        <pt x="480" y="-10" on="0"/>
        <pt x="253" y="-10" on="1"/>
        <pt x="189" y="-10" on="0"/>
        <pt x="91" y="63" on="0"/>
        <pt x="74" y="109" on="1"/>
        <pt x="104" y="120" on="1"/>
        <pt x="116" y="88" on="0"/>
        <pt x="193" y="25" on="0"/>
        <pt x="292" y="25" on="0"/>
        <pt x="334" y="91" on="0"/>
        <pt x="334" y="159" on="1"/>
        <pt x="334" y="269" on="1"/>
        <pt x="334" y="425" on="0"/>
        <pt x="248" y="425" on="1"/>
        <pt x="175" y="425" on="0"/>
        <pt x="160" y="317" on="1"/>
        <pt x="70" y="317" on="1"/>
        <pt x="70" y="690" on="1"/>
        <pt x="463" y="690" on="1"/>
        <pt x="463" y="582" on="1"/>
        <pt x="160" y="582" on="1"/>
        <pt x="160" y="421" on="1"/>
        <pt x="201" y="460" on="0"/>
        <pt x="318" y="460" on="0"/>
        <pt x="395" y="433" on="0"/>
        <pt x="441" y="390" on="0"/>
        <pt x="456" y="360" on="1"/>
        <pt x="482" y="308" on="0"/>
      </contour>
    </TTGlyph>
    <TTGlyph name="fl" xMin="40" yMin="-10" xMax="568" yMax="700">
      <contour>
        <pt x="517" y="40" on="1"/>
        <pt x="537" y="40" on="0"/>
        <pt x="549" y="72" on="1"/>
        <pt x="568" y="69" on="1"/>
        <pt x="568" y="59" on="0"/>
        <pt x="553" y="28" on="0"/>
        <pt x="543" y="18" on="1"/>
        <pt x="517" y="-10" on="0"/>
        <pt x="465" y="-10" on="1"/>
        <pt x="358" y="-10" on="0"/>
        <pt x="358" y="89" on="1"/>
        <pt x="358" y="554" on="1"/>
        <pt x="358" y="601" on="0"/>
        <pt x="310" y="665" on="0"/>
        <pt x="247" y="665" on="0"/>
        <pt x="209" y="622" on="0"/>
        <pt x="209" y="587" on="1"/>
        <pt x="209" y="300" on="1"/>
        <pt x="294" y="300" on="1"/>
        <pt x="294" y="270" on="1"/>
        <pt x="209" y="270" on="1"/>
        <pt x="209" y="0" on="1"/>
        <pt x="73" y="0" on="1"/>
        <pt x="73" y="270" on="1"/>
        <pt x="40" y="270" on="1"/>
        <pt x="40" y="300" on="1"/>
        <pt x="73" y="300" on="1"/>
        <pt x="73" y="533" on="1"/>
        <pt x="73" y="608" on="0"/>
        <pt x="174" y="700" on="0"/>
        <pt x="251" y="700" on="1"/>
        <pt x="297" y="700" on="0"/>
        <pt x="352" y="655" on="0"/>
        <pt x="358" y="633" on="1"/>
        <pt x="358" y="690" on="1"/>
        <pt x="494" y="690" on="1"/>
        <pt x="494" y="74" on="1"/>
        <pt x="494" y="40" on="0"/>
      </contour>
    </TTGlyph>
    <TTGlyph name="florin" xMin="60" yMin="-163" xMax="444" yMax="710">
      <contour>
        <pt x="444" y="505" on="1"/>
        <pt x="421" y="505" on="1"/>
        <pt x="421" y="544" on="1"/>
        <pt x="421" y="594" on="0"/>
        <pt x="383" y="655" on="0"/>
        <pt x="358" y="655" on="1"/>
        <pt x="320" y="655" on="0"/>
        <pt x="320" y="577" on="1"/>
        <pt x="320" y="300" on="1"/>
        <pt x="405" y="300" on="1"/>
        <pt x="405" y="270" on="1"/>
        <pt x="320" y="270" on="1"/>
        <pt x="320" y="24" on="1"/>
        <pt x="320" y="-53" on="0"/>
        <pt x="245" y="-143" on="0"/>
        <pt x="174" y="-143" on="1"/>
        <pt x="137" y="-143" on="0"/>
        <pt x="90" y="-109" on="0"/>
        <pt x="83" y="-89" on="1"/>
        <pt x="83" y="-163" on="1"/>
        <pt x="60" y="-163" on="1"/>
        <pt x="60" y="42" on="1"/>
        <pt x="83" y="42" on="1"/>
        <pt x="83" y="3" on="1"/>
        <pt x="83" y="-47" on="0"/>
        <pt x="121" y="-108" on="0"/>
        <pt x="146" y="-108" on="1"/>
        <pt x="184" y="-108" on="0"/>
        <pt x="184" y="-30" on="1"/>
        <pt x="184" y="270" on="1"/>
        <pt x="151" y="270" on="1"/>
        <pt x="151" y="300" on="1"/>
        <pt x="184" y="300" on="1"/>
        <pt x="184" y="523" on="1"/>
        <pt x="184" y="600" on="0"/>
        <pt x="259" y="690" on="0"/>
        <pt x="330" y="690" on="1"/>
        <pt x="367" y="690" on="0"/>
        <pt x="414" y="656" on="0"/>
        <pt x="421" y="636" on="1"/>
        <pt x="421" y="710" on="1"/>
        <pt x="444" y="710" on="1"/>
      </contour>
    </TTGlyph>
    <TTGlyph name="four" xMin="20" yMin="0" xMax="474" yMax="690">
      <contour>
        <pt x="474" y="232" on="1"/>
        <pt x="474" y="182" on="1"/>
        <pt x="447" y="182" on="1"/>
        <pt x="447" y="0" on="1"/>
        <pt x="298" y="0" on="1"/>
        <pt x="298" y="183" on="1"/>
        <pt x="20" y="183" on="1"/>
        <pt x="291" y="690" on="1"/>
        <pt x="434" y="690" on="1"/>
        <pt x="188" y="232" on="1"/>
        <pt x="298" y="232" on="1"/>
        <pt x="298" y="369" on="1"/>
        <pt x="447" y="369" on="1"/>
        <pt x="447" y="232" on="1"/>
      </contour>
    </TTGlyph>
    <TTGlyph name="fraction" xMin="60" yMin="-40" xMax="540" yMax="730">
      <contour>
        <pt x="60" y="-40" on="1"/>
        <pt x="428" y="730" on="1"/>
        <pt x="540" y="730" on="1"/>
        <pt x="172" y="-40" on="1"/>
      </contour>
    </TTGlyph>
    <TTGlyph name="g" xMin="50" yMin="-167" xMax="445" yMax="480">
      <contour>
        <pt x="445" y="470" on="1"/>
        <pt x="445" y="70" on="1"/>
        <pt x="445" y="-41" on="0"/>
        <pt x="322" y="-167" on="0"/>
        <pt x="221" y="-167" on="1"/>
        <pt x="181" y="-167" on="0"/>
        <pt x="119" y="-132" on="0"/>
        <pt x="108" y="-115" on="1"/>
        <pt x="96" y="-98" on="1"/>
        <pt x="116" y="-82" on="1"/>
        <pt x="119" y="-88" on="0"/>
        <pt x="139" y="-109" on="0"/>
        <pt x="148" y="-116" on="1"/>
        <pt x="174" y="-133" on="0"/>
        <pt x="241" y="-133" on="0"/>
        <pt x="283" y="-108" on="0"/>
        <pt x="294" y="-82" on="1"/>
        <pt x="311" y="-39" on="0"/>
        <pt x="311" y="44" on="1"/>
        <pt x="311" y="64" on="1"/>
        <pt x="303" y="37" on="0"/>
        <pt x="251" y="-10" on="0"/>
        <pt x="211" y="-10" on="1"/>
        <pt x="133" y="-10" on="0"/>
        <pt x="50" y="75" on="0"/>
        <pt x="50" y="149" on="1"/>
        <pt x="50" y="322" on="1"/>
        <pt x="50" y="394" on="0"/>
        <pt x="139" y="480" on="0"/>
        <pt x="211" y="480" on="1"/>
        <pt x="250" y="480" on="0"/>
        <pt x="303" y="438" on="0"/>
        <pt x="309" y="414" on="1"/>
        <pt x="309" y="470" on="1"/>
      </contour>
      <contour>
        <pt x="309" y="334" on="1"/>
        <pt x="309" y="376" on="0"/>
        <pt x="265" y="450" on="0"/>
        <pt x="208" y="450" on="0"/>
        <pt x="187" y="402" on="0"/>
        <pt x="187" y="356" on="1"/>
        <pt x="187" y="115" on="1"/>
        <pt x="187" y="66" on="0"/>
        <pt x="209" y="22" on="0"/>
        <pt x="265" y="22" on="0"/>
        <pt x="309" y="92" on="0"/>
        <pt x="309" y="137" on="1"/>
      </contour>
    </TTGlyph>
    <TTGlyph name="germandbls" xMin="40" yMin="-10" xMax="584" yMax="700">
      <contour>
        <pt x="432" y="495" on="1"/>
        <pt x="405" y="495" on="0"/>
        <pt x="367" y="458" on="0"/>
        <pt x="367" y="402" on="0"/>
        <pt x="395" y="372" on="1"/>
        <pt x="545" y="206" on="1"/>
        <pt x="584" y="162" on="0"/>
        <pt x="584" y="63" on="0"/>
        <pt x="486" y="-10" on="0"/>
        <pt x="329" y="-10" on="0"/>
        <pt x="258" y="69" on="0"/>
        <pt x="258" y="113" on="1"/>
        <pt x="288" y="113" on="1"/>
        <pt x="288" y="72" on="0"/>
        <pt x="349" y="20" on="0"/>
        <pt x="412" y="20" on="0"/>
        <pt x="461" y="59" on="0"/>
        <pt x="461" y="91" on="1"/>
        <pt x="461" y="116" on="0"/>
        <pt x="444" y="132" on="1"/>
        <pt x="438" y="139" on="0"/>
        <pt x="288" y="307" on="1"/>
        <pt x="246" y="353" on="0"/>
        <pt x="246" y="455" on="0"/>
        <pt x="339" y="524" on="0"/>
        <pt x="408" y="525" on="1"/>
        <pt x="403" y="586" on="0"/>
        <pt x="328" y="665" on="0"/>
        <pt x="254" y="665" on="0"/>
        <pt x="208" y="614" on="0"/>
        <pt x="208" y="587" on="1"/>
        <pt x="208" y="0" on="1"/>
        <pt x="73" y="0" on="1"/>
        <pt x="73" y="300" on="1"/>
        <pt x="40" y="300" on="1"/>
        <pt x="40" y="330" on="1"/>
        <pt x="73" y="330" on="1"/>
        <pt x="73" y="557" on="1"/>
        <pt x="73" y="613" on="0"/>
        <pt x="175" y="700" on="0"/>
        <pt x="318" y="700" on="0"/>
        <pt x="400" y="628" on="0"/>
        <pt x="409" y="593" on="1"/>
        <pt x="409" y="695" on="1"/>
        <pt x="432" y="695" on="1"/>
      </contour>
    </TTGlyph>
    <TTGlyph name="grave" xMin="50" yMin="526" xMax="231" yMax="734">
      <contour>
        <pt x="64" y="653" on="1"/>
        <pt x="50" y="667" on="0"/>
        <pt x="50" y="702" on="0"/>
        <pt x="83" y="734" on="0"/>
        <pt x="127" y="734" on="0"/>
        <pt x="138" y="714" on="1"/>
        <pt x="231" y="543" on="1"/>
        <pt x="210" y="526" on="1"/>
      </contour>
    </TTGlyph>
    <TTGlyph name="greater" xMin="80" yMin="-17" xMax="435" yMax="583">
      <contour>
        <pt x="435" y="282" on="1"/>
        <pt x="135" y="-17" on="1"/>
        <pt x="80" y="35" on="1"/>
        <pt x="328" y="282" on="1"/>
        <pt x="81" y="530" on="1"/>
        <pt x="134" y="583" on="1"/>
      </contour>
    </TTGlyph>
    <TTGlyph name="guillemotleft" xMin="50" yMin="121" xMax="511" yMax="470">
      <contour>
        <pt x="265" y="470" on="0"/>
        <pt x="287" y="452" on="0"/>
        <pt x="287" y="444" on="0"/>
        <pt x="286" y="442" on="1"/>
        <pt x="174" y="300" on="1"/>
        <pt x="283" y="153" on="1"/>
        <pt x="287" y="148" on="0"/>
        <pt x="287" y="140" on="0"/>
        <pt x="265" y="121" on="0"/>
        <pt x="250" y="121" on="0"/>
        <pt x="246" y="125" on="1"/>
        <pt x="55" y="287" on="1"/>
        <pt x="50" y="292" on="0"/>
        <pt x="50" y="308" on="0"/>
        <pt x="55" y="311" on="1"/>
        <pt x="245" y="464" on="1"/>
        <pt x="252" y="470" on="0"/>
      </contour>
      <contour>
        <pt x="489" y="470" on="0"/>
        <pt x="511" y="452" on="0"/>
        <pt x="511" y="444" on="0"/>
        <pt x="510" y="442" on="1"/>
        <pt x="398" y="300" on="1"/>
        <pt x="507" y="153" on="1"/>
        <pt x="511" y="148" on="0"/>
        <pt x="511" y="140" on="0"/>
        <pt x="489" y="121" on="0"/>
        <pt x="474" y="121" on="0"/>
        <pt x="470" y="125" on="1"/>
        <pt x="279" y="287" on="1"/>
        <pt x="274" y="292" on="0"/>
        <pt x="274" y="308" on="0"/>
        <pt x="279" y="311" on="1"/>
        <pt x="469" y="464" on="1"/>
        <pt x="477" y="470" on="0"/>
      </contour>
    </TTGlyph>
    <TTGlyph name="guillemotright" xMin="50" yMin="121" xMax="511" yMax="470">
      <contour>
        <pt x="506" y="311" on="1"/>
        <pt x="511" y="308" on="0"/>
        <pt x="511" y="292" on="0"/>
        <pt x="506" y="287" on="1"/>
        <pt x="315" y="125" on="1"/>
        <pt x="311" y="121" on="0"/>
        <pt x="296" y="121" on="0"/>
        <pt x="274" y="140" on="0"/>
        <pt x="274" y="148" on="0"/>
        <pt x="278" y="153" on="1"/>
        <pt x="387" y="300" on="1"/>
        <pt x="275" y="442" on="1"/>
        <pt x="274" y="444" on="0"/>
        <pt x="274" y="452" on="0"/>
        <pt x="296" y="470" on="0"/>
        <pt x="308" y="470" on="0"/>
        <pt x="316" y="464" on="1"/>
      </contour>
      <contour>
        <pt x="282" y="311" on="1"/>
        <pt x="287" y="308" on="0"/>
        <pt x="287" y="292" on="0"/>
        <pt x="282" y="287" on="1"/>
        <pt x="91" y="125" on="1"/>
        <pt x="87" y="121" on="0"/>
        <pt x="72" y="121" on="0"/>
        <pt x="50" y="140" on="0"/>
        <pt x="50" y="148" on="0"/>
        <pt x="54" y="153" on="1"/>
        <pt x="163" y="300" on="1"/>
        <pt x="51" y="442" on="1"/>
        <pt x="50" y="444" on="0"/>
        <pt x="50" y="452" on="0"/>
        <pt x="72" y="470" on="0"/>
        <pt x="84" y="470" on="0"/>
        <pt x="92" y="464" on="1"/>
      </contour>
    </TTGlyph>
    <TTGlyph name="guilsinglleft" xMin="50" yMin="121" xMax="287" yMax="470">
      <contour>
        <pt x="265" y="470" on="0"/>
        <pt x="287" y="452" on="0"/>
        <pt x="287" y="444" on="0"/>
        <pt x="286" y="442" on="1"/>
        <pt x="174" y="300" on="1"/>
        <pt x="283" y="153" on="1"/>
        <pt x="287" y="148" on="0"/>
        <pt x="287" y="140" on="0"/>
        <pt x="265" y="121" on="0"/>
        <pt x="250" y="121" on="0"/>
        <pt x="246" y="125" on="1"/>
        <pt x="55" y="287" on="1"/>
        <pt x="50" y="292" on="0"/>
        <pt x="50" y="308" on="0"/>
        <pt x="55" y="311" on="1"/>
        <pt x="245" y="464" on="1"/>
        <pt x="252" y="470" on="0"/>
      </contour>
    </TTGlyph>
    <TTGlyph name="guilsinglright" xMin="50" yMin="121" xMax="287" yMax="470">
      <contour>
        <pt x="51" y="442" on="1"/>
        <pt x="50" y="444" on="0"/>
        <pt x="50" y="452" on="0"/>
        <pt x="72" y="470" on="0"/>
        <pt x="85" y="470" on="0"/>
        <pt x="91" y="464" on="1"/>
        <pt x="281" y="311" on="1"/>
        <pt x="287" y="308" on="0"/>
        <pt x="287" y="292" on="0"/>
        <pt x="281" y="287" on="1"/>
        <pt x="91" y="125" on="1"/>
        <pt x="87" y="121" on="0"/>
        <pt x="72" y="121" on="0"/>
        <pt x="50" y="140" on="0"/>
        <pt x="50" y="148" on="0"/>
        <pt x="54" y="153" on="1"/>
        <pt x="163" y="300" on="1"/>
      </contour>
    </TTGlyph>
    <TTGlyph name="h" xMin="60" yMin="-10" xMax="529" yMax="690">
      <contour>
        <pt x="478" y="40" on="1"/>
        <pt x="498" y="40" on="0"/>
        <pt x="510" y="72" on="1"/>
        <pt x="529" y="69" on="1"/>
        <pt x="529" y="59" on="0"/>
        <pt x="514" y="28" on="0"/>
        <pt x="504" y="18" on="1"/>
        <pt x="478" y="-10" on="0"/>
        <pt x="426" y="-10" on="1"/>
        <pt x="319" y="-10" on="0"/>
        <pt x="319" y="89" on="1"/>
        <pt x="319" y="366" on="1"/>
        <pt x="319" y="406" on="0"/>
        <pt x="288" y="445" on="0"/>
        <pt x="235" y="445" on="0"/>
        <pt x="196" y="378" on="0"/>
        <pt x="196" y="334" on="1"/>
        <pt x="196" y="0" on="1"/>
        <pt x="60" y="0" on="1"/>
        <pt x="60" y="690" on="1"/>
        <pt x="196" y="690" on="1"/>
        <pt x="196" y="412" on="1"/>
        <pt x="223" y="480" on="0"/>
        <pt x="371" y="480" on="0"/>
        <pt x="455" y="395" on="0"/>
        <pt x="455" y="322" on="1"/>
        <pt x="455" y="74" on="1"/>
        <pt x="455" y="40" on="0"/>
      </contour>
    </TTGlyph>
    <TTGlyph name="hungarumlaut" xMin="50" yMin="526" xMax="401" yMax="734">
      <contour>
        <pt x="143" y="714" on="1"/>
        <pt x="154" y="734" on="0"/>
        <pt x="198" y="734" on="0"/>
        <pt x="231" y="702" on="0"/>
        <pt x="231" y="667" on="0"/>
        <pt x="217" y="653" on="1"/>
        <pt x="71" y="526" on="1"/>
        <pt x="50" y="543" on="1"/>
      </contour>
      <contour>
        <pt x="313" y="714" on="1"/>
        <pt x="324" y="734" on="0"/>
        <pt x="368" y="734" on="0"/>
        <pt x="401" y="702" on="0"/>
        <pt x="401" y="667" on="0"/>
        <pt x="387" y="653" on="1"/>
        <pt x="241" y="526" on="1"/>
        <pt x="220" y="543" on="1"/>
      </contour>
    </TTGlyph>
    <TTGlyph name="hyphen" xMin="50" yMin="225" xMax="275" yMax="300">
      <contour>
        <pt x="275" y="300" on="1"/>
        <pt x="275" y="225" on="1"/>
        <pt x="50" y="225" on="1"/>
        <pt x="50" y="300" on="1"/>
      </contour>
    </TTGlyph>
    <TTGlyph name="i" xMin="60" yMin="-10" xMax="270" yMax="700">
      <contour>
        <pt x="219" y="40" on="1"/>
        <pt x="239" y="40" on="0"/>
        <pt x="251" y="72" on="1"/>
        <pt x="270" y="69" on="1"/>
        <pt x="270" y="59" on="0"/>
        <pt x="255" y="28" on="0"/>
        <pt x="245" y="18" on="1"/>
        <pt x="219" y="-10" on="0"/>
        <pt x="167" y="-10" on="1"/>
        <pt x="60" y="-10" on="0"/>
        <pt x="60" y="89" on="1"/>
        <pt x="60" y="470" on="1"/>
        <pt x="196" y="470" on="1"/>
        <pt x="196" y="74" on="1"/>
        <pt x="196" y="40" on="0"/>
      </contour>
      <contour>
        <pt x="197" y="652" on="0"/>
        <pt x="197" y="594" on="0"/>
        <pt x="156" y="544" on="0"/>
        <pt x="102" y="544" on="0"/>
        <pt x="60" y="594" on="0"/>
        <pt x="60" y="652" on="0"/>
        <pt x="101" y="700" on="0"/>
        <pt x="156" y="700" on="0"/>
      </contour>
    </TTGlyph>
    <TTGlyph name="iacute" xMin="60" yMin="-10" xMax="270" yMax="734">
      <contour>
        <pt x="219" y="40" on="1"/>
        <pt x="239" y="40" on="0"/>
        <pt x="251" y="72" on="1"/>
        <pt x="270" y="69" on="1"/>
        <pt x="270" y="59" on="0"/>
        <pt x="255" y="28" on="0"/>
        <pt x="245" y="18" on="1"/>
        <pt x="219" y="-10" on="0"/>
        <pt x="167" y="-10" on="1"/>
        <pt x="60" y="-10" on="0"/>
        <pt x="60" y="89" on="1"/>
        <pt x="60" y="470" on="1"/>
        <pt x="196" y="470" on="1"/>
        <pt x="196" y="74" on="1"/>
        <pt x="196" y="40" on="0"/>
      </contour>
      <contour>
        <pt x="218" y="734" on="0"/>
        <pt x="251" y="702" on="0"/>
        <pt x="251" y="664" on="0"/>
        <pt x="237" y="653" on="1"/>
        <pt x="91" y="526" on="1"/>
        <pt x="70" y="543" on="1"/>
        <pt x="163" y="714" on="1"/>
        <pt x="174" y="734" on="0"/>
      </contour>
    </TTGlyph>
    <TTGlyph name="icircumflex" xMin="15" yMin="-10" xMax="270" yMax="700">
      <contour>
        <pt x="219" y="40" on="1"/>
        <pt x="239" y="40" on="0"/>
        <pt x="251" y="72" on="1"/>
        <pt x="270" y="69" on="1"/>
        <pt x="270" y="59" on="0"/>
        <pt x="255" y="28" on="0"/>
        <pt x="245" y="18" on="1"/>
        <pt x="219" y="-10" on="0"/>
        <pt x="167" y="-10" on="1"/>
        <pt x="60" y="-10" on="0"/>
        <pt x="60" y="89" on="1"/>
        <pt x="60" y="470" on="1"/>
        <pt x="196" y="470" on="1"/>
        <pt x="196" y="74" on="1"/>
        <pt x="196" y="40" on="0"/>
      </contour>
      <contour>
        <pt x="72" y="660" on="1"/>
        <pt x="96" y="700" on="0"/>
        <pt x="173" y="700" on="0"/>
        <pt x="194" y="660" on="1"/>
        <pt x="251" y="551" on="1"/>
        <pt x="223" y="533" on="1"/>
        <pt x="133" y="630" on="1"/>
        <pt x="42" y="534" on="1"/>
        <pt x="15" y="551" on="1"/>
      </contour>
    </TTGlyph>
    <TTGlyph name="idieresis" xMin="-21" yMin="-10" xMax="279" yMax="676">
      <contour>
        <pt x="219" y="40" on="1"/>
        <pt x="239" y="40" on="0"/>
        <pt x="251" y="72" on="1"/>
        <pt x="270" y="69" on="1"/>
        <pt x="270" y="59" on="0"/>
        <pt x="255" y="28" on="0"/>
        <pt x="245" y="18" on="1"/>
        <pt x="219" y="-10" on="0"/>
        <pt x="167" y="-10" on="1"/>
        <pt x="60" y="-10" on="0"/>
        <pt x="60" y="89" on="1"/>
        <pt x="60" y="470" on="1"/>
        <pt x="196" y="470" on="1"/>
        <pt x="196" y="74" on="1"/>
        <pt x="196" y="40" on="0"/>
      </contour>
      <contour>
        <pt x="247" y="676" on="0"/>
        <pt x="279" y="646" on="0"/>
        <pt x="279" y="599" on="0"/>
        <pt x="247" y="568" on="0"/>
        <pt x="193" y="568" on="0"/>
        <pt x="161" y="599" on="0"/>
        <pt x="161" y="646" on="0"/>
        <pt x="193" y="676" on="0"/>
      </contour>
      <contour>
        <pt x="65" y="676" on="0"/>
        <pt x="97" y="646" on="0"/>
        <pt x="97" y="599" on="0"/>
        <pt x="65" y="568" on="0"/>
        <pt x="11" y="568" on="0"/>
        <pt x="-21" y="599" on="0"/>
        <pt x="-21" y="646" on="0"/>
        <pt x="11" y="676" on="0"/>
      </contour>
    </TTGlyph>
    <TTGlyph name="igrave" xMin="10" yMin="-10" xMax="270" yMax="734">
      <contour>
        <pt x="219" y="40" on="1"/>
        <pt x="239" y="40" on="0"/>
        <pt x="251" y="72" on="1"/>
        <pt x="270" y="69" on="1"/>
        <pt x="270" y="59" on="0"/>
        <pt x="255" y="28" on="0"/>
        <pt x="245" y="18" on="1"/>
        <pt x="219" y="-10" on="0"/>
        <pt x="167" y="-10" on="1"/>
        <pt x="60" y="-10" on="0"/>
        <pt x="60" y="89" on="1"/>
        <pt x="60" y="470" on="1"/>
        <pt x="196" y="470" on="1"/>
        <pt x="196" y="74" on="1"/>
        <pt x="196" y="40" on="0"/>
      </contour>
      <contour>
        <pt x="24" y="653" on="1"/>
        <pt x="10" y="667" on="0"/>
        <pt x="10" y="702" on="0"/>
        <pt x="43" y="734" on="0"/>
        <pt x="87" y="734" on="0"/>
        <pt x="98" y="714" on="1"/>
        <pt x="191" y="543" on="1"/>
        <pt x="170" y="526" on="1"/>
      </contour>
    </TTGlyph>
    <TTGlyph name="j" xMin="0" yMin="-210" xMax="210" yMax="700">
      <contour>
        <pt x="19" y="-128" on="1"/>
        <pt x="29" y="-160" on="0"/>
        <pt x="74" y="-160" on="0"/>
        <pt x="74" y="-126" on="1"/>
        <pt x="74" y="470" on="1"/>
        <pt x="210" y="470" on="1"/>
        <pt x="210" y="-111" on="1"/>
        <pt x="210" y="-210" on="0"/>
        <pt x="103" y="-210" on="1"/>
        <pt x="48" y="-210" on="0"/>
        <pt x="25" y="-182" on="1"/>
        <pt x="3" y="-156" on="0"/>
        <pt x="0" y="-131" on="1"/>
      </contour>
      <contour>
        <pt x="73" y="594" on="0"/>
        <pt x="73" y="652" on="0"/>
        <pt x="114" y="700" on="0"/>
        <pt x="169" y="700" on="0"/>
        <pt x="210" y="652" on="0"/>
        <pt x="210" y="594" on="0"/>
        <pt x="168" y="544" on="0"/>
        <pt x="114" y="544" on="0"/>
      </contour>
    </TTGlyph>
    <TTGlyph name="k" xMin="60" yMin="0" xMax="404" yMax="690">
      <contour>
        <pt x="404" y="104" on="1"/>
        <pt x="404" y="0" on="1"/>
        <pt x="277" y="0" on="1"/>
        <pt x="277" y="140" on="1"/>
        <pt x="277" y="172" on="0"/>
        <pt x="249" y="220" on="0"/>
        <pt x="225" y="228" on="1"/>
        <pt x="196" y="233" on="1"/>
        <pt x="196" y="0" on="1"/>
        <pt x="60" y="0" on="1"/>
        <pt x="60" y="690" on="1"/>
        <pt x="196" y="690" on="1"/>
        <pt x="196" y="309" on="1"/>
        <pt x="324" y="470" on="1"/>
        <pt x="401" y="470" on="1"/>
        <pt x="232" y="257" on="1"/>
        <pt x="308" y="247" on="0"/>
        <pt x="404" y="162" on="0"/>
      </contour>
    </TTGlyph>
    <TTGlyph name="l" xMin="60" yMin="-10" xMax="270" yMax="690">
      <contour>
        <pt x="219" y="40" on="1"/>
        <pt x="239" y="40" on="0"/>
        <pt x="251" y="72" on="1"/>
        <pt x="270" y="69" on="1"/>
        <pt x="270" y="59" on="0"/>
        <pt x="255" y="28" on="0"/>
        <pt x="245" y="18" on="1"/>
        <pt x="219" y="-10" on="0"/>
        <pt x="167" y="-10" on="1"/>
        <pt x="60" y="-10" on="0"/>
        <pt x="60" y="89" on="1"/>
        <pt x="60" y="690" on="1"/>
        <pt x="196" y="690" on="1"/>
        <pt x="196" y="74" on="1"/>
        <pt x="196" y="40" on="0"/>
      </contour>
    </TTGlyph>
    <TTGlyph name="less" xMin="80" yMin="-17" xMax="435" yMax="583">
      <contour>
        <pt x="380" y="-17" on="1"/>
        <pt x="80" y="282" on="1"/>
        <pt x="381" y="583" on="1"/>
        <pt x="434" y="530" on="1"/>
        <pt x="187" y="282" on="1"/>
        <pt x="435" y="35" on="1"/>
      </contour>
    </TTGlyph>
    <TTGlyph name="lslash" xMin="0" yMin="-10" xMax="286" yMax="690">
      <contour>
        <pt x="228" y="40" on="1"/>
        <pt x="248" y="40" on="0"/>
        <pt x="260" y="72" on="1"/>
        <pt x="279" y="69" on="1"/>
        <pt x="279" y="59" on="0"/>
        <pt x="264" y="28" on="0"/>
        <pt x="254" y="18" on="1"/>
        <pt x="228" y="-10" on="0"/>
        <pt x="176" y="-10" on="1"/>
        <pt x="69" y="-10" on="0"/>
        <pt x="69" y="89" on="1"/>
        <pt x="69" y="325" on="1"/>
        <pt x="24" y="307" on="1"/>
        <pt x="0" y="369" on="1"/>
        <pt x="69" y="397" on="1"/>
        <pt x="69" y="690" on="1"/>
        <pt x="205" y="690" on="1"/>
        <pt x="205" y="452" on="1"/>
        <pt x="261" y="475" on="1"/>
        <pt x="286" y="414" on="1"/>
        <pt x="205" y="381" on="1"/>
        <pt x="205" y="74" on="1"/>
        <pt x="205" y="40" on="0"/>
      </contour>
    </TTGlyph>
    <TTGlyph name="m" xMin="60" yMin="-10" xMax="788" yMax="480">
      <contour>
        <pt x="737" y="40" on="1"/>
        <pt x="757" y="40" on="0"/>
        <pt x="769" y="72" on="1"/>
        <pt x="788" y="69" on="1"/>
        <pt x="788" y="59" on="0"/>
        <pt x="773" y="28" on="0"/>
        <pt x="763" y="18" on="1"/>
        <pt x="737" y="-10" on="0"/>
        <pt x="685" y="-10" on="1"/>
        <pt x="578" y="-10" on="0"/>
        <pt x="578" y="89" on="1"/>
        <pt x="578" y="366" on="1"/>
        <pt x="578" y="406" on="0"/>
        <pt x="547" y="445" on="0"/>
        <pt x="494" y="445" on="0"/>
        <pt x="455" y="378" on="0"/>
        <pt x="455" y="334" on="1"/>
        <pt x="455" y="0" on="1"/>
        <pt x="319" y="0" on="1"/>
        <pt x="319" y="366" on="1"/>
        <pt x="319" y="406" on="0"/>
        <pt x="288" y="445" on="0"/>
        <pt x="235" y="445" on="0"/>
        <pt x="196" y="378" on="0"/>
        <pt x="196" y="334" on="1"/>
        <pt x="196" y="0" on="1"/>
        <pt x="60" y="0" on="1"/>
        <pt x="60" y="470" on="1"/>
        <pt x="196" y="470" on="1"/>
        <pt x="196" y="412" on="1"/>
        <pt x="223" y="480" on="0"/>
        <pt x="300" y="480" on="1"/>
        <pt x="353" y="480" on="0"/>
        <pt x="429" y="430" on="0"/>
        <pt x="445" y="385" on="1"/>
        <pt x="464" y="439" on="0"/>
        <pt x="519" y="480" on="0"/>
        <pt x="559" y="480" on="1"/>
        <pt x="630" y="480" on="0"/>
        <pt x="714" y="395" on="0"/>
        <pt x="714" y="322" on="1"/>
        <pt x="714" y="74" on="1"/>
        <pt x="714" y="40" on="0"/>
      </contour>
    </TTGlyph>
    <TTGlyph name="macron" xMin="50" yMin="630" xMax="272" yMax="690">
      <contour>
        <pt x="272" y="630" on="1"/>
        <pt x="50" y="630" on="1"/>
        <pt x="50" y="690" on="1"/>
        <pt x="272" y="690" on="1"/>
      </contour>
    </TTGlyph>
    <TTGlyph name="minus" xMin="50" yMin="200" xMax="300" yMax="260">
      <contour>
        <pt x="300" y="200" on="1"/>
        <pt x="50" y="200" on="1"/>
        <pt x="50" y="260" on="1"/>
        <pt x="300" y="260" on="1"/>
      </contour>
    </TTGlyph>
    <TTGlyph name="n" xMin="60" yMin="-10" xMax="529" yMax="480">
      <contour>
        <pt x="478" y="40" on="1"/>
        <pt x="498" y="40" on="0"/>
        <pt x="510" y="72" on="1"/>
        <pt x="529" y="69" on="1"/>
        <pt x="529" y="59" on="0"/>
        <pt x="514" y="28" on="0"/>
        <pt x="504" y="18" on="1"/>
        <pt x="478" y="-10" on="0"/>
        <pt x="426" y="-10" on="1"/>
        <pt x="319" y="-10" on="0"/>
        <pt x="319" y="89" on="1"/>
        <pt x="319" y="366" on="1"/>
        <pt x="319" y="406" on="0"/>
        <pt x="288" y="445" on="0"/>
        <pt x="235" y="445" on="0"/>
        <pt x="196" y="378" on="0"/>
        <pt x="196" y="334" on="1"/>
        <pt x="196" y="0" on="1"/>
        <pt x="60" y="0" on="1"/>
        <pt x="60" y="470" on="1"/>
        <pt x="196" y="470" on="1"/>
        <pt x="196" y="412" on="1"/>
        <pt x="223" y="480" on="0"/>
        <pt x="371" y="480" on="0"/>
        <pt x="455" y="395" on="0"/>
        <pt x="455" y="322" on="1"/>
        <pt x="455" y="74" on="1"/>
        <pt x="455" y="40" on="0"/>
      </contour>
    </TTGlyph>
    <TTGlyph name="nine" xMin="45" yMin="-10" xMax="492" yMax="700">
      <contour>
        <pt x="45" y="533" on="1"/>
        <pt x="45" y="603" on="0"/>
        <pt x="173" y="700" on="0"/>
        <pt x="360" y="700" on="0"/>
        <pt x="492" y="603" on="0"/>
        <pt x="492" y="533" on="1"/>
        <pt x="492" y="213" on="1"/>
        <pt x="492" y="104" on="0"/>
        <pt x="367" y="-10" on="0"/>
        <pt x="253" y="-10" on="1"/>
        <pt x="118" y="-10" on="0"/>
        <pt x="74" y="113" on="1"/>
        <pt x="100" y="122" on="1"/>
        <pt x="113" y="88" on="0"/>
        <pt x="183" y="25" on="0"/>
        <pt x="233" y="25" on="1"/>
        <pt x="344" y="25" on="0"/>
        <pt x="344" y="160" on="1"/>
        <pt x="344" y="247" on="1"/>
        <pt x="301" y="230" on="0"/>
        <pt x="254" y="230" on="1"/>
        <pt x="173" y="230" on="0"/>
        <pt x="45" y="324" on="0"/>
        <pt x="45" y="396" on="1"/>
      </contour>
      <contour>
        <pt x="194" y="572" on="1"/>
        <pt x="194" y="357" on="1"/>
        <pt x="194" y="260" on="0"/>
        <pt x="271" y="260" on="1"/>
        <pt x="308" y="260" on="0"/>
        <pt x="344" y="301" on="0"/>
        <pt x="344" y="332" on="1"/>
        <pt x="344" y="572" on="1"/>
        <pt x="344" y="670" on="0"/>
        <pt x="266" y="670" on="1"/>
        <pt x="194" y="670" on="0"/>
      </contour>
    </TTGlyph>
    <TTGlyph name="ntilde" xMin="60" yMin="-10" xMax="529" yMax="652">
      <contour>
        <pt x="478" y="40" on="1"/>
        <pt x="498" y="40" on="0"/>
        <pt x="510" y="72" on="1"/>
        <pt x="529" y="69" on="1"/>
        <pt x="529" y="59" on="0"/>
        <pt x="514" y="28" on="0"/>
        <pt x="504" y="18" on="1"/>
        <pt x="478" y="-10" on="0"/>
        <pt x="426" y="-10" on="1"/>
        <pt x="319" y="-10" on="0"/>
        <pt x="319" y="89" on="1"/>
        <pt x="319" y="366" on="1"/>
        <pt x="319" y="406" on="0"/>
        <pt x="288" y="445" on="0"/>
        <pt x="235" y="445" on="0"/>
        <pt x="196" y="378" on="0"/>
        <pt x="196" y="334" on="1"/>
        <pt x="196" y="0" on="1"/>
        <pt x="60" y="0" on="1"/>
        <pt x="60" y="470" on="1"/>
        <pt x="196" y="470" on="1"/>
        <pt x="196" y="412" on="1"/>
        <pt x="223" y="480" on="0"/>
        <pt x="371" y="480" on="0"/>
        <pt x="455" y="395" on="0"/>
        <pt x="455" y="322" on="1"/>
        <pt x="455" y="74" on="1"/>
        <pt x="455" y="40" on="0"/>
      </contour>
      <contour>
        <pt x="425" y="596" on="0"/>
        <pt x="370" y="542" on="0"/>
        <pt x="312" y="542" on="0"/>
        <pt x="228" y="591" on="0"/>
        <pt x="210" y="591" on="1"/>
        <pt x="174" y="591" on="0"/>
        <pt x="142" y="553" on="1"/>
        <pt x="127" y="568" on="1"/>
        <pt x="192" y="652" on="0"/>
        <pt x="250" y="652" on="1"/>
        <pt x="269" y="652" on="0"/>
        <pt x="340" y="609" on="0"/>
        <pt x="394" y="609" on="0"/>
        <pt x="421" y="628" on="1"/>
        <pt x="434" y="615" on="1"/>
      </contour>
    </TTGlyph>
    <TTGlyph name="numbersign" xMin="60" yMin="0" xMax="720" yMax="700">
      <contour>
        <pt x="671" y="218" on="1"/>
        <pt x="532" y="218" on="1"/>
        <pt x="494" y="0" on="1"/>
        <pt x="368" y="0" on="1"/>
        <pt x="407" y="218" on="1"/>
        <pt x="322" y="218" on="1"/>
        <pt x="284" y="0" on="1"/>
        <pt x="158" y="0" on="1"/>
        <pt x="196" y="218" on="1"/>
        <pt x="60" y="218" on="1"/>
        <pt x="69" y="268" on="1"/>
        <pt x="205" y="268" on="1"/>
        <pt x="237" y="450" on="1"/>
        <pt x="100" y="450" on="1"/>
        <pt x="109" y="500" on="1"/>
        <pt x="246" y="500" on="1"/>
        <pt x="281" y="700" on="1"/>
        <pt x="407" y="700" on="1"/>
        <pt x="372" y="500" on="1"/>
        <pt x="456" y="500" on="1"/>
        <pt x="491" y="700" on="1"/>
        <pt x="616" y="700" on="1"/>
        <pt x="581" y="500" on="1"/>
        <pt x="720" y="500" on="1"/>
        <pt x="711" y="450" on="1"/>
        <pt x="573" y="450" on="1"/>
        <pt x="541" y="268" on="1"/>
        <pt x="680" y="268" on="1"/>
      </contour>
      <contour>
        <pt x="332" y="268" on="1"/>
        <pt x="415" y="268" on="1"/>
        <pt x="447" y="450" on="1"/>
        <pt x="363" y="450" on="1"/>
      </contour>
    </TTGlyph>
    <TTGlyph name="o" xMin="50" yMin="-10" xMax="446" yMax="480">
      <contour>
        <pt x="446" y="157" on="1"/>
        <pt x="446" y="86" on="0"/>
        <pt x="336" y="-10" on="0"/>
        <pt x="160" y="-10" on="0"/>
        <pt x="50" y="86" on="0"/>
        <pt x="50" y="157" on="1"/>
        <pt x="50" y="314" on="1"/>
        <pt x="50" y="385" on="0"/>
        <pt x="160" y="480" on="0"/>
        <pt x="336" y="480" on="0"/>
        <pt x="446" y="385" on="0"/>
        <pt x="446" y="314" on="1"/>
      </contour>
      <contour>
        <pt x="309" y="118" on="1"/>
        <pt x="309" y="353" on="1"/>
        <pt x="309" y="450" on="0"/>
        <pt x="186" y="450" on="0"/>
        <pt x="186" y="353" on="1"/>
        <pt x="186" y="118" on="1"/>
        <pt x="186" y="20" on="0"/>
        <pt x="309" y="20" on="0"/>
      </contour>
    </TTGlyph>
    <TTGlyph name="oacute" xMin="50" yMin="-10" xMax="446" yMax="734">
      <contour>
        <pt x="446" y="157" on="1"/>
        <pt x="446" y="86" on="0"/>
        <pt x="336" y="-10" on="0"/>
        <pt x="160" y="-10" on="0"/>
        <pt x="50" y="86" on="0"/>
        <pt x="50" y="157" on="1"/>
        <pt x="50" y="314" on="1"/>
        <pt x="50" y="385" on="0"/>
        <pt x="160" y="480" on="0"/>
        <pt x="336" y="480" on="0"/>
        <pt x="446" y="385" on="0"/>
        <pt x="446" y="314" on="1"/>
      </contour>
      <contour>
        <pt x="309" y="118" on="1"/>
        <pt x="309" y="353" on="1"/>
        <pt x="309" y="450" on="0"/>
        <pt x="186" y="450" on="0"/>
        <pt x="186" y="353" on="1"/>
        <pt x="186" y="118" on="1"/>
        <pt x="186" y="20" on="0"/>
        <pt x="309" y="20" on="0"/>
      </contour>
      <contour>
        <pt x="353" y="734" on="0"/>
        <pt x="386" y="702" on="0"/>
        <pt x="386" y="664" on="0"/>
        <pt x="372" y="653" on="1"/>
        <pt x="226" y="526" on="1"/>
        <pt x="205" y="543" on="1"/>
        <pt x="298" y="714" on="1"/>
        <pt x="309" y="734" on="0"/>
      </contour>
    </TTGlyph>
    <TTGlyph name="ocircumflex" xMin="50" yMin="-10" xMax="446" yMax="700">
      <contour>
        <pt x="446" y="157" on="1"/>
        <pt x="446" y="86" on="0"/>
        <pt x="336" y="-10" on="0"/>
        <pt x="160" y="-10" on="0"/>
        <pt x="50" y="86" on="0"/>
        <pt x="50" y="157" on="1"/>
        <pt x="50" y="314" on="1"/>
        <pt x="50" y="385" on="0"/>
        <pt x="160" y="480" on="0"/>
        <pt x="336" y="480" on="0"/>
        <pt x="446" y="385" on="0"/>
        <pt x="446" y="314" on="1"/>
      </contour>
      <contour>
        <pt x="309" y="118" on="1"/>
        <pt x="309" y="353" on="1"/>
        <pt x="309" y="450" on="0"/>
        <pt x="186" y="450" on="0"/>
        <pt x="186" y="353" on="1"/>
        <pt x="186" y="118" on="1"/>
        <pt x="186" y="20" on="0"/>
        <pt x="309" y="20" on="0"/>
      </contour>
      <contour>
        <pt x="184" y="660" on="1"/>
        <pt x="208" y="700" on="0"/>
        <pt x="285" y="700" on="0"/>
        <pt x="306" y="660" on="1"/>
        <pt x="363" y="551" on="1"/>
        <pt x="335" y="533" on="1"/>
        <pt x="245" y="630" on="1"/>
        <pt x="154" y="534" on="1"/>
        <pt x="127" y="551" on="1"/>
      </contour>
    </TTGlyph>
    <TTGlyph name="odieresis" xMin="50" yMin="-10" xMax="446" yMax="676">
      <contour>
        <pt x="446" y="157" on="1"/>
        <pt x="446" y="86" on="0"/>
        <pt x="336" y="-10" on="0"/>
        <pt x="160" y="-10" on="0"/>
        <pt x="50" y="86" on="0"/>
        <pt x="50" y="157" on="1"/>
        <pt x="50" y="314" on="1"/>
        <pt x="50" y="385" on="0"/>
        <pt x="160" y="480" on="0"/>
        <pt x="336" y="480" on="0"/>
        <pt x="446" y="385" on="0"/>
        <pt x="446" y="314" on="1"/>
      </contour>
      <contour>
        <pt x="309" y="118" on="1"/>
        <pt x="309" y="353" on="1"/>
        <pt x="309" y="450" on="0"/>
        <pt x="186" y="450" on="0"/>
        <pt x="186" y="353" on="1"/>
        <pt x="186" y="118" on="1"/>
        <pt x="186" y="20" on="0"/>
        <pt x="309" y="20" on="0"/>
      </contour>
      <contour>
        <pt x="368" y="676" on="0"/>
        <pt x="400" y="646" on="0"/>
        <pt x="400" y="599" on="0"/>
        <pt x="368" y="568" on="0"/>
        <pt x="314" y="568" on="0"/>
        <pt x="282" y="599" on="0"/>
        <pt x="282" y="646" on="0"/>
        <pt x="314" y="676" on="0"/>
      </contour>
      <contour>
        <pt x="186" y="676" on="0"/>
        <pt x="218" y="646" on="0"/>
        <pt x="218" y="599" on="0"/>
        <pt x="186" y="568" on="0"/>
        <pt x="132" y="568" on="0"/>
        <pt x="100" y="599" on="0"/>
        <pt x="100" y="646" on="0"/>
        <pt x="132" y="676" on="0"/>
      </contour>
    </TTGlyph>
    <TTGlyph name="oe" xMin="50" yMin="-10" xMax="676" yMax="480">
      <contour>
        <pt x="676" y="232" on="1"/>
        <pt x="446" y="232" on="1"/>
        <pt x="446" y="118" on="1"/>
        <pt x="446" y="20" on="0"/>
        <pt x="526" y="20" on="1"/>
        <pt x="573" y="20" on="0"/>
        <pt x="637" y="91" on="0"/>
        <pt x="637" y="115" on="1"/>
        <pt x="661" y="115" on="1"/>
        <pt x="661" y="80" on="0"/>
        <pt x="582" y="-10" on="0"/>
        <pt x="424" y="-10" on="0"/>
        <pt x="375" y="26" on="1"/>
        <pt x="323" y="-10" on="0"/>
        <pt x="160" y="-10" on="0"/>
        <pt x="50" y="86" on="0"/>
        <pt x="50" y="157" on="1"/>
        <pt x="50" y="314" on="1"/>
        <pt x="50" y="385" on="0"/>
        <pt x="160" y="480" on="0"/>
        <pt x="322" y="480" on="0"/>
        <pt x="377" y="443" on="1"/>
        <pt x="428" y="480" on="0"/>
        <pt x="590" y="480" on="0"/>
        <pt x="676" y="381" on="0"/>
        <pt x="676" y="311" on="1"/>
      </contour>
      <contour>
        <pt x="309" y="118" on="1"/>
        <pt x="309" y="353" on="1"/>
        <pt x="309" y="450" on="0"/>
        <pt x="186" y="450" on="0"/>
        <pt x="186" y="353" on="1"/>
        <pt x="186" y="118" on="1"/>
        <pt x="186" y="20" on="0"/>
        <pt x="309" y="20" on="0"/>
      </contour>
      <contour>
        <pt x="569" y="262" on="1"/>
        <pt x="569" y="353" on="1"/>
        <pt x="569" y="399" on="0"/>
        <pt x="538" y="450" on="0"/>
        <pt x="476" y="450" on="0"/>
        <pt x="446" y="393" on="0"/>
        <pt x="446" y="353" on="1"/>
        <pt x="446" y="262" on="1"/>
      </contour>
    </TTGlyph>
    <TTGlyph name="ogonek" xMin="50" yMin="-123" xMax="210" yMax="0">
      <contour>
        <pt x="50" y="0" on="1"/>
        <pt x="151" y="0" on="1"/>
        <pt x="151" y="-5" on="1"/>
        <pt x="151" y="-86" on="0"/>
        <pt x="210" y="-109" on="1"/>
        <pt x="205" y="-123" on="1"/>
        <pt x="50" y="-100" on="0"/>
      </contour>
    </TTGlyph>
    <TTGlyph name="ograve" xMin="50" yMin="-10" xMax="446" yMax="734">
      <contour>
        <pt x="446" y="157" on="1"/>
        <pt x="446" y="86" on="0"/>
        <pt x="336" y="-10" on="0"/>
        <pt x="160" y="-10" on="0"/>
        <pt x="50" y="86" on="0"/>
        <pt x="50" y="157" on="1"/>
        <pt x="50" y="314" on="1"/>
        <pt x="50" y="385" on="0"/>
        <pt x="160" y="480" on="0"/>
        <pt x="336" y="480" on="0"/>
        <pt x="446" y="385" on="0"/>
        <pt x="446" y="314" on="1"/>
      </contour>
      <contour>
        <pt x="309" y="118" on="1"/>
        <pt x="309" y="353" on="1"/>
        <pt x="309" y="450" on="0"/>
        <pt x="186" y="450" on="0"/>
        <pt x="186" y="353" on="1"/>
        <pt x="186" y="118" on="1"/>
        <pt x="186" y="20" on="0"/>
        <pt x="309" y="20" on="0"/>
      </contour>
      <contour>
        <pt x="123" y="653" on="1"/>
        <pt x="109" y="667" on="0"/>
        <pt x="109" y="702" on="0"/>
        <pt x="142" y="734" on="0"/>
        <pt x="186" y="734" on="0"/>
        <pt x="197" y="714" on="1"/>
        <pt x="290" y="543" on="1"/>
        <pt x="269" y="526" on="1"/>
      </contour>
    </TTGlyph>
    <TTGlyph name="one" xMin="30" yMin="0" xMax="286" yMax="690">
      <contour>
        <pt x="286" y="0" on="1"/>
        <pt x="127" y="0" on="1"/>
        <pt x="127" y="562" on="1"/>
        <pt x="30" y="452" on="1"/>
        <pt x="30" y="565" on="1"/>
        <pt x="133" y="690" on="1"/>
        <pt x="286" y="690" on="1"/>
      </contour>
    </TTGlyph>
    <TTGlyph name="ordfeminine" xMin="50" yMin="410" xMax="285" yMax="655">
      <contour>
        <pt x="248" y="452" on="1"/>
        <pt x="248" y="435" on="0"/>
        <pt x="270" y="435" on="0"/>
        <pt x="276" y="451" on="1"/>
        <pt x="285" y="450" on="1"/>
        <pt x="285" y="435" on="0"/>
        <pt x="255" y="410" on="0"/>
        <pt x="234" y="410" on="1"/>
        <pt x="187" y="410" on="0"/>
        <pt x="181" y="447" on="1"/>
        <pt x="177" y="434" on="0"/>
        <pt x="151" y="410" on="0"/>
        <pt x="131" y="410" on="1"/>
        <pt x="92" y="410" on="0"/>
        <pt x="50" y="453" on="0"/>
        <pt x="50" y="490" on="1"/>
        <pt x="50" y="576" on="1"/>
        <pt x="50" y="612" on="0"/>
        <pt x="95" y="655" on="0"/>
        <pt x="151" y="655" on="0"/>
        <pt x="177" y="634" on="0"/>
        <pt x="180" y="622" on="1"/>
        <pt x="180" y="650" on="1"/>
        <pt x="248" y="650" on="1"/>
      </contour>
      <contour>
        <pt x="180" y="582" on="1"/>
        <pt x="180" y="603" on="0"/>
        <pt x="158" y="640" on="0"/>
        <pt x="144" y="640" on="1"/>
        <pt x="119" y="640" on="0"/>
        <pt x="119" y="593" on="1"/>
        <pt x="119" y="473" on="1"/>
        <pt x="119" y="426" on="0"/>
        <pt x="143" y="426" on="1"/>
        <pt x="158" y="426" on="0"/>
        <pt x="180" y="461" on="0"/>
        <pt x="180" y="484" on="1"/>
      </contour>
    </TTGlyph>
    <TTGlyph name="ordmasculine" xMin="50" yMin="409" xMax="248" yMax="655">
      <contour>
        <pt x="248" y="493" on="1"/>
        <pt x="248" y="458" on="0"/>
        <pt x="192" y="409" on="0"/>
        <pt x="105" y="409" on="0"/>
        <pt x="50" y="458" on="0"/>
        <pt x="50" y="493" on="1"/>
        <pt x="50" y="572" on="1"/>
        <pt x="50" y="607" on="0"/>
        <pt x="105" y="655" on="0"/>
        <pt x="193" y="655" on="0"/>
        <pt x="248" y="607" on="0"/>
        <pt x="248" y="572" on="1"/>
      </contour>
      <contour>
        <pt x="179" y="474" on="1"/>
        <pt x="179" y="591" on="1"/>
        <pt x="179" y="640" on="0"/>
        <pt x="118" y="640" on="0"/>
        <pt x="118" y="591" on="1"/>
        <pt x="118" y="474" on="1"/>
        <pt x="118" y="425" on="0"/>
        <pt x="179" y="425" on="0"/>
      </contour>
    </TTGlyph>
    <TTGlyph name="oslash" xMin="50" yMin="-59" xMax="446" yMax="529">
      <contour>
        <pt x="446" y="314" on="1"/>
        <pt x="446" y="157" on="1"/>
        <pt x="446" y="86" on="0"/>
        <pt x="336" y="-10" on="0"/>
        <pt x="248" y="-10" on="1"/>
        <pt x="238" y="-10" on="1"/>
        <pt x="233" y="-59" on="1"/>
        <pt x="203" y="-56" on="1"/>
        <pt x="208" y="-7" on="1"/>
        <pt x="136" y="3" on="0"/>
        <pt x="50" y="95" on="0"/>
        <pt x="50" y="157" on="1"/>
        <pt x="50" y="314" on="1"/>
        <pt x="50" y="385" on="0"/>
        <pt x="160" y="480" on="0"/>
        <pt x="248" y="480" on="1"/>
        <pt x="257" y="480" on="1"/>
        <pt x="262" y="529" on="1"/>
        <pt x="292" y="526" on="1"/>
        <pt x="287" y="477" on="1"/>
        <pt x="359" y="467" on="0"/>
        <pt x="446" y="376" on="0"/>
      </contour>
      <contour>
        <pt x="309" y="118" on="1"/>
        <pt x="309" y="353" on="1"/>
        <pt x="309" y="414" on="0"/>
        <pt x="283" y="437" on="1"/>
        <pt x="241" y="20" on="1"/>
        <pt x="248" y="20" on="1"/>
        <pt x="309" y="20" on="0"/>
      </contour>
      <contour>
        <pt x="186" y="118" on="1"/>
        <pt x="186" y="54" on="0"/>
        <pt x="212" y="32" on="1"/>
        <pt x="254" y="450" on="1"/>
        <pt x="248" y="450" on="1"/>
        <pt x="186" y="450" on="0"/>
        <pt x="186" y="353" on="1"/>
      </contour>
    </TTGlyph>
    <TTGlyph name="otilde" xMin="50" yMin="-10" xMax="446" yMax="652">
      <contour>
        <pt x="446" y="157" on="1"/>
        <pt x="446" y="86" on="0"/>
        <pt x="336" y="-10" on="0"/>
        <pt x="160" y="-10" on="0"/>
        <pt x="50" y="86" on="0"/>
        <pt x="50" y="157" on="1"/>
        <pt x="50" y="314" on="1"/>
        <pt x="50" y="385" on="0"/>
        <pt x="160" y="480" on="0"/>
        <pt x="336" y="480" on="0"/>
        <pt x="446" y="385" on="0"/>
        <pt x="446" y="314" on="1"/>
      </contour>
      <contour>
        <pt x="309" y="118" on="1"/>
        <pt x="309" y="353" on="1"/>
        <pt x="309" y="450" on="0"/>
        <pt x="186" y="450" on="0"/>
        <pt x="186" y="353" on="1"/>
        <pt x="186" y="118" on="1"/>
        <pt x="186" y="20" on="0"/>
        <pt x="309" y="20" on="0"/>
      </contour>
      <contour>
        <pt x="398" y="596" on="0"/>
        <pt x="343" y="542" on="0"/>
        <pt x="284" y="542" on="0"/>
        <pt x="200" y="591" on="0"/>
        <pt x="183" y="591" on="1"/>
        <pt x="147" y="591" on="0"/>
        <pt x="115" y="553" on="1"/>
        <pt x="100" y="568" on="1"/>
        <pt x="165" y="652" on="0"/>
        <pt x="223" y="652" on="1"/>
        <pt x="242" y="652" on="0"/>
        <pt x="313" y="609" on="0"/>
        <pt x="367" y="609" on="0"/>
        <pt x="394" y="628" on="1"/>
        <pt x="407" y="615" on="1"/>
      </contour>
    </TTGlyph>
    <TTGlyph name="p" xMin="60" yMin="-145" xMax="455" yMax="480">
      <contour>
        <pt x="196" y="-145" on="1"/>
        <pt x="60" y="-145" on="1"/>
        <pt x="60" y="470" on="1"/>
        <pt x="196" y="470" on="1"/>
        <pt x="196" y="414" on="1"/>
        <pt x="202" y="438" on="0"/>
        <pt x="255" y="480" on="0"/>
        <pt x="294" y="480" on="1"/>
        <pt x="366" y="480" on="0"/>
        <pt x="455" y="394" on="0"/>
        <pt x="455" y="322" on="1"/>
        <pt x="455" y="149" on="1"/>
        <pt x="455" y="75" on="0"/>
        <pt x="372" y="-10" on="0"/>
        <pt x="294" y="-10" on="1"/>
        <pt x="258" y="-10" on="0"/>
        <pt x="206" y="32" on="0"/>
        <pt x="196" y="58" on="1"/>
      </contour>
      <contour>
        <pt x="196" y="334" on="1"/>
        <pt x="196" y="137" on="1"/>
        <pt x="196" y="92" on="0"/>
        <pt x="240" y="22" on="0"/>
        <pt x="296" y="22" on="0"/>
        <pt x="318" y="66" on="0"/>
        <pt x="318" y="115" on="1"/>
        <pt x="318" y="356" on="1"/>
        <pt x="318" y="402" on="0"/>
        <pt x="297" y="450" on="0"/>
        <pt x="240" y="450" on="0"/>
        <pt x="196" y="376" on="0"/>
      </contour>
    </TTGlyph>
    <TTGlyph name="paragraph" xMin="60" yMin="0" xMax="547" yMax="690">
      <contour>
        <pt x="383" y="0" on="1"/>
        <pt x="269" y="0" on="1"/>
        <pt x="269" y="200" on="1"/>
        <pt x="243" y="200" on="1"/>
        <pt x="157" y="200" on="0"/>
        <pt x="60" y="294" on="0"/>
        <pt x="60" y="367" on="1"/>
        <pt x="60" y="524" on="1"/>
        <pt x="60" y="597" on="0"/>
        <pt x="157" y="690" on="0"/>
        <pt x="243" y="690" on="1"/>
        <pt x="547" y="690" on="1"/>
        <pt x="547" y="0" on="1"/>
        <pt x="435" y="0" on="1"/>
        <pt x="435" y="200" on="1"/>
        <pt x="383" y="200" on="1"/>
      </contour>
      <contour>
        <pt x="269" y="230" on="1"/>
        <pt x="269" y="661" on="1"/>
        <pt x="243" y="661" on="1"/>
        <pt x="196" y="661" on="0"/>
        <pt x="196" y="563" on="1"/>
        <pt x="196" y="328" on="1"/>
        <pt x="196" y="230" on="0"/>
        <pt x="243" y="230" on="1"/>
      </contour>
      <contour>
        <pt x="383" y="660" on="1"/>
        <pt x="383" y="230" on="1"/>
        <pt x="435" y="230" on="1"/>
        <pt x="435" y="660" on="1"/>
      </contour>
    </TTGlyph>
    <TTGlyph name="parenleft" xMin="60" yMin="-40" xMax="348" yMax="730">
      <contour>
        <pt x="348" y="-40" on="1"/>
        <pt x="323" y="-40" on="1"/>
        <pt x="205" y="-40" on="0"/>
        <pt x="60" y="136" on="0"/>
        <pt x="60" y="254" on="1"/>
        <pt x="60" y="440" on="1"/>
        <pt x="60" y="557" on="0"/>
        <pt x="219" y="730" on="0"/>
        <pt x="348" y="730" on="1"/>
        <pt x="348" y="700" on="1"/>
        <pt x="286" y="700" on="0"/>
        <pt x="219" y="587" on="0"/>
        <pt x="219" y="513" on="1"/>
        <pt x="219" y="182" on="1"/>
        <pt x="219" y="106" on="0"/>
        <pt x="286" y="-10" on="0"/>
        <pt x="348" y="-10" on="1"/>
      </contour>
    </TTGlyph>
    <TTGlyph name="parenright" xMin="60" yMin="-40" xMax="348" yMax="730">
      <contour>
        <pt x="60" y="-40" on="1"/>
        <pt x="60" y="-10" on="1"/>
        <pt x="122" y="-10" on="0"/>
        <pt x="189" y="106" on="0"/>
        <pt x="189" y="182" on="1"/>
        <pt x="189" y="513" on="1"/>
        <pt x="189" y="587" on="0"/>
        <pt x="122" y="700" on="0"/>
        <pt x="60" y="700" on="1"/>
        <pt x="60" y="730" on="1"/>
        <pt x="189" y="730" on="0"/>
        <pt x="348" y="557" on="0"/>
        <pt x="348" y="440" on="1"/>
        <pt x="348" y="254" on="1"/>
        <pt x="348" y="136" on="0"/>
        <pt x="189" y="-40" on="0"/>
      </contour>
    </TTGlyph>
    <TTGlyph name="percent" xMin="60" yMin="-40" xMax="881" yMax="730">
      <contour>
        <pt x="231" y="-40" on="1"/>
        <pt x="599" y="730" on="1"/>
        <pt x="711" y="730" on="1"/>
        <pt x="343" y="-40" on="1"/>
      </contour>
      <contour>
        <pt x="881" y="146" on="1"/>
        <pt x="881" y="73" on="0"/>
        <pt x="795" y="-10" on="0"/>
        <pt x="621" y="-10" on="0"/>
        <pt x="535" y="73" on="0"/>
        <pt x="535" y="146" on="1"/>
        <pt x="535" y="183" on="1"/>
        <pt x="535" y="256" on="0"/>
        <pt x="621" y="340" on="0"/>
        <pt x="795" y="340" on="0"/>
        <pt x="881" y="256" on="0"/>
        <pt x="881" y="183" on="1"/>
      </contour>
      <contour>
        <pt x="754" y="117" on="1"/>
        <pt x="754" y="212" on="1"/>
        <pt x="754" y="244" on="0"/>
        <pt x="750" y="280" on="0"/>
        <pt x="728" y="310" on="0"/>
        <pt x="679" y="310" on="0"/>
        <pt x="661" y="260" on="0"/>
        <pt x="661" y="212" on="1"/>
        <pt x="661" y="117" on="1"/>
        <pt x="661" y="86" on="0"/>
        <pt x="666" y="49" on="0"/>
        <pt x="688" y="20" on="0"/>
        <pt x="728" y="20" on="0"/>
        <pt x="750" y="50" on="0"/>
        <pt x="754" y="85" on="0"/>
      </contour>
      <contour>
        <pt x="406" y="506" on="1"/>
        <pt x="406" y="433" on="0"/>
        <pt x="320" y="350" on="0"/>
        <pt x="146" y="350" on="0"/>
        <pt x="60" y="433" on="0"/>
        <pt x="60" y="506" on="1"/>
        <pt x="60" y="543" on="1"/>
        <pt x="60" y="616" on="0"/>
        <pt x="146" y="700" on="0"/>
        <pt x="320" y="700" on="0"/>
        <pt x="406" y="616" on="0"/>
        <pt x="406" y="543" on="1"/>
      </contour>
      <contour>
        <pt x="279" y="477" on="1"/>
        <pt x="279" y="572" on="1"/>
        <pt x="279" y="604" on="0"/>
        <pt x="275" y="640" on="0"/>
        <pt x="253" y="670" on="0"/>
        <pt x="204" y="670" on="0"/>
        <pt x="186" y="620" on="0"/>
        <pt x="186" y="572" on="1"/>
        <pt x="186" y="477" on="1"/>
        <pt x="186" y="446" on="0"/>
        <pt x="191" y="409" on="0"/>
        <pt x="213" y="380" on="0"/>
        <pt x="253" y="380" on="0"/>
        <pt x="275" y="410" on="0"/>
        <pt x="279" y="445" on="0"/>
      </contour>
    </TTGlyph>
    <TTGlyph name="period" xMin="50" yMin="-10" xMax="168" yMax="106">
      <contour>
        <pt x="50" y="25" on="0"/>
        <pt x="50" y="71" on="0"/>
        <pt x="82" y="106" on="0"/>
        <pt x="136" y="106" on="0"/>
        <pt x="168" y="71" on="0"/>
        <pt x="168" y="25" on="0"/>
        <pt x="136" y="-10" on="0"/>
        <pt x="82" y="-10" on="0"/>
      </contour>
    </TTGlyph>
    <TTGlyph name="periodcentered" xMin="5" yMin="189" xMax="133" yMax="305">
      <contour>
        <pt x="5" y="224" on="0"/>
        <pt x="5" y="270" on="0"/>
        <pt x="42" y="305" on="0"/>
        <pt x="96" y="305" on="0"/>
        <pt x="133" y="270" on="0"/>
        <pt x="133" y="224" on="0"/>
        <pt x="96" y="189" on="0"/>
        <pt x="42" y="189" on="0"/>
      </contour>
    </TTGlyph>
    <TTGlyph name="perthousand" xMin="60" yMin="-40" xMax="1271" yMax="730">
      <contour>
        <pt x="231" y="-40" on="1"/>
        <pt x="599" y="730" on="1"/>
        <pt x="711" y="730" on="1"/>
        <pt x="343" y="-40" on="1"/>
      </contour>
      <contour>
        <pt x="881" y="146" on="1"/>
        <pt x="881" y="73" on="0"/>
        <pt x="795" y="-10" on="0"/>
        <pt x="621" y="-10" on="0"/>
        <pt x="535" y="73" on="0"/>
        <pt x="535" y="146" on="1"/>
        <pt x="535" y="183" on="1"/>
        <pt x="535" y="256" on="0"/>
        <pt x="621" y="340" on="0"/>
        <pt x="795" y="340" on="0"/>
        <pt x="881" y="256" on="0"/>
        <pt x="881" y="183" on="1"/>
      </contour>
      <contour>
        <pt x="754" y="117" on="1"/>
        <pt x="754" y="212" on="1"/>
        <pt x="754" y="244" on="0"/>
        <pt x="750" y="280" on="0"/>
        <pt x="728" y="310" on="0"/>
        <pt x="679" y="310" on="0"/>
        <pt x="661" y="260" on="0"/>
        <pt x="661" y="212" on="1"/>
        <pt x="661" y="117" on="1"/>
        <pt x="661" y="86" on="0"/>
        <pt x="666" y="49" on="0"/>
        <pt x="688" y="20" on="0"/>
        <pt x="728" y="20" on="0"/>
        <pt x="750" y="50" on="0"/>
        <pt x="754" y="85" on="0"/>
      </contour>
      <contour>
        <pt x="406" y="506" on="1"/>
        <pt x="406" y="433" on="0"/>
        <pt x="320" y="350" on="0"/>
        <pt x="146" y="350" on="0"/>
        <pt x="60" y="433" on="0"/>
        <pt x="60" y="506" on="1"/>
        <pt x="60" y="543" on="1"/>
        <pt x="60" y="616" on="0"/>
        <pt x="146" y="700" on="0"/>
        <pt x="320" y="700" on="0"/>
        <pt x="406" y="616" on="0"/>
        <pt x="406" y="543" on="1"/>
      </contour>
      <contour>
        <pt x="279" y="477" on="1"/>
        <pt x="279" y="572" on="1"/>
        <pt x="279" y="604" on="0"/>
        <pt x="275" y="640" on="0"/>
        <pt x="253" y="670" on="0"/>
        <pt x="204" y="670" on="0"/>
        <pt x="186" y="620" on="0"/>
        <pt x="186" y="572" on="1"/>
        <pt x="186" y="477" on="1"/>
        <pt x="186" y="446" on="0"/>
        <pt x="191" y="409" on="0"/>
        <pt x="213" y="380" on="0"/>
        <pt x="253" y="380" on="0"/>
        <pt x="275" y="410" on="0"/>
        <pt x="279" y="445" on="0"/>
      </contour>
      <contour>
        <pt x="1271" y="146" on="1"/>
        <pt x="1271" y="73" on="0"/>
        <pt x="1185" y="-10" on="0"/>
        <pt x="1011" y="-10" on="0"/>
        <pt x="925" y="73" on="0"/>
        <pt x="925" y="146" on="1"/>
        <pt x="925" y="183" on="1"/>
        <pt x="925" y="256" on="0"/>
        <pt x="1011" y="340" on="0"/>
        <pt x="1185" y="340" on="0"/>
        <pt x="1271" y="256" on="0"/>
        <pt x="1271" y="183" on="1"/>
      </contour>
      <contour>
        <pt x="1144" y="117" on="1"/>
        <pt x="1144" y="212" on="1"/>
        <pt x="1144" y="244" on="0"/>
        <pt x="1140" y="280" on="0"/>
        <pt x="1118" y="310" on="0"/>
        <pt x="1069" y="310" on="0"/>
        <pt x="1051" y="260" on="0"/>
        <pt x="1051" y="212" on="1"/>
        <pt x="1051" y="117" on="1"/>
        <pt x="1051" y="86" on="0"/>
        <pt x="1056" y="49" on="0"/>
        <pt x="1078" y="20" on="0"/>
        <pt x="1118" y="20" on="0"/>
        <pt x="1140" y="50" on="0"/>
        <pt x="1144" y="85" on="0"/>
      </contour>
    </TTGlyph>
    <TTGlyph name="plus" xMin="60" yMin="110" xMax="360" yMax="360">
      <contour>
        <pt x="263" y="360" on="1"/>
        <pt x="263" y="265" on="1"/>
        <pt x="360" y="265" on="1"/>
        <pt x="360" y="205" on="1"/>
        <pt x="263" y="205" on="1"/>
        <pt x="263" y="110" on="1"/>
        <pt x="157" y="110" on="1"/>
        <pt x="157" y="205" on="1"/>
        <pt x="60" y="205" on="1"/>
        <pt x="60" y="265" on="1"/>
        <pt x="157" y="265" on="1"/>
        <pt x="157" y="360" on="1"/>
      </contour>
    </TTGlyph>
</ttFont>
